<svg xmlns="http://www.w3.org/2000/svg" xmlns:xlink="http://www.w3.org/1999/xlink" width="1600" zoomAndPan="magnify" viewBox="0 0 1200 675.000002" height="900" preserveAspectRatio="xMidYMid meet" version="1.0"><defs><filter x="0%" y="0%" width="100%" height="100%" id="id1"><feColorMatrix values="0 0 0 0 1 0 0 0 0 1 0 0 0 0 1 0 0 0 1 0" color-interpolation-filters="sRGB"/></filter><g/><clipPath id="id2"><path d="M 0.886719 0 L 1199.113281 0 L 1199.113281 674 L 0.886719 674 Z M 0.886719 0 " clip-rule="nonzero"/></clipPath><mask id="id3"><g filter="url(#id1)"><rect x="-120" width="1440" fill="#000000" y="-67.5" height="810.000002" fill-opacity="0.298"/></g></mask><clipPath id="id4"><path d="M 0.109375 0.140625 L 248.800781 0.140625 L 248.800781 152 L 0.109375 152 Z M 0.109375 0.140625 " clip-rule="nonzero"/></clipPath><clipPath id="id5"><rect x="0" width="250" y="0" height="153"/></clipPath><mask id="id6"><g filter="url(#id1)"><rect x="-120" width="1440" fill="#000000" y="-67.5" height="810.000002" fill-opacity="0.298"/></g></mask><clipPath id="id7"><path d="M 1.09375 1 L 249.734375 1 L 249.734375 152.851562 L 1.09375 152.851562 Z M 1.09375 1 " clip-rule="nonzero"/></clipPath><clipPath id="id8"><rect x="0" width="250" y="0" height="153"/></clipPath><mask id="id9"><g filter="url(#id1)"><rect x="-120" width="1440" fill="#000000" y="-67.5" height="810.000002" fill-opacity="0.8"/></g></mask><clipPath id="id10"><path d="M 23 0.308594 L 38 0.308594 L 38 16 L 23 16 Z M 23 0.308594 " clip-rule="nonzero"/></clipPath><clipPath id="id11"><path d="M 0.152344 67 L 12 67 L 12 79 L 0.152344 79 Z M 0.152344 67 " clip-rule="nonzero"/></clipPath><clipPath id="id12"><path d="M 94 61 L 105.597656 61 L 105.597656 73 L 94 73 Z M 94 61 " clip-rule="nonzero"/></clipPath><clipPath id="id13"><path d="M 43 90 L 57 90 L 57 108.140625 L 43 108.140625 Z M 43 90 " clip-rule="nonzero"/></clipPath><clipPath id="id14"><rect x="0" width="106" y="0" height="109"/></clipPath><mask id="id15"><g filter="url(#id1)"><rect x="-120" width="1440" fill="#000000" y="-67.5" height="810.000002" fill-opacity="0.8"/></g></mask><clipPath id="id16"><path d="M 23 0.605469 L 38 0.605469 L 38 17 L 23 17 Z M 23 0.605469 " clip-rule="nonzero"/></clipPath><clipPath id="id17"><path d="M 0.0273438 67 L 12 67 L 12 79 L 0.0273438 79 Z M 0.0273438 67 " clip-rule="nonzero"/></clipPath><clipPath id="id18"><path d="M 94 61 L 105.621094 61 L 105.621094 73 L 94 73 Z M 94 61 " clip-rule="nonzero"/></clipPath><clipPath id="id19"><path d="M 43 90 L 57 90 L 57 108.664062 L 43 108.664062 Z M 43 90 " clip-rule="nonzero"/></clipPath><clipPath id="id20"><rect x="0" width="106" y="0" height="109"/></clipPath><mask id="id21"><g filter="url(#id1)"><rect x="-120" width="1440" fill="#000000" y="-67.5" height="810.000002" fill-opacity="0.2"/></g></mask><clipPath id="id22"><path d="M 0.523438 0.375 L 362.984375 0.375 L 362.984375 456 L 0.523438 456 Z M 0.523438 0.375 " clip-rule="nonzero"/></clipPath><clipPath id="id23"><rect x="0" width="364" y="0" height="456"/></clipPath><clipPath id="id24"><path d="M 794 568 L 1002 568 L 1002 674 L 794 674 Z M 794 568 " clip-rule="nonzero"/></clipPath></defs><g clip-path="url(#id2)"><path fill="#ffffff" d="M 0.886719 0 L 1199.113281 0 L 1199.113281 681.492188 L 0.886719 681.492188 Z M 0.886719 0 " fill-opacity="1" fill-rule="nonzero"/><path fill="#ffffff" d="M 0.886719 0 L 1199.113281 0 L 1199.113281 674 L 0.886719 674 Z M 0.886719 0 " fill-opacity="1" fill-rule="nonzero"/><path fill="#ffffff" d="M 0.886719 0 L 1199.113281 0 L 1199.113281 674 L 0.886719 674 Z M 0.886719 0 " fill-opacity="1" fill-rule="nonzero"/><path fill="#ffffff" d="M 0.886719 0 L 1199.113281 0 L 1199.113281 674 L 0.886719 674 Z M 0.886719 0 " fill-opacity="1" fill-rule="nonzero"/></g><g mask="url(#id3)"><g transform="matrix(1, 0, 0, 1, 823, -0.000000000000005375)"><g clip-path="url(#id5)"><g clip-path="url(#id4)"><path fill="#f28f69" d="M 21.28125 0.261719 L 248.796875 0.261719 L 248.796875 149.722656 C 248.796875 149.722656 199.261719 160.300781 196.191406 135.171875 C 193.121094 110.039062 189.175781 99.902344 165.941406 98.578125 C 142.710938 97.257812 105.449219 91.082031 99.746094 52.285156 C 94.039062 13.488281 49.429688 29.082031 40.566406 36.410156 C 8.316406 63.082031 -20.804688 0.261719 21.28125 0.261719 Z M 21.28125 0.261719 " fill-opacity="1" fill-rule="nonzero"/></g></g></g></g><g mask="url(#id6)"><g transform="matrix(1, 0, 0, 1, 125, 521)"><g clip-path="url(#id8)"><g clip-path="url(#id7)"><path fill="#f28f69" d="M 228.613281 152.730469 L 1.097656 152.730469 L 1.097656 3.269531 C 1.097656 3.269531 50.632812 -7.308594 53.703125 17.820312 C 56.773438 42.953125 60.714844 53.089844 83.949219 54.414062 C 107.183594 55.734375 144.445312 61.910156 150.148438 100.707031 C 155.851562 139.503906 200.464844 123.910156 209.328125 116.578125 C 241.578125 89.910156 270.699219 152.730469 228.613281 152.730469 Z M 228.613281 152.730469 " fill-opacity="1" fill-rule="nonzero"/></g></g></g></g><g mask="url(#id9)"><g transform="matrix(1, 0, 0, 1, 874, 39)"><g clip-path="url(#id14)"><g clip-path="url(#id10)"><path fill="#f28f69" d="M 34.589844 1.34375 C 33.296875 0.65625 31.726562 0.3125 30.292969 0.777344 C 28.855469 1.246094 27.84375 2.097656 26.957031 3.351562 L 24.070312 7.410156 C 23.273438 8.539062 23.15625 10.449219 23.507812 11.726562 C 23.859375 13.003906 24.863281 14.433594 26.074219 15.074219 C 27.367188 15.761719 28.9375 16.105469 30.371094 15.640625 C 31.808594 15.171875 32.820312 14.3125 33.707031 13.066406 L 36.59375 9.007812 C 37.390625 7.886719 37.507812 5.96875 37.15625 4.691406 C 36.804688 3.410156 35.792969 1.980469 34.589844 1.34375 Z M 34.589844 1.34375 " fill-opacity="1" fill-rule="nonzero"/></g><path fill="#f28f69" d="M 50.253906 13.523438 C 53.171875 13.523438 55.96875 10.945312 55.832031 7.917969 C 55.699219 4.894531 53.382812 2.316406 50.253906 2.316406 C 47.335938 2.316406 44.539062 4.894531 44.675781 7.917969 C 44.808594 10.945312 47.125 13.523438 50.253906 13.523438 Z M 50.253906 13.523438 " fill-opacity="1" fill-rule="nonzero"/><path fill="#f28f69" d="M 80.285156 13.523438 C 83.203125 13.523438 85.996094 10.945312 85.863281 7.917969 C 85.726562 4.894531 83.410156 2.316406 80.285156 2.316406 C 77.367188 2.316406 74.570312 4.894531 74.703125 7.917969 C 74.839844 10.945312 77.15625 13.523438 80.285156 13.523438 Z M 80.285156 13.523438 " fill-opacity="1" fill-rule="nonzero"/><path fill="#f28f69" d="M 19.070312 36.132812 C 21.988281 36.132812 24.785156 33.554688 24.648438 30.527344 C 24.515625 27.503906 22.199219 24.929688 19.070312 24.929688 C 16.152344 24.929688 13.355469 27.503906 13.488281 30.527344 C 13.625 33.554688 15.941406 36.132812 19.070312 36.132812 Z M 19.070312 36.132812 " fill-opacity="1" fill-rule="nonzero"/><path fill="#f28f69" d="M 52.371094 28.210938 C 52.234375 25.175781 49.917969 22.609375 46.789062 22.609375 C 43.871094 22.609375 41.074219 25.183594 41.210938 28.210938 C 41.34375 31.238281 43.660156 33.8125 46.789062 33.8125 C 49.707031 33.8125 52.503906 31.234375 52.371094 28.210938 Z M 52.371094 28.210938 " fill-opacity="1" fill-rule="nonzero"/><path fill="#f28f69" d="M 72.582031 28.210938 C 72.445312 25.175781 70.128906 22.609375 67 22.609375 C 64.082031 22.609375 61.285156 25.183594 61.421875 28.210938 C 61.558594 31.238281 63.875 33.8125 67 33.8125 C 69.910156 33.8125 72.722656 31.234375 72.582031 28.210938 Z M 72.582031 28.210938 " fill-opacity="1" fill-rule="nonzero"/><path fill="#f28f69" d="M 94.527344 28.210938 C 94.390625 25.175781 92.074219 22.609375 88.945312 22.609375 C 86.027344 22.609375 83.230469 25.183594 83.367188 28.210938 C 83.5 31.238281 85.816406 33.8125 88.945312 33.8125 C 91.863281 33.8125 94.65625 31.234375 94.527344 28.210938 Z M 94.527344 28.210938 " fill-opacity="1" fill-rule="nonzero"/><path fill="#f28f69" d="M 6.945312 53.523438 C 9.863281 53.523438 12.65625 50.945312 12.523438 47.921875 C 12.386719 44.898438 10.070312 42.320312 6.945312 42.320312 C 4.023438 42.320312 1.226562 44.894531 1.363281 47.921875 C 1.5 50.949219 3.816406 53.523438 6.945312 53.523438 Z M 6.945312 53.523438 " fill-opacity="1" fill-rule="nonzero"/><path fill="#f28f69" d="M 30.621094 41.160156 C 27.703125 41.160156 24.90625 43.738281 25.039062 46.761719 C 25.175781 49.789062 27.492188 52.363281 30.621094 52.363281 C 33.539062 52.363281 36.335938 49.789062 36.199219 46.761719 C 36.0625 43.738281 33.75 41.160156 30.621094 41.160156 Z M 30.621094 41.160156 " fill-opacity="1" fill-rule="nonzero"/><path fill="#f28f69" d="M 47.5625 51.398438 C 47.699219 54.4375 50.011719 57.003906 53.140625 57.003906 C 56.058594 57.003906 58.859375 54.425781 58.722656 51.398438 C 58.585938 48.375 56.269531 45.800781 53.140625 45.800781 C 50.230469 45.800781 47.425781 48.375 47.5625 51.398438 Z M 47.5625 51.398438 " fill-opacity="1" fill-rule="nonzero"/><path fill="#f28f69" d="M 76.242188 42.320312 C 73.320312 42.320312 70.527344 44.894531 70.660156 47.921875 C 70.796875 50.949219 73.113281 53.523438 76.242188 53.523438 C 79.160156 53.523438 81.957031 50.945312 81.820312 47.921875 C 81.6875 44.898438 79.371094 42.320312 76.242188 42.320312 Z M 76.242188 42.320312 " fill-opacity="1" fill-rule="nonzero"/><g clip-path="url(#id11)"><path fill="#f28f69" d="M 11.367188 72.851562 C 11.234375 69.816406 8.917969 67.25 5.789062 67.25 C 2.871094 67.25 0.0742188 69.828125 0.207031 72.851562 C 0.34375 75.875 2.660156 78.453125 5.789062 78.453125 C 8.707031 78.453125 11.503906 75.878906 11.367188 72.851562 Z M 11.367188 72.851562 " fill-opacity="1" fill-rule="nonzero"/></g><path fill="#f28f69" d="M 28.3125 67.25 C 25.390625 67.25 22.59375 69.828125 22.730469 72.851562 C 22.863281 75.875 25.183594 78.453125 28.3125 78.453125 C 31.230469 78.453125 34.023438 75.878906 33.890625 72.851562 C 33.753906 69.824219 31.4375 67.25 28.3125 67.25 Z M 28.3125 67.25 " fill-opacity="1" fill-rule="nonzero"/><path fill="#f28f69" d="M 56.027344 70.148438 C 53.109375 70.148438 50.316406 72.726562 50.449219 75.75 C 50.585938 78.773438 52.902344 81.351562 56.027344 81.351562 C 58.949219 81.351562 61.746094 78.773438 61.609375 75.75 C 61.472656 72.722656 59.15625 70.148438 56.027344 70.148438 Z M 56.027344 70.148438 " fill-opacity="1" fill-rule="nonzero"/><path fill="#f28f69" d="M 71.621094 70.917969 C 74.539062 70.917969 77.335938 68.339844 77.199219 65.3125 C 77.066406 62.289062 74.75 59.710938 71.621094 59.710938 C 68.703125 59.710938 65.90625 62.289062 66.039062 65.3125 C 66.175781 68.335938 68.492188 70.917969 71.621094 70.917969 Z M 71.621094 70.917969 " fill-opacity="1" fill-rule="nonzero"/><g clip-path="url(#id12)"><path fill="#f28f69" d="M 105.496094 67.054688 C 105.363281 64.019531 103.046875 61.453125 99.917969 61.453125 C 97 61.453125 94.203125 64.027344 94.339844 67.054688 C 94.472656 70.082031 96.789062 72.65625 99.917969 72.65625 C 102.835938 72.65625 105.632812 70.078125 105.496094 67.054688 Z M 105.496094 67.054688 " fill-opacity="1" fill-rule="nonzero"/></g><path fill="#f28f69" d="M 102.609375 46.183594 C 102.476562 43.148438 100.160156 40.582031 97.03125 40.582031 C 94.109375 40.582031 91.316406 43.15625 91.453125 46.183594 C 91.585938 49.210938 93.902344 51.785156 97.03125 51.785156 C 99.949219 51.785156 102.746094 49.207031 102.609375 46.183594 Z M 102.609375 46.183594 " fill-opacity="1" fill-rule="nonzero"/><path fill="#f28f69" d="M 21.050781 86.402344 C 19.503906 86.050781 18.1875 86.308594 16.75 86.96875 C 14.640625 87.960938 12.777344 89.304688 11.164062 91 C 9.132812 93.105469 8.917969 96.851562 11.164062 98.917969 C 13.363281 100.945312 16.886719 101.167969 19.058594 98.917969 C 19.386719 98.578125 19.726562 98.257812 20.082031 97.949219 C 20.8125 97.445312 21.578125 97.003906 22.386719 96.632812 C 23.582031 96.085938 24.613281 94.507812 24.949219 93.285156 C 25.324219 91.945312 25.152344 90.160156 24.386719 88.96875 C 23.621094 87.777344 22.484375 86.726562 21.050781 86.402344 Z M 21.050781 86.402344 " fill-opacity="1" fill-rule="nonzero"/><g clip-path="url(#id13)"><path fill="#f28f69" d="M 55.261719 91.964844 C 52.902344 89.789062 49.734375 89.914062 47.371094 91.964844 C 43.652344 95.195312 43 101.085938 45.417969 105.257812 C 46.890625 107.789062 50.523438 108.902344 53.054688 107.265625 C 55.492188 105.683594 56.542969 102.5625 55.222656 99.925781 L 55.261719 99.894531 C 57.476562 97.960938 57.371094 93.910156 55.261719 91.964844 Z M 55.261719 91.964844 " fill-opacity="1" fill-rule="nonzero"/></g><path fill="#f28f69" d="M 72.777344 85.222656 C 69.859375 85.222656 67.0625 87.796875 67.195312 90.824219 C 67.332031 93.851562 69.648438 96.425781 72.777344 96.425781 C 75.695312 96.425781 78.488281 93.847656 78.355469 90.824219 C 78.21875 87.800781 75.910156 85.222656 72.777344 85.222656 Z M 72.777344 85.222656 " fill-opacity="1" fill-rule="nonzero"/></g></g></g><g mask="url(#id15)"><g transform="matrix(1, 0, 0, 1, 218, 524)"><g clip-path="url(#id20)"><g clip-path="url(#id16)"><path fill="#f28f69" d="M 34.550781 1.644531 C 33.257812 0.957031 31.6875 0.613281 30.253906 1.078125 C 28.816406 1.546875 27.804688 2.398438 26.917969 3.652344 L 24.03125 7.710938 C 23.230469 8.839844 23.117188 10.75 23.46875 12.027344 C 23.820312 13.300781 24.824219 14.734375 26.03125 15.375 C 27.328125 16.0625 28.898438 16.40625 30.332031 15.9375 C 31.769531 15.472656 32.78125 14.613281 33.667969 13.363281 L 36.554688 9.308594 C 37.351562 8.1875 37.46875 6.269531 37.117188 4.988281 C 36.765625 3.710938 35.753906 2.28125 34.550781 1.644531 Z M 34.550781 1.644531 " fill-opacity="1" fill-rule="nonzero"/></g><path fill="#f28f69" d="M 50.214844 13.820312 C 53.132812 13.820312 55.929688 11.242188 55.792969 8.21875 C 55.660156 5.195312 53.34375 2.617188 50.214844 2.617188 C 47.296875 2.617188 44.5 5.191406 44.632812 8.21875 C 44.769531 11.246094 47.085938 13.820312 50.214844 13.820312 Z M 50.214844 13.820312 " fill-opacity="1" fill-rule="nonzero"/><path fill="#f28f69" d="M 80.246094 13.820312 C 83.164062 13.820312 85.957031 11.242188 85.824219 8.21875 C 85.6875 5.195312 83.371094 2.617188 80.246094 2.617188 C 77.324219 2.617188 74.527344 5.191406 74.664062 8.21875 C 74.800781 11.246094 77.117188 13.820312 80.246094 13.820312 Z M 80.246094 13.820312 " fill-opacity="1" fill-rule="nonzero"/><path fill="#f28f69" d="M 19.03125 36.433594 C 21.949219 36.433594 24.746094 33.855469 24.609375 30.828125 C 24.476562 27.804688 22.15625 25.226562 19.03125 25.226562 C 16.113281 25.226562 13.316406 27.804688 13.449219 30.828125 C 13.585938 33.855469 15.902344 36.433594 19.03125 36.433594 Z M 19.03125 36.433594 " fill-opacity="1" fill-rule="nonzero"/><path fill="#f28f69" d="M 52.328125 28.511719 C 52.195312 25.476562 49.878906 22.90625 46.75 22.90625 C 43.832031 22.90625 41.035156 25.484375 41.171875 28.511719 C 41.304688 31.535156 43.621094 34.113281 46.75 34.113281 C 49.667969 34.113281 52.464844 31.535156 52.328125 28.511719 Z M 52.328125 28.511719 " fill-opacity="1" fill-rule="nonzero"/><path fill="#f28f69" d="M 72.542969 28.511719 C 72.40625 25.476562 70.089844 22.90625 66.960938 22.90625 C 64.042969 22.90625 61.246094 25.484375 61.382812 28.511719 C 61.515625 31.535156 63.835938 34.113281 66.960938 34.113281 C 69.871094 34.113281 72.683594 31.535156 72.542969 28.511719 Z M 72.542969 28.511719 " fill-opacity="1" fill-rule="nonzero"/><path fill="#f28f69" d="M 94.484375 28.511719 C 94.351562 25.476562 92.035156 22.90625 88.90625 22.90625 C 85.988281 22.90625 83.191406 25.484375 83.328125 28.511719 C 83.460938 31.535156 85.777344 34.113281 88.90625 34.113281 C 91.824219 34.113281 94.617188 31.535156 94.484375 28.511719 Z M 94.484375 28.511719 " fill-opacity="1" fill-rule="nonzero"/><path fill="#f28f69" d="M 6.90625 53.824219 C 9.824219 53.824219 12.617188 51.246094 12.484375 48.222656 C 12.347656 45.199219 10.03125 42.621094 6.90625 42.621094 C 3.984375 42.621094 1.1875 45.195312 1.324219 48.222656 C 1.457031 51.25 3.777344 53.824219 6.90625 53.824219 Z M 6.90625 53.824219 " fill-opacity="1" fill-rule="nonzero"/><path fill="#f28f69" d="M 30.582031 41.460938 C 27.660156 41.460938 24.863281 44.035156 25 47.0625 C 25.136719 50.089844 27.453125 52.664062 30.582031 52.664062 C 33.5 52.664062 36.292969 50.085938 36.160156 47.0625 C 36.023438 44.039062 33.710938 41.460938 30.582031 41.460938 Z M 30.582031 41.460938 " fill-opacity="1" fill-rule="nonzero"/><path fill="#f28f69" d="M 47.519531 51.699219 C 47.660156 54.734375 49.972656 57.304688 53.101562 57.304688 C 56.019531 57.304688 58.816406 54.726562 58.683594 51.699219 C 58.546875 48.675781 56.230469 46.097656 53.101562 46.097656 C 50.1875 46.097656 47.386719 48.675781 47.519531 51.699219 Z M 47.519531 51.699219 " fill-opacity="1" fill-rule="nonzero"/><path fill="#f28f69" d="M 76.199219 42.621094 C 73.28125 42.621094 70.488281 45.195312 70.621094 48.222656 C 70.757812 51.25 73.074219 53.824219 76.199219 53.824219 C 79.121094 53.824219 81.917969 51.246094 81.78125 48.222656 C 81.648438 45.199219 79.328125 42.621094 76.199219 42.621094 Z M 76.199219 42.621094 " fill-opacity="1" fill-rule="nonzero"/><g clip-path="url(#id17)"><path fill="#f28f69" d="M 11.328125 73.152344 C 11.195312 70.113281 8.875 67.550781 5.75 67.550781 C 2.832031 67.550781 0.0351562 70.125 0.167969 73.152344 C 0.304688 76.175781 2.621094 78.753906 5.75 78.753906 C 8.667969 78.753906 11.464844 76.175781 11.328125 73.152344 Z M 11.328125 73.152344 " fill-opacity="1" fill-rule="nonzero"/></g><path fill="#f28f69" d="M 28.269531 67.550781 C 25.351562 67.550781 22.554688 70.125 22.691406 73.152344 C 22.824219 76.175781 25.140625 78.753906 28.269531 78.753906 C 31.191406 78.753906 33.984375 76.175781 33.851562 73.152344 C 33.714844 70.125 31.398438 67.550781 28.269531 67.550781 Z M 28.269531 67.550781 " fill-opacity="1" fill-rule="nonzero"/><path fill="#f28f69" d="M 55.988281 70.449219 C 53.070312 70.449219 50.273438 73.023438 50.410156 76.050781 C 50.546875 79.074219 52.863281 81.652344 55.988281 81.652344 C 58.90625 81.652344 61.703125 79.074219 61.570312 76.050781 C 61.433594 73.023438 59.117188 70.449219 55.988281 70.449219 Z M 55.988281 70.449219 " fill-opacity="1" fill-rule="nonzero"/><path fill="#f28f69" d="M 71.582031 71.214844 C 74.5 71.214844 77.296875 68.640625 77.160156 65.613281 C 77.027344 62.585938 74.710938 60.011719 71.582031 60.011719 C 68.664062 60.011719 65.867188 62.589844 66 65.613281 C 66.136719 68.636719 68.453125 71.214844 71.582031 71.214844 Z M 71.582031 71.214844 " fill-opacity="1" fill-rule="nonzero"/><g clip-path="url(#id18)"><path fill="#f28f69" d="M 105.457031 67.355469 C 105.324219 64.320312 103.007812 61.75 99.878906 61.75 C 96.960938 61.75 94.164062 64.328125 94.296875 67.355469 C 94.433594 70.378906 96.75 72.953125 99.878906 72.953125 C 102.796875 72.953125 105.59375 70.378906 105.457031 67.355469 Z M 105.457031 67.355469 " fill-opacity="1" fill-rule="nonzero"/></g><path fill="#f28f69" d="M 102.570312 46.484375 C 102.4375 43.449219 100.121094 40.878906 96.992188 40.878906 C 94.070312 40.878906 91.277344 43.457031 91.410156 46.484375 C 91.546875 49.507812 93.863281 52.085938 96.992188 52.085938 C 99.910156 52.085938 102.707031 49.507812 102.570312 46.484375 Z M 102.570312 46.484375 " fill-opacity="1" fill-rule="nonzero"/><path fill="#f28f69" d="M 21.011719 86.703125 C 19.464844 86.347656 18.148438 86.609375 16.710938 87.265625 C 14.601562 88.261719 12.738281 89.605469 11.125 91.296875 C 9.09375 93.40625 8.875 97.152344 11.125 99.21875 C 13.324219 101.246094 16.847656 101.46875 19.019531 99.21875 C 19.347656 98.878906 19.6875 98.558594 20.042969 98.25 C 20.769531 97.742188 21.539062 97.304688 22.34375 96.933594 C 23.542969 96.386719 24.574219 94.804688 24.910156 93.585938 C 25.285156 92.246094 25.113281 90.460938 24.347656 89.269531 C 23.582031 88.078125 22.445312 87.027344 21.011719 86.703125 Z M 21.011719 86.703125 " fill-opacity="1" fill-rule="nonzero"/><g clip-path="url(#id19)"><path fill="#f28f69" d="M 55.222656 92.265625 C 52.863281 90.089844 49.695312 90.210938 47.332031 92.265625 C 43.609375 95.492188 42.960938 101.386719 45.378906 105.554688 C 46.851562 108.089844 50.484375 109.203125 53.015625 107.566406 C 55.449219 105.984375 56.503906 102.859375 55.183594 100.226562 L 55.222656 100.195312 C 57.4375 98.261719 57.332031 94.210938 55.222656 92.265625 Z M 55.222656 92.265625 " fill-opacity="1" fill-rule="nonzero"/></g><path fill="#f28f69" d="M 72.738281 85.519531 C 69.816406 85.519531 67.019531 88.097656 67.15625 91.125 C 67.292969 94.148438 69.609375 96.722656 72.738281 96.722656 C 75.65625 96.722656 78.449219 94.148438 78.316406 91.125 C 78.179688 88.097656 75.871094 85.519531 72.738281 85.519531 Z M 72.738281 85.519531 " fill-opacity="1" fill-rule="nonzero"/></g></g></g><g mask="url(#id21)"><g transform="matrix(1, 0, 0, 1, 665, 218)"><g clip-path="url(#id23)"><g clip-path="url(#id22)"><path fill="#cf7666" d="M 12.550781 395.238281 C 20.367188 372.199219 31.894531 348.300781 47.644531 322.484375 C 56.972656 307.191406 59.890625 301.492188 62.628906 293.179688 C 65.535156 284.359375 69.886719 276.652344 73.273438 274.324219 C 75.144531 273.039062 77.34375 272.597656 83.824219 272.199219 C 88.664062 271.902344 92.835938 272.011719 94.027344 272.46875 C 95.140625 272.890625 96.984375 273.007812 98.128906 272.730469 C 102.921875 271.570312 113.863281 266.664062 120.480469 262.710938 C 124.386719 260.378906 129.476562 257.628906 131.789062 256.605469 C 135.878906 254.796875 136.027344 254.621094 136.949219 250.503906 L 137.898438 246.265625 L 133.613281 241.875 C 123.46875 231.472656 117.765625 219.085938 115.695312 202.96875 C 115.398438 200.664062 114.417969 198.058594 113.285156 196.5625 C 112.234375 195.171875 110.851562 192.777344 110.207031 191.234375 C 108.679688 187.578125 106.050781 177.105469 106.039062 174.628906 C 106.035156 173.558594 105.253906 171.222656 104.308594 169.433594 C 102.921875 166.8125 102.738281 165.761719 103.359375 164 C 104 162.191406 104.589844 161.808594 106.824219 161.769531 C 109.414062 161.722656 109.507812 161.621094 109.261719 159.050781 C 109.121094 157.582031 108.972656 150.964844 108.933594 144.347656 C 108.871094 134.230469 109.199219 130.535156 110.992188 121.152344 C 112.167969 115.015625 112.832031 109.699219 112.472656 109.339844 C 111.285156 108.152344 75.609375 97.761719 72.726562 97.761719 C 71.652344 97.761719 71.117188 98.261719 71.117188 99.257812 C 71.492188 101.210938 72.269531 105.480469 73.40625 111.347656 L 74.558594 122.609375 C 75.191406 128.800781 76.574219 137.746094 77.628906 142.492188 C 80.316406 154.5625 82.765625 167.785156 82.726562 170.019531 C 82.710938 171.058594 83.359375 175.054688 84.167969 178.898438 C 84.976562 182.738281 86.390625 190.078125 87.308594 195.203125 C 91.871094 220.691406 91.730469 219.660156 90.632812 219.660156 C 89.945312 219.660156 88.855469 215.074219 87.402344 206.085938 C 86.375 199.722656 84.941406 194.8125 84.117188 194.8125 C 83.792969 194.8125 83.535156 195.597656 83.542969 196.558594 C 83.574219 199.984375 86.617188 220.902344 87.75 225.484375 C 88.96875 230.414062 89.242188 235.207031 88.46875 238.097656 C 87.828125 240.492188 87.160156 240.292969 85.898438 237.324219 L 84.824219 234.800781 L 84.371094 237.90625 C 83.996094 240.476562 83.589844 241.046875 82.019531 241.222656 C 80.972656 241.339844 79.550781 241.949219 78.855469 242.582031 C 76.78125 244.460938 69.671875 244.097656 67.445312 242.003906 C 66.433594 241.054688 64.839844 240.269531 63.902344 240.257812 C 62.285156 240.234375 62.207031 239.941406 62.410156 234.800781 C 62.527344 231.808594 62.960938 226.917969 63.371094 223.929688 C 64.234375 217.660156 63.796875 186.804688 62.597656 169.191406 C 62.148438 162.574219 61.566406 143.101562 61.308594 125.921875 C 60.980469 104.273438 60.566406 94.46875 59.964844 93.988281 C 58.4375 92.769531 50.75 90.949219 44.835938 90.410156 C 37.949219 89.777344 35.429688 88.917969 35.429688 87.191406 C 35.429688 84.757812 44.109375 76.011719 53.632812 68.839844 C 58.871094 64.898438 63.710938 60.710938 64.382812 59.535156 C 65.054688 58.363281 66.933594 56.796875 68.554688 56.058594 C 70.175781 55.320312 76.390625 50.648438 82.363281 45.679688 C 88.335938 40.710938 96.191406 34.515625 99.820312 31.910156 C 103.445312 29.308594 111.207031 23.726562 117.066406 19.503906 C 122.925781 15.277344 130.605469 10 134.132812 7.773438 C 137.660156 5.542969 141.496094 2.980469 142.660156 2.078125 L 144.773438 0.4375 L 155.460938 3.773438 C 201.5 18.160156 234.28125 28.847656 261.175781 38.242188 C 289.308594 48.066406 298.058594 51.390625 308.445312 56.1875 C 314.234375 58.859375 320.796875 61.644531 323.027344 62.378906 C 325.261719 63.113281 327.867188 64.347656 328.820312 65.121094 C 330.34375 66.355469 330.421875 66.6875 329.464844 67.847656 C 327.601562 70.089844 317.632812 74.710938 313.347656 75.3125 C 308.667969 75.976562 299.46875 81.339844 264.375 103.867188 L 243.140625 117.5 L 243.625 122.707031 C 243.890625 125.570312 244.832031 130.964844 245.714844 134.691406 C 247.332031 141.492188 247.460938 150.140625 246.03125 155.53125 C 245.472656 157.648438 245.546875 157.75 247.292969 157.199219 C 252.027344 155.695312 253.769531 155.828125 255.652344 157.835938 C 258.136719 160.480469 258.863281 168.90625 256.992188 173.378906 C 256.300781 175.039062 255.527344 178.359375 255.273438 180.753906 C 254.222656 190.710938 244.96875 204.09375 238.261719 205.351562 C 236.816406 205.625 235.328125 206.246094 234.953125 206.734375 C 234.582031 207.226562 233.15625 211.21875 231.785156 215.613281 L 229.296875 223.601562 L 233.535156 232.304688 C 235.867188 237.09375 238.375 243.195312 239.109375 245.867188 C 240.578125 251.230469 240.449219 251.097656 253.804688 261.507812 C 261.613281 267.589844 263.75 269.738281 270.875 278.660156 C 273.007812 281.332031 277.019531 285.363281 279.792969 287.617188 C 282.566406 289.871094 287.804688 294.386719 291.429688 297.65625 C 296.996094 302.671875 298.328125 303.519531 299.964844 303.105469 C 307.097656 301.289062 307.453125 301.398438 313.128906 307.113281 C 316.035156 310.042969 320.375 314.136719 322.769531 316.207031 C 331.230469 323.519531 337.125 337.113281 351.796875 383.164062 C 355.210938 393.878906 358.394531 405.234375 358.867188 408.398438 C 362.496094 429.917969 362.488281 451.367188 362.488281 473.355469 L 362.980469 475.101562 L 0.519531 475.101562 C 0.519531 441.265625 5.914062 414.730469 12.546875 395.234375 Z M 84.433594 227.625 C 84.113281 222.191406 82.75 220.160156 82.765625 225.136719 C 82.777344 228.917969 83.433594 232.085938 84.203125 232.085938 C 84.472656 232.089844 84.574219 230.078125 84.433594 227.625 Z M 92.515625 237.457031 C 91.421875 234.242188 89.996094 223.757812 90.476562 222.457031 C 91.246094 220.367188 91.625 221.332031 93.261719 229.570312 C 94.34375 235.019531 94.472656 236.972656 93.789062 237.65625 C 93.109375 238.339844 92.800781 238.292969 92.515625 237.457031 Z M 92.515625 237.457031 " fill-opacity="1" fill-rule="nonzero"/></g></g></g></g><g clip-path="url(#id24)"><path fill="#000000" d="M 835.8125 852.039062 C 835.390625 852.039062 834.96875 851.832031 834.695312 851.464844 C 828.445312 842.65625 816.84375 843.757812 816.722656 843.769531 C 815.972656 843.851562 815.304688 843.308594 815.222656 842.558594 C 815.144531 841.808594 815.6875 841.144531 816.4375 841.0625 C 816.980469 841.007812 829.753906 839.792969 836.914062 849.898438 C 837.351562 850.511719 837.199219 851.355469 836.589844 851.792969 C 836.355469 851.957031 836.085938 852.039062 835.8125 852.039062 Z M 826.976562 860.101562 C 827.589844 859.664062 827.738281 858.820312 827.300781 858.207031 C 820.140625 848.117188 807.367188 849.3125 806.824219 849.367188 C 806.074219 849.449219 805.53125 850.117188 805.613281 850.867188 C 805.691406 851.617188 806.347656 852.132812 807.109375 852.078125 C 807.230469 852.066406 818.832031 850.960938 825.082031 859.773438 C 825.355469 860.15625 825.761719 860.34375 826.199219 860.34375 C 826.472656 860.359375 826.742188 860.277344 826.976562 860.101562 Z M 818.492188 868.910156 C 819.105469 868.476562 819.253906 867.632812 818.820312 867.019531 C 811.65625 856.925781 798.886719 858.125 798.339844 858.179688 C 797.589844 858.261719 797.046875 858.929688 797.128906 859.679688 C 797.210938 860.425781 797.863281 860.984375 798.625 860.890625 C 798.75 860.890625 810.351562 859.773438 816.601562 868.585938 C 816.871094 868.964844 817.28125 869.15625 817.714844 869.15625 C 817.988281 869.15625 818.261719 869.074219 818.492188 868.910156 Z M 964.078125 844.519531 C 970.300781 835.75 981.941406 836.8125 982.050781 836.824219 C 982.785156 836.878906 983.464844 836.363281 983.546875 835.613281 C 983.628906 834.863281 983.085938 834.199219 982.335938 834.117188 C 981.792969 834.0625 969.019531 832.847656 961.855469 842.953125 C 961.421875 843.566406 961.570312 844.410156 962.183594 844.847656 C 962.414062 845.023438 962.703125 845.09375 962.972656 845.09375 C 963.394531 845.09375 963.804688 844.902344 964.078125 844.519531 Z M 973.691406 852.839844 C 979.914062 844.058594 991.554688 845.132812 991.664062 845.148438 C 992.398438 845.203125 993.078125 844.683594 993.160156 843.933594 C 993.242188 843.1875 992.699219 842.519531 991.949219 842.4375 C 991.40625 842.382812 978.632812 841.171875 971.46875 851.261719 C 971.035156 851.875 971.183594 852.71875 971.796875 853.15625 C 972.027344 853.332031 972.316406 853.398438 972.585938 853.398438 C 973.007812 853.414062 973.417969 853.222656 973.691406 852.839844 Z M 982.171875 861.652344 C 988.394531 852.867188 1000.035156 853.945312 1000.144531 853.957031 C 1000.882812 854.027344 1001.5625 853.496094 1001.644531 852.746094 C 1001.726562 851.996094 1001.179688 851.328125 1000.433594 851.246094 C 999.886719 851.195312 987.117188 849.980469 979.953125 860.085938 C 979.515625 860.699219 979.667969 861.542969 980.28125 861.980469 C 980.523438 862.15625 980.796875 862.226562 981.070312 862.226562 C 981.492188 862.226562 981.898438 862.035156 982.171875 861.652344 Z M 924.792969 591.554688 C 926.5625 598.582031 960.222656 733.296875 964.457031 818.386719 C 964.554688 820.253906 963.65625 822.023438 962.089844 823.042969 C 957.253906 826.21875 945.695312 831.855469 930.171875 826.789062 C 928.511719 826.246094 927.246094 824.910156 926.753906 823.234375 C 921.457031 805.109375 889.417969 696.609375 868.84375 652.539062 C 868.367188 651.515625 866.828125 651.859375 866.84375 652.988281 C 867.171875 677.664062 868.761719 791.585938 870.722656 825.304688 C 870.859375 827.523438 869.59375 829.582031 867.550781 830.464844 C 861.03125 833.285156 846.1875 837.996094 832.3125 830.140625 C 830.949219 829.375 830.011719 828.042969 829.726562 826.503906 C 825.53125 804.304688 792.511719 628.351562 794.351562 598.0625 C 796.3125 565.816406 911.601562 554.714844 924.617188 590.96875 C 924.699219 591.171875 924.753906 591.363281 924.792969 591.554688 Z M 924.792969 591.554688 " fill-opacity="1" fill-rule="nonzero"/></g><path fill="#f7b49a" d="M 812.242188 530.734375 C 812.242188 530.734375 824.835938 609.542969 799.28125 596.335938 C 773.722656 583.125 777.792969 578.945312 780.570312 576.628906 C 783.347656 574.3125 789.84375 580.074219 789.84375 580.074219 C 784.75 564.96875 786.371094 545.726562 786.371094 545.726562 Z M 812.242188 530.734375 " fill-opacity="1" fill-rule="nonzero"/><path fill="#f28f69" d="M 982.089844 473.25 C 981.394531 439.175781 950.800781 447.863281 950.800781 447.863281 C 922.984375 376.925781 853.636719 386.757812 853.636719 386.757812 C 801.308594 389.277344 768.628906 427 768.628906 427 C 768.628906 427 709.179688 490.625 717.175781 513.75 C 725.167969 536.875 776.269531 544.527344 776.269531 544.527344 L 781.703125 552.140625 C 783.664062 554.878906 787.40625 555.613281 790.253906 553.804688 C 791.683594 552.890625 793.152344 551.871094 794.625 550.808594 C 794.527344 551.871094 794.433594 552.917969 794.351562 553.925781 C 792.609375 574.789062 796.433594 579.652344 796.433594 579.652344 L 794.351562 598.078125 C 857.964844 624.851562 924.371094 592.507812 924.710938 591.269531 C 925.066406 590.027344 917.863281 571.65625 917.863281 571.65625 C 925.953125 565.746094 922.628906 529.589844 922.628906 529.589844 C 968.175781 557.042969 982.785156 507.324219 982.089844 473.25 Z M 776.28125 492.371094 L 795.617188 485.179688 L 801.324219 497.476562 C 801.324219 497.476562 800.4375 503.484375 799.28125 512.007812 C 788.496094 498.742188 776.28125 492.371094 776.28125 492.371094 Z M 776.28125 492.371094 " fill-opacity="1" fill-rule="nonzero"/><path fill="#ede6dd" d="M 881.65625 406.492188 C 881.425781 416.527344 874.15625 435.742188 867.742188 450.832031 C 862.609375 462.898438 858.035156 472.324219 858.035156 472.324219 C 855.828125 470.253906 850.695312 462.679688 845.042969 453.761719 C 835.226562 438.277344 823.816406 418.71875 823.339844 416.800781 C 823.300781 416.582031 823.285156 416.378906 823.300781 416.160156 C 826.226562 380.058594 882.542969 369.269531 881.65625 406.492188 Z M 881.65625 406.492188 " fill-opacity="1" fill-rule="nonzero"/><path fill="#638481" d="M 867.742188 450.832031 C 862.609375 462.898438 858.035156 472.324219 858.035156 472.324219 C 855.828125 470.253906 850.695312 462.679688 845.042969 453.761719 L 849.277344 431.125 C 849.347656 430.703125 849.292969 430.28125 849.101562 429.902344 L 842.117188 416.28125 C 841.734375 415.535156 841.898438 414.59375 842.523438 414.023438 L 852.246094 404.925781 C 852.914062 404.3125 853.90625 404.242188 854.644531 404.746094 L 866.109375 412.671875 C 866.828125 413.175781 867.117188 414.101562 866.800781 414.933594 L 861.480469 428.851562 C 861.316406 429.246094 861.300781 429.683594 861.425781 430.089844 C 862.226562 432.734375 865.425781 443.207031 867.742188 450.832031 Z M 867.742188 450.832031 " fill-opacity="1" fill-rule="nonzero"/><path fill="#ede6dd" d="M 850.898438 380.804688 C 883.535156 368.671875 884.871094 405.605469 884.367188 418.542969 C 884.285156 420.761719 882.121094 422.328125 879.929688 421.742188 L 854.886719 415.097656 C 854.097656 414.851562 853.242188 414.894531 852.464844 415.191406 L 828.050781 424.699219 C 825.832031 425.558594 823.351562 424.152344 823.066406 421.839844 C 817.839844 379.796875 844.320312 380.519531 849.265625 381.011719 C 849.835938 381.09375 850.382812 380.996094 850.898438 380.804688 Z M 850.898438 380.804688 " fill-opacity="1" fill-rule="nonzero"/><path fill="#f7b49a" d="M 869.117188 371.015625 C 869.035156 371.082031 868.96875 371.136719 868.886719 371.191406 C 869.199219 371.832031 869.472656 372.527344 869.660156 373.234375 L 872.699219 384.457031 C 873.789062 388.460938 872.5625 392.734375 869.527344 395.570312 L 854.65625 409.433594 L 838.101562 399.832031 C 834.3125 397.636719 832.148438 393.429688 832.570312 389.074219 L 833.785156 376.503906 C 833.824219 376.105469 833.890625 375.710938 833.972656 375.316406 C 833.933594 375.304688 833.890625 375.289062 833.835938 375.261719 C 833.308594 375.046875 832.789062 374.828125 832.273438 374.597656 C 821.691406 369.9375 814.378906 358.527344 813.113281 345.628906 C 811.070312 325.039062 826.320312 306.066406 844.621094 304.253906 C 862.921875 302.445312 881.125 317.5625 883.15625 338.152344 C 884.175781 348.449219 881.957031 359.058594 875.203125 365.527344 C 873.121094 367.554688 871.117188 369.394531 869.117188 371.015625 Z M 869.117188 371.015625 " fill-opacity="1" fill-rule="nonzero"/><path fill="#000000" d="M 818.109375 328.835938 L 815.332031 348.421875 C 815.332031 348.421875 795.628906 342.511719 806.0625 314.808594 C 816.492188 287.109375 829.003906 294.070312 829.003906 294.070312 C 834.804688 281.199219 845.222656 283.050781 874.320312 294.300781 C 903.417969 305.550781 886.042969 343.246094 879.886719 346.597656 C 873.734375 349.945312 871.773438 317.480469 871.773438 317.480469 C 843.84375 317.125 839.09375 308.21875 839.09375 308.21875 C 839.910156 313.664062 851.960938 324.792969 844.773438 323.976562 C 837.582031 323.15625 830.515625 307.972656 830.515625 307.972656 C 827.875 317.710938 818.109375 328.835938 818.109375 328.835938 Z M 852.015625 378.84375 C 845.765625 379.457031 839.476562 377.605469 833.851562 375.277344 C 836.914062 381.5 843.328125 385.777344 850.734375 385.777344 C 859.734375 385.777344 867.265625 379.445312 869.117188 371.015625 C 863.835938 375.34375 858.648438 378.175781 852.015625 378.84375 Z M 861.96875 329.996094 C 859.285156 329.996094 857.109375 332.171875 857.109375 334.855469 C 857.109375 337.539062 859.285156 339.71875 861.96875 339.71875 C 864.652344 339.71875 866.828125 337.539062 866.828125 334.855469 C 866.84375 332.171875 864.664062 329.996094 861.96875 329.996094 Z M 831.578125 335.726562 C 828.894531 335.726562 826.714844 337.90625 826.714844 340.589844 C 826.714844 343.273438 828.894531 345.453125 831.578125 345.453125 C 834.261719 345.453125 836.4375 343.273438 836.4375 340.589844 C 836.4375 337.90625 834.273438 335.726562 831.578125 335.726562 Z M 831.578125 335.726562 " fill-opacity="1" fill-rule="nonzero"/><path fill="#f7b49a" d="M 893.039062 348.230469 C 890.929688 355.160156 884.761719 359.4375 879.246094 357.761719 C 873.734375 356.089844 870.96875 349.117188 873.078125 342.167969 C 875.191406 335.238281 881.359375 330.960938 886.871094 332.636719 C 892.386719 334.3125 895.152344 341.296875 893.039062 348.230469 Z M 807.625 363.523438 C 811.644531 369.558594 818.777344 371.871094 823.570312 368.683594 C 828.363281 365.5 829.003906 358.023438 825 351.976562 C 820.984375 345.941406 813.847656 343.628906 809.054688 346.8125 C 804.261719 350 803.625 357.492188 807.625 363.523438 Z M 807.625 363.523438 " fill-opacity="1" fill-rule="nonzero"/><path fill="#000000" d="M 866.84375 321.960938 C 866.558594 321.960938 866.273438 321.878906 866.039062 321.6875 C 858.59375 316.171875 851.089844 320.242188 850.777344 320.421875 C 850.121094 320.789062 849.292969 320.558594 848.925781 319.902344 C 848.558594 319.25 848.789062 318.417969 849.441406 318.050781 C 849.824219 317.832031 858.769531 312.917969 867.660156 319.507812 C 868.257812 319.957031 868.394531 320.816406 867.945312 321.414062 C 867.675781 321.78125 867.25 321.960938 866.84375 321.960938 Z M 822.304688 331.34375 C 824.945312 323.609375 833.457031 323.582031 833.851562 323.566406 C 834.558594 323.582031 835.214844 322.96875 835.226562 322.21875 C 835.242188 321.46875 834.628906 320.84375 833.878906 320.84375 C 833.796875 320.84375 823.011719 320.828125 819.730469 330.457031 C 819.484375 331.164062 819.867188 331.941406 820.574219 332.1875 C 820.726562 332.242188 820.875 332.253906 821.011719 332.253906 C 821.570312 332.253906 822.101562 331.902344 822.304688 331.34375 Z M 880.363281 340.738281 C 881.738281 338.355469 883.195312 337.132812 884.695312 337.089844 C 887.035156 337.050781 888.914062 339.894531 888.929688 339.921875 C 889.132812 340.234375 889.554688 340.332031 889.867188 340.128906 C 890.179688 339.921875 890.277344 339.5 890.074219 339.1875 C 889.976562 339.039062 887.746094 335.6875 884.667969 335.726562 C 882.652344 335.769531 880.8125 337.238281 879.179688 340.058594 C 878.988281 340.386719 879.113281 340.808594 879.425781 340.984375 C 879.535156 341.039062 879.644531 341.082031 879.765625 341.082031 C 880.011719 341.082031 880.242188 340.957031 880.363281 340.738281 Z M 807.367188 355.625 C 807.273438 355.625 807.175781 355.613281 807.082031 355.570312 C 806.742188 355.421875 806.589844 355.011719 806.742188 354.671875 C 806.808594 354.523438 808.5 350.84375 811.589844 350.464844 C 813.578125 350.21875 815.621094 351.390625 817.648438 353.949219 C 817.878906 354.25 817.824219 354.671875 817.539062 354.902344 C 817.238281 355.132812 816.816406 355.082031 816.585938 354.792969 C 814.882812 352.628906 813.265625 351.632812 811.765625 351.8125 C 809.4375 352.097656 807.996094 355.1875 807.980469 355.230469 C 807.871094 355.476562 807.625 355.625 807.367188 355.625 Z M 844.539062 361.113281 C 842.441406 361.113281 840.183594 360.839844 837.757812 360.199219 C 837.390625 360.105469 837.171875 359.722656 837.28125 359.371094 C 837.378906 359.003906 837.757812 358.796875 838.113281 358.894531 C 851.894531 362.570312 860.417969 353.390625 860.5 353.296875 C 860.742188 353.023438 861.179688 352.996094 861.464844 353.242188 C 861.738281 353.5 861.765625 353.921875 861.519531 354.207031 C 861.425781 354.289062 855.105469 361.113281 844.539062 361.113281 Z M 843.601562 350.148438 C 843.261719 350.148438 842.972656 349.90625 842.917969 349.566406 C 842.539062 346.773438 843.027344 344.839844 844.390625 343.816406 C 846.609375 342.140625 850.203125 343.679688 850.355469 343.75 C 850.695312 343.898438 850.859375 344.308594 850.707031 344.648438 C 850.558594 344.988281 850.164062 345.152344 849.808594 345.003906 C 848.980469 344.632812 846.527344 343.914062 845.207031 344.90625 C 844.269531 345.617188 843.953125 347.125 844.269531 349.386719 C 844.320312 349.753906 844.0625 350.109375 843.683594 350.148438 C 843.667969 350.136719 843.640625 350.148438 843.601562 350.148438 Z M 843.601562 350.148438 " fill-opacity="1" fill-rule="nonzero"/><path fill="#ede6dd" d="M 977.3125 468.671875 C 974.058594 473.261719 965.695312 472.9375 958.644531 467.925781 C 951.589844 462.914062 948.511719 455.136719 951.78125 450.546875 C 955.035156 445.957031 963.394531 446.285156 970.449219 451.296875 C 977.503906 456.292969 980.578125 464.070312 977.3125 468.671875 Z M 977.3125 468.671875 " fill-opacity="1" fill-rule="nonzero"/><path fill="#f7b49a" d="M 975.296875 441.339844 C 975.269531 441.859375 975.1875 442.390625 975.09375 442.894531 L 973.160156 461.769531 C 973.160156 461.769531 963.832031 469.53125 955.867188 456.320312 L 955.867188 449.839844 C 954.082031 448.761719 952.734375 447.457031 952.191406 446.285156 C 950.09375 441.816406 954.328125 439.871094 954.328125 439.871094 C 954.328125 439.871094 950.296875 439.625 948.472656 435.648438 C 946.648438 431.671875 951.5625 429.65625 951.5625 429.65625 C 951.5625 429.65625 947.179688 428.988281 946.035156 425.71875 C 944.90625 422.453125 948.621094 419.78125 948.621094 419.78125 C 948.621094 419.78125 944.386719 421.757812 943.664062 415.820312 C 943.1875 411.871094 946.265625 407.960938 952.992188 406.96875 C 949.875 398.347656 950.746094 388.582031 956.984375 388.269531 C 962.074219 388.011719 963.65625 400.5 964.144531 407.632812 C 964.703125 407.757812 965.246094 407.867188 965.832031 408.015625 C 975.964844 410.578125 975.785156 432.421875 975.296875 441.339844 Z M 975.296875 441.339844 " fill-opacity="1" fill-rule="nonzero"/><path fill="#000000" d="M 789.503906 554.074219 C 789.707031 554.390625 789.613281 554.8125 789.300781 555.015625 C 789.191406 555.082031 789.054688 555.125 788.929688 555.125 C 788.699219 555.125 788.480469 555.015625 788.359375 554.8125 L 781.851562 544.554688 C 781.648438 544.242188 781.742188 543.820312 782.054688 543.617188 C 782.367188 543.414062 782.789062 543.507812 782.996094 543.820312 Z M 856.03125 583.585938 C 821.707031 584.855469 799.703125 579.746094 796.925781 579.066406 C 790.523438 565.515625 799.851562 512.648438 799.945312 512.117188 C 800.015625 511.75 799.769531 511.394531 799.402344 511.328125 C 799.019531 511.257812 798.679688 511.503906 798.613281 511.871094 C 798.382812 513.164062 795.179688 531.304688 793.875 548.957031 L 788.578125 539.667969 C 788.386719 539.339844 787.976562 539.230469 787.652344 539.410156 C 787.324219 539.585938 787.214844 540.007812 787.394531 540.335938 L 793.695312 551.394531 C 792.949219 563.171875 793.140625 574.355469 795.753906 579.734375 L 793.683594 597.980469 C 793.644531 598.351562 793.914062 598.691406 794.28125 598.730469 C 794.308594 598.730469 794.335938 598.730469 794.363281 598.730469 C 794.703125 598.730469 795.003906 598.472656 795.046875 598.132812 L 797.046875 580.46875 C 800.792969 581.355469 818.246094 585.125 845.179688 585.125 C 848.664062 585.125 852.300781 585.058594 856.085938 584.921875 C 856.46875 584.910156 856.753906 584.59375 856.738281 584.214844 C 856.726562 583.875 856.414062 583.558594 856.03125 583.585938 Z M 853.035156 480.496094 C 814.734375 429.777344 808.101562 399.84375 808.035156 399.546875 C 807.953125 399.175781 807.597656 398.945312 807.230469 399.015625 C 806.863281 399.09375 806.632812 399.449219 806.699219 399.816406 C 806.769531 400.117188 813.425781 430.242188 851.824219 481.132812 L 857.992188 608.6875 C 858.007812 609.054688 858.304688 609.339844 858.671875 609.339844 C 858.6875 609.339844 858.699219 609.339844 858.699219 609.339844 C 859.082031 609.328125 859.367188 609 859.355469 608.632812 L 853.171875 480.875 C 853.160156 480.726562 853.117188 480.601562 853.035156 480.496094 Z M 776.648438 491.8125 C 776.269531 491.550781 767.1875 485.738281 754.441406 494.957031 C 754.140625 495.175781 754.074219 495.597656 754.292969 495.910156 C 754.429688 496.101562 754.632812 496.195312 754.851562 496.195312 C 754.988281 496.195312 755.121094 496.15625 755.246094 496.074219 C 767.199219 487.441406 775.558594 492.738281 775.914062 492.957031 C 776.226562 493.160156 776.648438 493.078125 776.855469 492.765625 C 777.058594 492.453125 776.964844 492.015625 776.648438 491.8125 Z M 825.601562 425.652344 C 825.667969 425.652344 825.75 425.636719 825.816406 425.609375 L 854.929688 415.820312 L 879.765625 422.410156 C 880.132812 422.507812 880.5 422.289062 880.597656 421.921875 C 880.691406 421.554688 880.472656 421.183594 880.105469 421.089844 L 855.066406 414.445312 C 854.941406 414.417969 854.808594 414.417969 854.671875 414.457031 L 825.367188 424.316406 C 825.015625 424.441406 824.824219 424.820312 824.945312 425.175781 C 825.054688 425.476562 825.3125 425.652344 825.601562 425.652344 Z M 795.808594 487.222656 C 795.929688 487.46875 796.160156 487.601562 796.421875 487.601562 C 796.515625 487.601562 796.625 487.574219 796.71875 487.535156 C 797.058594 487.371094 797.195312 486.964844 797.035156 486.621094 L 786.984375 465.992188 C 786.820312 465.648438 786.414062 465.515625 786.070312 465.675781 C 785.730469 465.839844 785.59375 466.25 785.757812 466.589844 Z M 948.636719 420.476562 C 948.730469 420.476562 948.828125 420.464844 948.921875 420.421875 C 948.988281 420.394531 955.484375 417.507812 962.988281 419.007812 C 963.355469 419.085938 963.710938 418.84375 963.789062 418.476562 C 963.859375 418.105469 963.628906 417.753906 963.257812 417.671875 C 955.308594 416.089844 948.636719 419.0625 948.363281 419.183594 C 948.023438 419.332031 947.875 419.742188 948.023438 420.082031 C 948.117188 420.328125 948.363281 420.476562 948.636719 420.476562 Z M 952.992188 407.566406 C 953.074219 407.566406 960.726562 407.28125 963.953125 408.273438 C 964.023438 408.300781 964.089844 408.300781 964.160156 408.300781 C 964.445312 408.300781 964.714844 408.109375 964.8125 407.824219 C 964.921875 407.472656 964.714844 407.089844 964.363281 406.96875 C 960.917969 405.90625 953.277344 406.175781 952.953125 406.191406 C 952.570312 406.203125 952.285156 406.519531 952.296875 406.898438 C 952.296875 407.28125 952.585938 407.59375 952.992188 407.566406 Z M 861.371094 428.796875 C 861.070312 428.742188 853.878906 427.476562 849.101562 429.875 C 848.761719 430.039062 848.625 430.445312 848.800781 430.785156 C 848.925781 431.03125 849.15625 431.167969 849.414062 431.167969 C 849.523438 431.167969 849.617188 431.140625 849.714844 431.097656 C 854.085938 428.90625 861.054688 430.132812 861.136719 430.144531 C 861.507812 430.214844 861.859375 429.96875 861.929688 429.601562 C 861.984375 429.21875 861.738281 428.867188 861.371094 428.796875 Z M 951.304688 429.042969 C 950.964844 429.191406 950.789062 429.585938 950.9375 429.929688 C 951.046875 430.1875 951.304688 430.351562 951.5625 430.351562 C 951.644531 430.351562 951.742188 430.335938 951.820312 430.296875 C 951.890625 430.269531 959.039062 427.339844 964.199219 429.667969 C 964.539062 429.820312 964.949219 429.667969 965.097656 429.328125 C 965.246094 428.988281 965.097656 428.578125 964.757812 428.429688 C 959.066406 425.855469 951.617188 428.90625 951.304688 429.042969 Z M 959.394531 468.671875 C 959.011719 468.617188 958.671875 468.863281 958.617188 469.230469 L 957.144531 478.464844 C 957.089844 478.832031 957.335938 479.1875 957.71875 479.242188 C 957.757812 479.242188 957.785156 479.253906 957.828125 479.253906 C 958.152344 479.253906 958.441406 479.011719 958.492188 478.683594 L 959.964844 469.449219 C 960.019531 469.082031 959.773438 468.726562 959.394531 468.671875 Z M 965.546875 471.640625 C 965.179688 471.613281 964.839844 471.875 964.796875 472.253906 L 963.898438 481.296875 C 963.859375 481.664062 964.132812 482.007812 964.511719 482.046875 C 964.539062 482.046875 964.554688 482.046875 964.582031 482.046875 C 964.921875 482.046875 965.21875 481.789062 965.261719 481.433594 L 966.160156 472.390625 C 966.199219 472.011719 965.929688 471.683594 965.546875 471.640625 Z M 968.160156 449.742188 C 968.078125 449.757812 959.445312 451.445312 956.246094 449.28125 C 956.042969 449.144531 955.796875 449.128906 955.582031 449.226562 C 955.363281 449.320312 955.210938 449.539062 955.183594 449.769531 L 954.628906 454.742188 C 954.585938 455.109375 954.859375 455.449219 955.226562 455.492188 C 955.253906 455.492188 955.28125 455.492188 955.308594 455.492188 C 955.648438 455.492188 955.949219 455.230469 955.988281 454.890625 L 956.425781 450.914062 C 960.480469 452.628906 968.066406 451.144531 968.421875 451.078125 C 968.789062 451.011719 969.03125 450.640625 968.953125 450.273438 C 968.898438 449.921875 968.542969 449.675781 968.160156 449.742188 Z M 972.421875 470.960938 C 972.042969 470.960938 971.742188 471.261719 971.742188 471.640625 L 971.742188 481.351562 C 971.742188 481.734375 972.042969 482.03125 972.421875 482.03125 C 972.804688 482.03125 973.105469 481.734375 973.105469 481.351562 L 973.105469 471.640625 C 973.105469 471.273438 972.804688 470.960938 972.421875 470.960938 Z M 977.980469 468.535156 C 977.910156 468.167969 977.542969 467.925781 977.1875 467.992188 C 976.820312 468.058594 976.578125 468.414062 976.644531 468.78125 L 978.523438 478.695312 C 978.578125 479.023438 978.863281 479.253906 979.191406 479.253906 C 979.230469 479.253906 979.273438 479.253906 979.3125 479.242188 C 979.679688 479.171875 979.925781 478.820312 979.859375 478.453125 Z M 917.578125 571.042969 C 917.359375 571.152344 895.875 581.53125 869.472656 583.601562 C 869.347656 583.613281 869.238281 583.65625 869.144531 583.722656 L 864.71875 479.703125 C 892.6875 436.289062 894.363281 391.796875 894.375 391.347656 C 894.390625 390.964844 894.089844 390.652344 893.722656 390.636719 C 893.707031 390.636719 893.707031 390.636719 893.695312 390.636719 C 893.328125 390.636719 893.027344 390.925781 893.015625 391.292969 C 893 391.726562 891.339844 435.976562 863.453125 479.132812 C 863.371094 479.253906 863.34375 479.390625 863.34375 479.527344 L 868.832031 608.671875 C 868.84375 609.039062 869.144531 609.328125 869.511719 609.328125 C 869.527344 609.328125 869.527344 609.328125 869.539062 609.328125 C 869.921875 609.3125 870.207031 608.984375 870.191406 608.617188 L 869.183594 584.839844 C 869.28125 584.894531 869.390625 584.9375 869.511719 584.9375 C 869.527344 584.9375 869.554688 584.9375 869.566406 584.9375 C 896.226562 582.851562 917.945312 572.351562 918.164062 572.242188 C 918.503906 572.078125 918.640625 571.671875 918.476562 571.332031 C 918.3125 571.015625 917.902344 570.867188 917.578125 571.042969 Z M 951.398438 448.191406 C 951.578125 447.863281 951.453125 447.441406 951.128906 447.265625 C 950.800781 447.085938 950.378906 447.210938 950.203125 447.539062 C 950.011719 447.890625 930.785156 483.898438 932.855469 516.871094 C 932.882812 517.238281 933.179688 517.507812 933.535156 517.507812 C 933.550781 517.507812 933.5625 517.507812 933.578125 517.507812 C 933.957031 517.484375 934.242188 517.167969 934.214844 516.789062 C 932.160156 484.226562 951.210938 448.546875 951.398438 448.191406 Z M 923.8125 486.242188 C 923.8125 486.242188 923.800781 486.242188 923.800781 486.242188 C 923.433594 486.242188 923.132812 486.527344 923.121094 486.910156 L 921.960938 529.5625 C 921.949219 529.945312 922.246094 530.257812 922.628906 530.257812 C 922.628906 530.257812 922.644531 530.257812 922.644531 530.257812 C 923.011719 530.257812 923.308594 529.972656 923.324219 529.589844 L 924.480469 486.9375 C 924.480469 486.566406 924.195312 486.253906 923.8125 486.242188 Z M 953.101562 463.375 C 952.734375 463.308594 952.367188 463.539062 952.296875 463.90625 L 950.121094 474.503906 C 950.050781 474.871094 950.285156 475.238281 950.652344 475.304688 C 950.691406 475.320312 950.746094 475.320312 950.789062 475.320312 C 951.101562 475.320312 951.386719 475.101562 951.453125 474.773438 L 953.632812 464.179688 C 953.714844 463.8125 953.46875 463.445312 953.101562 463.375 Z M 964.007812 440.578125 C 964.089844 440.605469 964.160156 440.617188 964.238281 440.617188 C 964.527344 440.617188 964.785156 440.441406 964.878906 440.167969 C 965.003906 439.816406 964.824219 439.421875 964.472656 439.296875 C 960.875 438.019531 954.492188 439.175781 954.21875 439.214844 C 953.851562 439.285156 953.605469 439.636719 953.675781 440.007812 C 953.742188 440.375 954.097656 440.632812 954.464844 440.550781 C 954.519531 440.550781 960.769531 439.421875 964.007812 440.578125 Z M 964.007812 440.578125 " fill-opacity="1" fill-rule="nonzero"/><path fill="#000000" d="M 860.472656 527.875 C 858.25 527.96875 856.523438 529.847656 856.617188 532.066406 C 856.660156 533.144531 857.121094 534.136719 857.925781 534.859375 C 858.671875 535.539062 859.640625 535.921875 860.648438 535.921875 C 860.703125 535.921875 860.769531 535.921875 860.824219 535.921875 C 863.042969 535.828125 864.773438 533.949219 864.679688 531.726562 C 864.636719 530.652344 864.175781 529.65625 863.371094 528.9375 C 862.582031 528.199219 861.558594 527.832031 860.472656 527.875 Z M 860.757812 534.574219 C 860.050781 534.601562 859.367188 534.355469 858.835938 533.878906 C 858.304688 533.402344 858.007812 532.734375 857.980469 532.027344 C 857.910156 530.554688 859.054688 529.316406 860.527344 529.25 C 860.566406 529.25 860.605469 529.25 860.648438 529.25 C 861.316406 529.25 861.957031 529.492188 862.445312 529.957031 C 862.976562 530.433594 863.277344 531.101562 863.304688 531.808594 C 863.371094 533.253906 862.226562 534.503906 860.757812 534.574219 Z M 859 493.527344 C 856.78125 493.621094 855.050781 495.503906 855.148438 497.722656 C 855.1875 498.796875 855.652344 499.792969 856.453125 500.511719 C 857.203125 501.195312 858.15625 501.574219 859.175781 501.574219 C 859.230469 501.574219 859.300781 501.574219 859.355469 501.574219 C 861.574219 501.480469 863.304688 499.601562 863.207031 497.382812 C 863.167969 496.304688 862.703125 495.3125 861.902344 494.589844 C 861.109375 493.855469 860.078125 493.472656 859 493.527344 Z M 859.285156 500.214844 C 858.578125 500.242188 857.898438 499.996094 857.367188 499.519531 C 856.835938 499.042969 856.535156 498.375 856.507812 497.667969 C 856.441406 496.195312 857.585938 494.957031 859.054688 494.890625 C 859.097656 494.890625 859.136719 494.890625 859.175781 494.890625 C 859.84375 494.890625 860.484375 495.132812 860.976562 495.597656 C 861.507812 496.074219 861.804688 496.742188 861.832031 497.449219 C 861.902344 498.90625 860.757812 500.160156 859.285156 500.214844 Z M 859.734375 510.699219 C 858.660156 510.742188 857.667969 511.203125 856.945312 512.007812 C 856.222656 512.796875 855.839844 513.832031 855.882812 514.910156 C 855.921875 515.984375 856.386719 516.980469 857.191406 517.699219 C 857.9375 518.394531 858.90625 518.761719 859.914062 518.761719 C 859.96875 518.761719 860.035156 518.761719 860.089844 518.761719 C 861.164062 518.722656 862.160156 518.257812 862.882812 517.457031 C 863.601562 516.664062 863.984375 515.628906 863.941406 514.554688 C 863.902344 513.480469 863.4375 512.484375 862.636719 511.761719 C 861.847656 511.027344 860.824219 510.660156 859.734375 510.699219 Z M 861.875 516.527344 C 861.398438 517.058594 860.730469 517.359375 860.023438 517.386719 C 859.3125 517.414062 858.632812 517.167969 858.101562 516.691406 C 857.570312 516.214844 857.269531 515.546875 857.242188 514.839844 C 857.214844 514.132812 857.460938 513.453125 857.9375 512.921875 C 858.414062 512.390625 859.082031 512.089844 859.789062 512.0625 C 859.832031 512.0625 859.871094 512.0625 859.914062 512.0625 C 860.578125 512.0625 861.21875 512.308594 861.710938 512.769531 C 862.242188 513.246094 862.539062 513.914062 862.566406 514.621094 C 862.609375 515.332031 862.363281 516.011719 861.875 516.527344 Z M 861.207031 545.046875 C 858.988281 545.140625 857.257812 547.019531 857.351562 549.242188 C 857.394531 550.316406 857.855469 551.3125 858.660156 552.03125 C 859.410156 552.726562 860.375 553.09375 861.382812 553.09375 C 861.4375 553.09375 861.507812 553.09375 861.558594 553.09375 C 862.636719 553.054688 863.628906 552.589844 864.351562 551.789062 C 865.074219 550.996094 865.453125 549.964844 865.414062 548.886719 C 865.371094 547.8125 864.910156 546.816406 864.105469 546.09375 C 863.316406 545.375 862.296875 544.992188 861.207031 545.046875 Z M 863.34375 550.875 C 862.867188 551.40625 862.199219 551.707031 861.492188 551.734375 C 860.769531 551.761719 860.101562 551.515625 859.574219 551.039062 C 859.042969 550.5625 858.742188 549.894531 858.714844 549.1875 C 858.644531 547.714844 859.789062 546.476562 861.261719 546.410156 C 861.300781 546.410156 861.34375 546.410156 861.382812 546.410156 C 862.050781 546.410156 862.691406 546.652344 863.179688 547.117188 C 863.710938 547.59375 864.011719 548.261719 864.039062 548.96875 C 864.078125 549.675781 863.835938 550.359375 863.34375 550.875 Z M 858.101562 566.429688 C 858.144531 567.503906 858.605469 568.496094 859.410156 569.21875 C 860.15625 569.914062 861.125 570.28125 862.132812 570.28125 C 862.1875 570.28125 862.253906 570.28125 862.308594 570.28125 C 863.386719 570.242188 864.378906 569.777344 865.101562 568.972656 C 865.820312 568.183594 866.203125 567.148438 866.164062 566.074219 C 866.121094 564.996094 865.660156 564.003906 864.855469 563.28125 C 864.066406 562.546875 863.042969 562.164062 861.957031 562.21875 C 859.722656 562.316406 858.007812 564.207031 858.101562 566.429688 Z M 862.117188 563.582031 C 862.785156 563.582031 863.425781 563.828125 863.914062 564.289062 C 864.445312 564.765625 864.746094 565.433594 864.773438 566.140625 C 864.800781 566.851562 864.554688 567.53125 864.078125 568.0625 C 863.601562 568.59375 862.9375 568.894531 862.226562 568.921875 C 861.519531 568.933594 860.839844 568.703125 860.308594 568.226562 C 859.777344 567.75 859.476562 567.082031 859.449219 566.375 C 859.382812 564.902344 860.527344 563.648438 861.996094 563.59375 C 862.050781 563.582031 862.078125 563.582031 862.117188 563.582031 Z M 862.691406 579.40625 C 860.472656 579.5 858.742188 581.382812 858.835938 583.601562 C 858.878906 584.675781 859.339844 585.671875 860.144531 586.394531 C 860.894531 587.085938 861.859375 587.453125 862.867188 587.453125 C 862.921875 587.453125 862.988281 587.453125 863.042969 587.453125 C 865.265625 587.359375 866.992188 585.480469 866.898438 583.261719 C 866.789062 581.027344 864.894531 579.285156 862.691406 579.40625 Z M 862.976562 586.09375 C 862.269531 586.105469 861.585938 585.875 861.054688 585.398438 C 860.527344 584.921875 860.226562 584.253906 860.199219 583.546875 C 860.128906 582.074219 861.273438 580.835938 862.746094 580.769531 C 862.785156 580.769531 862.828125 580.769531 862.855469 580.769531 C 864.269531 580.769531 865.453125 581.886719 865.523438 583.316406 C 865.589844 584.785156 864.433594 586.023438 862.976562 586.09375 Z M 862.976562 586.09375 " fill-opacity="1" fill-rule="nonzero"/><path fill="#ede6dd" d="M 868.84375 653.21875 C 868.761719 653.21875 868.679688 653.207031 868.601562 653.179688 L 840.578125 642.40625 C 840.222656 642.269531 840.046875 641.875 840.183594 641.519531 C 840.320312 641.167969 840.714844 640.988281 841.066406 641.125 L 869.089844 651.898438 C 869.445312 652.035156 869.621094 652.429688 869.484375 652.785156 C 869.375 653.054688 869.117188 653.21875 868.84375 653.21875 Z M 868.84375 653.21875 " fill-opacity="1" fill-rule="nonzero"/><g fill="#f28f69" fill-opacity="1"><g transform="translate(270.194327, 361.460266)"><g><path d="M -0.84375 -23.078125 L 5.484375 -23.078125 L 10.296875 -15.6875 L 15.109375 -23.078125 L 21.421875 -23.078125 L 12.921875 -10.34375 L 12.921875 0 L 7.65625 0 L 7.65625 -10.34375 Z M -0.84375 -23.078125 "/></g></g></g><g fill="#f28f69" fill-opacity="1"><g transform="translate(290.777683, 361.460266)"><g><path d="M 0.640625 -11.546875 C 0.640625 -14.890625 1.773438 -17.71875 4.046875 -20.03125 C 6.328125 -22.34375 9.070312 -23.5 12.28125 -23.5 C 15.5 -23.5 18.238281 -22.34375 20.5 -20.03125 C 22.757812 -17.726562 23.890625 -14.898438 23.890625 -11.546875 C 23.890625 -8.171875 22.78125 -5.332031 20.5625 -3.03125 C 18.34375 -0.726562 15.582031 0.421875 12.28125 0.421875 C 8.90625 0.421875 6.117188 -0.71875 3.921875 -3 C 1.734375 -5.289062 0.640625 -8.140625 0.640625 -11.546875 Z M 6.328125 -11.546875 C 6.328125 -10.335938 6.507812 -9.234375 6.875 -8.234375 C 7.25 -7.234375 7.898438 -6.390625 8.828125 -5.703125 C 9.765625 -5.015625 10.914062 -4.671875 12.28125 -4.671875 C 14.238281 -4.671875 15.710938 -5.34375 16.703125 -6.6875 C 17.703125 -8.03125 18.203125 -9.648438 18.203125 -11.546875 C 18.203125 -13.429688 17.691406 -15.050781 16.671875 -16.40625 C 15.660156 -17.757812 14.195312 -18.4375 12.28125 -18.4375 C 10.375 -18.4375 8.90625 -17.757812 7.875 -16.40625 C 6.84375 -15.050781 6.328125 -13.429688 6.328125 -11.546875 Z M 6.328125 -11.546875 "/></g></g></g><g fill="#f28f69" fill-opacity="1"><g transform="translate(315.304318, 361.460266)"><g><path d="M 19.40625 -23.078125 L 19.40625 -8.1875 C 19.40625 -5.351562 18.640625 -3.207031 17.109375 -1.75 C 15.585938 -0.300781 13.351562 0.421875 10.40625 0.421875 C 7.457031 0.421875 5.21875 -0.300781 3.6875 -1.75 C 2.15625 -3.207031 1.390625 -5.351562 1.390625 -8.1875 L 1.390625 -23.078125 L 6.65625 -23.078125 L 6.65625 -9.734375 C 6.65625 -7.867188 6.945312 -6.570312 7.53125 -5.84375 C 8.125 -5.113281 9.082031 -4.75 10.40625 -4.75 C 11.726562 -4.75 12.679688 -5.113281 13.265625 -5.84375 C 13.859375 -6.570312 14.15625 -7.867188 14.15625 -9.734375 L 14.15625 -23.078125 Z M 19.40625 -23.078125 "/></g></g></g><g fill="#f28f69" fill-opacity="1"><g transform="translate(336.111406, 361.460266)"><g><path d="M 1.671875 -23.078125 L 9.921875 -23.078125 C 12.140625 -23.078125 13.945312 -22.484375 15.34375 -21.296875 C 16.75 -20.109375 17.453125 -18.414062 17.453125 -16.21875 C 17.453125 -14.519531 17.023438 -13.097656 16.171875 -11.953125 C 15.328125 -10.804688 14.175781 -10 12.71875 -9.53125 L 20.671875 0 L 13.984375 0 L 6.9375 -9.125 L 6.9375 0 L 1.671875 0 Z M 6.9375 -12.84375 L 7.546875 -12.84375 C 8.035156 -12.84375 8.445312 -12.847656 8.78125 -12.859375 C 9.113281 -12.878906 9.492188 -12.945312 9.921875 -13.0625 C 10.359375 -13.175781 10.707031 -13.332031 10.96875 -13.53125 C 11.226562 -13.738281 11.453125 -14.035156 11.640625 -14.421875 C 11.828125 -14.816406 11.921875 -15.296875 11.921875 -15.859375 C 11.921875 -16.421875 11.828125 -16.894531 11.640625 -17.28125 C 11.453125 -17.675781 11.226562 -17.972656 10.96875 -18.171875 C 10.707031 -18.378906 10.359375 -18.539062 9.921875 -18.65625 C 9.492188 -18.769531 9.113281 -18.832031 8.78125 -18.84375 C 8.445312 -18.863281 8.035156 -18.875 7.546875 -18.875 L 6.9375 -18.875 Z M 6.9375 -12.84375 "/></g></g></g><g fill="#f28f69" fill-opacity="1"><g transform="translate(356.135435, 361.460266)"><g/></g></g><g fill="#f28f69" fill-opacity="1"><g transform="translate(363.77029, 361.460266)"><g><path d="M 20.75 0 L 19.65625 -13.671875 L 19.515625 -13.671875 L 14.796875 -0.140625 L 11.65625 -0.140625 L 6.9375 -13.671875 L 6.796875 -13.671875 L 5.703125 0 L 0.453125 0 L 2.515625 -23.078125 L 8.109375 -23.078125 L 13.234375 -9.765625 L 18.34375 -23.078125 L 23.9375 -23.078125 L 26.015625 0 Z M 20.75 0 "/></g></g></g><g fill="#f28f69" fill-opacity="1"><g transform="translate(390.226616, 361.460266)"><g><path d="M 0.640625 -11.546875 C 0.640625 -14.890625 1.773438 -17.71875 4.046875 -20.03125 C 6.328125 -22.34375 9.070312 -23.5 12.28125 -23.5 C 15.5 -23.5 18.238281 -22.34375 20.5 -20.03125 C 22.757812 -17.726562 23.890625 -14.898438 23.890625 -11.546875 C 23.890625 -8.171875 22.78125 -5.332031 20.5625 -3.03125 C 18.34375 -0.726562 15.582031 0.421875 12.28125 0.421875 C 8.90625 0.421875 6.117188 -0.71875 3.921875 -3 C 1.734375 -5.289062 0.640625 -8.140625 0.640625 -11.546875 Z M 6.328125 -11.546875 C 6.328125 -10.335938 6.507812 -9.234375 6.875 -8.234375 C 7.25 -7.234375 7.898438 -6.390625 8.828125 -5.703125 C 9.765625 -5.015625 10.914062 -4.671875 12.28125 -4.671875 C 14.238281 -4.671875 15.710938 -5.34375 16.703125 -6.6875 C 17.703125 -8.03125 18.203125 -9.648438 18.203125 -11.546875 C 18.203125 -13.429688 17.691406 -15.050781 16.671875 -16.40625 C 15.660156 -17.757812 14.195312 -18.4375 12.28125 -18.4375 C 10.375 -18.4375 8.90625 -17.757812 7.875 -16.40625 C 6.84375 -15.050781 6.328125 -13.429688 6.328125 -11.546875 Z M 6.328125 -11.546875 "/></g></g></g><g fill="#f28f69" fill-opacity="1"><g transform="translate(414.753251, 361.460266)"><g><path d="M 10.1875 -23.5 C 11.425781 -23.5 12.644531 -23.316406 13.84375 -22.953125 C 15.039062 -22.585938 15.925781 -22.226562 16.5 -21.875 L 17.34375 -21.3125 L 15.21875 -17.109375 C 15.050781 -17.222656 14.816406 -17.367188 14.515625 -17.546875 C 14.210938 -17.722656 13.648438 -17.960938 12.828125 -18.265625 C 12.015625 -18.566406 11.253906 -18.71875 10.546875 -18.71875 C 9.671875 -18.71875 8.992188 -18.53125 8.515625 -18.15625 C 8.035156 -17.78125 7.796875 -17.273438 7.796875 -16.640625 C 7.796875 -16.328125 7.90625 -16.035156 8.125 -15.765625 C 8.351562 -15.492188 8.738281 -15.203125 9.28125 -14.890625 C 9.820312 -14.585938 10.296875 -14.34375 10.703125 -14.15625 C 11.117188 -13.96875 11.753906 -13.6875 12.609375 -13.3125 C 14.097656 -12.675781 15.367188 -11.8125 16.421875 -10.71875 C 17.484375 -9.632812 18.015625 -8.398438 18.015625 -7.015625 C 18.015625 -5.691406 17.773438 -4.535156 17.296875 -3.546875 C 16.816406 -2.554688 16.160156 -1.78125 15.328125 -1.21875 C 14.503906 -0.664062 13.585938 -0.253906 12.578125 0.015625 C 11.578125 0.285156 10.488281 0.421875 9.3125 0.421875 C 8.300781 0.421875 7.3125 0.316406 6.34375 0.109375 C 5.375 -0.0976562 4.5625 -0.351562 3.90625 -0.65625 C 3.257812 -0.96875 2.675781 -1.269531 2.15625 -1.5625 C 1.632812 -1.863281 1.25 -2.117188 1 -2.328125 L 0.640625 -2.625 L 3.265625 -7.046875 C 3.492188 -6.859375 3.800781 -6.617188 4.1875 -6.328125 C 4.582031 -6.046875 5.28125 -5.660156 6.28125 -5.171875 C 7.28125 -4.691406 8.160156 -4.453125 8.921875 -4.453125 C 11.140625 -4.453125 12.25 -5.207031 12.25 -6.71875 C 12.25 -7.03125 12.171875 -7.320312 12.015625 -7.59375 C 11.859375 -7.863281 11.578125 -8.132812 11.171875 -8.40625 C 10.773438 -8.675781 10.421875 -8.890625 10.109375 -9.046875 C 9.804688 -9.203125 9.300781 -9.441406 8.59375 -9.765625 C 7.894531 -10.097656 7.378906 -10.347656 7.046875 -10.515625 C 5.648438 -11.203125 4.566406 -12.0625 3.796875 -13.09375 C 3.035156 -14.132812 2.65625 -15.253906 2.65625 -16.453125 C 2.65625 -18.515625 3.421875 -20.203125 4.953125 -21.515625 C 6.484375 -22.835938 8.226562 -23.5 10.1875 -23.5 Z M 10.1875 -23.5 "/></g></g></g><g fill="#f28f69" fill-opacity="1"><g transform="translate(433.54675, 361.460266)"><g><path d="M 0.21875 -18.453125 L 0.21875 -23.078125 L 16.453125 -23.078125 L 16.453125 -18.453125 L 10.96875 -18.453125 L 10.96875 0 L 5.703125 0 L 5.703125 -18.453125 Z M 0.21875 -18.453125 "/></g></g></g><g fill="#f28f69" fill-opacity="1"><g transform="translate(450.214797, 361.460266)"><g/></g></g><g fill="#f28f69" fill-opacity="1"><g transform="translate(457.849661, 361.460266)"><g><path d="M 13.953125 -4.75 C 14.753906 -4.75 15.53125 -4.867188 16.28125 -5.109375 C 17.039062 -5.359375 17.597656 -5.59375 17.953125 -5.8125 L 18.484375 -6.1875 L 20.71875 -1.703125 C 20.644531 -1.648438 20.539062 -1.578125 20.40625 -1.484375 C 20.28125 -1.390625 19.976562 -1.21875 19.5 -0.96875 C 19.03125 -0.71875 18.523438 -0.5 17.984375 -0.3125 C 17.441406 -0.125 16.734375 0.0390625 15.859375 0.1875 C 14.984375 0.34375 14.078125 0.421875 13.140625 0.421875 C 10.992188 0.421875 8.960938 -0.101562 7.046875 -1.15625 C 5.128906 -2.207031 3.582031 -3.65625 2.40625 -5.5 C 1.226562 -7.351562 0.640625 -9.351562 0.640625 -11.5 C 0.640625 -13.113281 0.984375 -14.664062 1.671875 -16.15625 C 2.367188 -17.65625 3.289062 -18.9375 4.4375 -20 C 5.582031 -21.0625 6.914062 -21.910156 8.4375 -22.546875 C 9.96875 -23.179688 11.535156 -23.5 13.140625 -23.5 C 14.628906 -23.5 16.003906 -23.320312 17.265625 -22.96875 C 18.523438 -22.613281 19.414062 -22.257812 19.9375 -21.90625 L 20.71875 -21.375 L 18.484375 -16.890625 C 18.359375 -17.003906 18.164062 -17.140625 17.90625 -17.296875 C 17.644531 -17.453125 17.117188 -17.660156 16.328125 -17.921875 C 15.546875 -18.179688 14.753906 -18.3125 13.953125 -18.3125 C 12.679688 -18.3125 11.539062 -18.109375 10.53125 -17.703125 C 9.53125 -17.296875 8.734375 -16.753906 8.140625 -16.078125 C 7.554688 -15.410156 7.109375 -14.6875 6.796875 -13.90625 C 6.492188 -13.132812 6.34375 -12.347656 6.34375 -11.546875 C 6.34375 -9.796875 7 -8.222656 8.3125 -6.828125 C 9.632812 -5.441406 11.515625 -4.75 13.953125 -4.75 Z M 13.953125 -4.75 "/></g></g></g><g fill="#f28f69" fill-opacity="1"><g transform="translate(478.908452, 361.460266)"><g><path d="M 0.640625 -11.546875 C 0.640625 -14.890625 1.773438 -17.71875 4.046875 -20.03125 C 6.328125 -22.34375 9.070312 -23.5 12.28125 -23.5 C 15.5 -23.5 18.238281 -22.34375 20.5 -20.03125 C 22.757812 -17.726562 23.890625 -14.898438 23.890625 -11.546875 C 23.890625 -8.171875 22.78125 -5.332031 20.5625 -3.03125 C 18.34375 -0.726562 15.582031 0.421875 12.28125 0.421875 C 8.90625 0.421875 6.117188 -0.71875 3.921875 -3 C 1.734375 -5.289062 0.640625 -8.140625 0.640625 -11.546875 Z M 6.328125 -11.546875 C 6.328125 -10.335938 6.507812 -9.234375 6.875 -8.234375 C 7.25 -7.234375 7.898438 -6.390625 8.828125 -5.703125 C 9.765625 -5.015625 10.914062 -4.671875 12.28125 -4.671875 C 14.238281 -4.671875 15.710938 -5.34375 16.703125 -6.6875 C 17.703125 -8.03125 18.203125 -9.648438 18.203125 -11.546875 C 18.203125 -13.429688 17.691406 -15.050781 16.671875 -16.40625 C 15.660156 -17.757812 14.195312 -18.4375 12.28125 -18.4375 C 10.375 -18.4375 8.90625 -17.757812 7.875 -16.40625 C 6.84375 -15.050781 6.328125 -13.429688 6.328125 -11.546875 Z M 6.328125 -11.546875 "/></g></g></g><g fill="#f28f69" fill-opacity="1"><g transform="translate(503.435087, 361.460266)"><g><path d="M 6.9375 -14.3125 L 6.9375 0 L 1.671875 0 L 1.671875 -23.078125 L 6.9375 -23.078125 L 16.109375 -8.75 L 16.171875 -8.75 L 16.171875 -23.078125 L 21.421875 -23.078125 L 21.421875 0 L 16.171875 0 L 6.984375 -14.3125 Z M 6.9375 -14.3125 "/></g></g></g><g fill="#f28f69" fill-opacity="1"><g transform="translate(526.53543, 361.460266)"><g><path d="M 8.890625 0 L -0.78125 -23.078125 L 5.140625 -23.078125 L 10.96875 -7.921875 L 16.78125 -23.078125 L 22.703125 -23.078125 L 13.03125 0 Z M 8.890625 0 "/></g></g></g><g fill="#f28f69" fill-opacity="1"><g transform="translate(548.461179, 361.460266)"><g><path d="M 14.875 -23.078125 L 14.875 -18.453125 L 6.9375 -18.453125 L 6.9375 -13.875 L 14.546875 -13.875 L 14.546875 -9.25 L 6.9375 -9.25 L 6.9375 -4.609375 L 14.875 -4.609375 L 14.875 0 L 1.671875 0 L 1.671875 -23.078125 Z M 14.875 -23.078125 "/></g></g></g><g fill="#f28f69" fill-opacity="1"><g transform="translate(564.681745, 361.460266)"><g><path d="M 6.9375 -14.3125 L 6.9375 0 L 1.671875 0 L 1.671875 -23.078125 L 6.9375 -23.078125 L 16.109375 -8.75 L 16.171875 -8.75 L 16.171875 -23.078125 L 21.421875 -23.078125 L 21.421875 0 L 16.171875 0 L 6.984375 -14.3125 Z M 6.9375 -14.3125 "/></g></g></g><g fill="#f28f69" fill-opacity="1"><g transform="translate(587.782089, 361.460266)"><g><path d="M 6.9375 -23.078125 L 6.9375 0 L 1.671875 0 L 1.671875 -23.078125 Z M 6.9375 -23.078125 "/></g></g></g><g fill="#f28f69" fill-opacity="1"><g transform="translate(596.39578, 361.460266)"><g><path d="M 14.875 -23.078125 L 14.875 -18.453125 L 6.9375 -18.453125 L 6.9375 -13.875 L 14.546875 -13.875 L 14.546875 -9.25 L 6.9375 -9.25 L 6.9375 -4.609375 L 14.875 -4.609375 L 14.875 0 L 1.671875 0 L 1.671875 -23.078125 Z M 14.875 -23.078125 "/></g></g></g><g fill="#f28f69" fill-opacity="1"><g transform="translate(612.616379, 361.460266)"><g><path d="M 6.9375 -14.3125 L 6.9375 0 L 1.671875 0 L 1.671875 -23.078125 L 6.9375 -23.078125 L 16.109375 -8.75 L 16.171875 -8.75 L 16.171875 -23.078125 L 21.421875 -23.078125 L 21.421875 0 L 16.171875 0 L 6.984375 -14.3125 Z M 6.9375 -14.3125 "/></g></g></g><g fill="#f28f69" fill-opacity="1"><g transform="translate(635.716723, 361.460266)"><g><path d="M 0.21875 -18.453125 L 0.21875 -23.078125 L 16.453125 -23.078125 L 16.453125 -18.453125 L 10.96875 -18.453125 L 10.96875 0 L 5.703125 0 L 5.703125 -18.453125 Z M 0.21875 -18.453125 "/></g></g></g><g fill="#f28f69" fill-opacity="1"><g transform="translate(280.448998, 400.474778)"><g><path d="M 0.640625 -11.546875 C 0.640625 -14.890625 1.773438 -17.71875 4.046875 -20.03125 C 6.328125 -22.34375 9.070312 -23.5 12.28125 -23.5 C 15.5 -23.5 18.238281 -22.34375 20.5 -20.03125 C 22.757812 -17.726562 23.890625 -14.898438 23.890625 -11.546875 C 23.890625 -8.171875 22.78125 -5.332031 20.5625 -3.03125 C 18.34375 -0.726562 15.582031 0.421875 12.28125 0.421875 C 8.90625 0.421875 6.117188 -0.71875 3.921875 -3 C 1.734375 -5.289062 0.640625 -8.140625 0.640625 -11.546875 Z M 6.328125 -11.546875 C 6.328125 -10.335938 6.507812 -9.234375 6.875 -8.234375 C 7.25 -7.234375 7.898438 -6.390625 8.828125 -5.703125 C 9.765625 -5.015625 10.914062 -4.671875 12.28125 -4.671875 C 14.238281 -4.671875 15.710938 -5.34375 16.703125 -6.6875 C 17.703125 -8.03125 18.203125 -9.648438 18.203125 -11.546875 C 18.203125 -13.429688 17.691406 -15.050781 16.671875 -16.40625 C 15.660156 -17.757812 14.195312 -18.4375 12.28125 -18.4375 C 10.375 -18.4375 8.90625 -17.757812 7.875 -16.40625 C 6.84375 -15.050781 6.328125 -13.429688 6.328125 -11.546875 Z M 6.328125 -11.546875 "/></g></g></g><g fill="#f28f69" fill-opacity="1"><g transform="translate(304.975633, 400.474778)"><g><path d="M 6.9375 -14.3125 L 6.9375 0 L 1.671875 0 L 1.671875 -23.078125 L 6.9375 -23.078125 L 16.109375 -8.75 L 16.171875 -8.75 L 16.171875 -23.078125 L 21.421875 -23.078125 L 21.421875 0 L 16.171875 0 L 6.984375 -14.3125 Z M 6.9375 -14.3125 "/></g></g></g><g fill="#f28f69" fill-opacity="1"><g transform="translate(328.075976, 400.474778)"><g><path d="M 6.9375 -23.078125 L 6.9375 -4.609375 L 14.875 -4.609375 L 14.875 0 L 1.671875 0 L 1.671875 -23.078125 Z M 6.9375 -23.078125 "/></g></g></g><g fill="#f28f69" fill-opacity="1"><g transform="translate(343.877059, 400.474778)"><g><path d="M 6.9375 -23.078125 L 6.9375 0 L 1.671875 0 L 1.671875 -23.078125 Z M 6.9375 -23.078125 "/></g></g></g><g fill="#f28f69" fill-opacity="1"><g transform="translate(352.490749, 400.474778)"><g><path d="M 6.9375 -14.3125 L 6.9375 0 L 1.671875 0 L 1.671875 -23.078125 L 6.9375 -23.078125 L 16.109375 -8.75 L 16.171875 -8.75 L 16.171875 -23.078125 L 21.421875 -23.078125 L 21.421875 0 L 16.171875 0 L 6.984375 -14.3125 Z M 6.9375 -14.3125 "/></g></g></g><g fill="#f28f69" fill-opacity="1"><g transform="translate(375.591093, 400.474778)"><g><path d="M 14.875 -23.078125 L 14.875 -18.453125 L 6.9375 -18.453125 L 6.9375 -13.875 L 14.546875 -13.875 L 14.546875 -9.25 L 6.9375 -9.25 L 6.9375 -4.609375 L 14.875 -4.609375 L 14.875 0 L 1.671875 0 L 1.671875 -23.078125 Z M 14.875 -23.078125 "/></g></g></g><g fill="#f28f69" fill-opacity="1"><g transform="translate(391.811676, 400.474778)"><g/></g></g><g fill="#f28f69" fill-opacity="1"><g transform="translate(399.446532, 400.474778)"><g><path d="M 7.296875 4.84375 L 6.046875 2.9375 C 6.097656 2.863281 6.171875 2.769531 6.265625 2.65625 C 6.359375 2.539062 6.550781 2.328125 6.84375 2.015625 C 7.144531 1.710938 7.4375 1.441406 7.71875 1.203125 C 8 0.972656 8.320312 0.765625 8.6875 0.578125 C 9.0625 0.398438 9.410156 0.3125 9.734375 0.3125 L 9.734375 0.203125 C 7.015625 -0.328125 4.816406 -1.671875 3.140625 -3.828125 C 1.472656 -5.992188 0.640625 -8.566406 0.640625 -11.546875 C 0.640625 -14.898438 1.757812 -17.726562 4 -20.03125 C 6.238281 -22.34375 8.953125 -23.5 12.140625 -23.5 C 15.347656 -23.5 18.0625 -22.34375 20.28125 -20.03125 C 22.5 -17.726562 23.609375 -14.898438 23.609375 -11.546875 C 23.609375 -8.804688 22.867188 -6.390625 21.390625 -4.296875 C 19.921875 -2.210938 17.984375 -0.804688 15.578125 -0.078125 L 15.578125 0.03125 C 15.691406 0.03125 16.1875 0.117188 17.0625 0.296875 C 17.9375 0.472656 18.632812 0.5625 19.15625 0.5625 C 19.863281 0.5625 20.503906 0.429688 21.078125 0.171875 C 21.660156 -0.078125 22.066406 -0.320312 22.296875 -0.5625 L 22.625 -0.953125 L 24.28125 2.59375 C 24.238281 2.6875 24.175781 2.800781 24.09375 2.9375 C 24.007812 3.082031 23.816406 3.332031 23.515625 3.6875 C 23.222656 4.039062 22.894531 4.359375 22.53125 4.640625 C 22.164062 4.921875 21.679688 5.171875 21.078125 5.390625 C 20.472656 5.617188 19.820312 5.734375 19.125 5.734375 C 17.988281 5.734375 16.597656 5.367188 14.953125 4.640625 C 13.316406 3.910156 11.90625 3.546875 10.71875 3.546875 C 10.0625 3.546875 9.445312 3.648438 8.875 3.859375 C 8.3125 4.078125 7.90625 4.300781 7.65625 4.53125 Z M 6.328125 -11.546875 C 6.328125 -10.648438 6.425781 -9.816406 6.625 -9.046875 C 6.832031 -8.273438 7.15625 -7.570312 7.59375 -6.9375 C 8.03125 -6.300781 8.632812 -5.800781 9.40625 -5.4375 C 10.1875 -5.070312 11.097656 -4.890625 12.140625 -4.890625 C 14.097656 -4.890625 15.550781 -5.523438 16.5 -6.796875 C 17.445312 -8.066406 17.921875 -9.648438 17.921875 -11.546875 C 17.921875 -13.429688 17.4375 -15.007812 16.46875 -16.28125 C 15.5 -17.5625 14.054688 -18.203125 12.140625 -18.203125 C 10.234375 -18.203125 8.785156 -17.554688 7.796875 -16.265625 C 6.816406 -14.984375 6.328125 -13.410156 6.328125 -11.546875 Z M 6.328125 -11.546875 "/></g></g></g><g fill="#f28f69" fill-opacity="1"><g transform="translate(423.693499, 400.474778)"><g><path d="M 19.40625 -23.078125 L 19.40625 -8.1875 C 19.40625 -5.351562 18.640625 -3.207031 17.109375 -1.75 C 15.585938 -0.300781 13.351562 0.421875 10.40625 0.421875 C 7.457031 0.421875 5.21875 -0.300781 3.6875 -1.75 C 2.15625 -3.207031 1.390625 -5.351562 1.390625 -8.1875 L 1.390625 -23.078125 L 6.65625 -23.078125 L 6.65625 -9.734375 C 6.65625 -7.867188 6.945312 -6.570312 7.53125 -5.84375 C 8.125 -5.113281 9.082031 -4.75 10.40625 -4.75 C 11.726562 -4.75 12.679688 -5.113281 13.265625 -5.84375 C 13.859375 -6.570312 14.15625 -7.867188 14.15625 -9.734375 L 14.15625 -23.078125 Z M 19.40625 -23.078125 "/></g></g></g><g fill="#f28f69" fill-opacity="1"><g transform="translate(444.500595, 400.474778)"><g><path d="M 6.9375 -23.078125 L 6.9375 0 L 1.671875 0 L 1.671875 -23.078125 Z M 6.9375 -23.078125 "/></g></g></g><g fill="#f28f69" fill-opacity="1"><g transform="translate(453.114286, 400.474778)"><g><path d="M 21.0625 -23.078125 L 9.625 -4.609375 L 20.3125 -4.609375 L 20.3125 0 L 0.453125 0 L 11.859375 -18.453125 L 2.0625 -18.453125 L 2.0625 -23.078125 Z M 21.0625 -23.078125 "/></g></g></g><g fill="#f28f69" fill-opacity="1"><g transform="translate(474.620525, 400.474778)"><g/></g></g><g fill="#f28f69" fill-opacity="1"><g transform="translate(482.255389, 400.474778)"><g><path d="M 1.671875 -23.078125 L 10.09375 -23.078125 C 12.445312 -23.078125 14.347656 -22.46875 15.796875 -21.25 C 17.253906 -20.039062 17.984375 -18.28125 17.984375 -15.96875 C 17.984375 -13.65625 17.242188 -11.84375 15.765625 -10.53125 C 14.296875 -9.21875 12.40625 -8.5625 10.09375 -8.5625 L 6.9375 -8.5625 L 6.9375 0 L 1.671875 0 Z M 6.9375 -12.75 L 8.421875 -12.75 C 9.597656 -12.75 10.5625 -12.988281 11.3125 -13.46875 C 12.070312 -13.945312 12.453125 -14.722656 12.453125 -15.796875 C 12.453125 -16.898438 12.070312 -17.6875 11.3125 -18.15625 C 10.5625 -18.632812 9.597656 -18.875 8.421875 -18.875 L 6.9375 -18.875 Z M 6.9375 -12.75 "/></g></g></g><g fill="#f28f69" fill-opacity="1"><g transform="translate(500.88109, 400.474778)"><g><path d="M 6.9375 -23.078125 L 6.9375 -4.609375 L 14.875 -4.609375 L 14.875 0 L 1.671875 0 L 1.671875 -23.078125 Z M 6.9375 -23.078125 "/></g></g></g><g fill="#f28f69" fill-opacity="1"><g transform="translate(516.682164, 400.474778)"><g><path d="M 13.390625 -23.078125 L 22.703125 0 L 17.0625 0 L 15.359375 -4.609375 L 6.578125 -4.609375 L 4.859375 0 L -0.78125 0 L 8.53125 -23.078125 Z M 13.5625 -9.234375 L 10.984375 -15.9375 L 10.9375 -15.9375 L 8.359375 -9.234375 Z M 13.5625 -9.234375 "/></g></g></g><g fill="#f28f69" fill-opacity="1"><g transform="translate(538.607912, 400.474778)"><g><path d="M 0.21875 -18.453125 L 0.21875 -23.078125 L 16.453125 -23.078125 L 16.453125 -18.453125 L 10.96875 -18.453125 L 10.96875 0 L 5.703125 0 L 5.703125 -18.453125 Z M 0.21875 -18.453125 "/></g></g></g><g fill="#f28f69" fill-opacity="1"><g transform="translate(555.275976, 400.474778)"><g><path d="M 15.015625 -23.078125 L 15.015625 -18.453125 L 6.9375 -18.453125 L 6.9375 -13.875 L 14.40625 -13.875 L 14.40625 -9.25 L 6.9375 -9.25 L 6.9375 0 L 1.671875 0 L 1.671875 -23.078125 Z M 15.015625 -23.078125 "/></g></g></g><g fill="#f28f69" fill-opacity="1"><g transform="translate(571.132994, 400.474778)"><g><path d="M 0.640625 -11.546875 C 0.640625 -14.890625 1.773438 -17.71875 4.046875 -20.03125 C 6.328125 -22.34375 9.070312 -23.5 12.28125 -23.5 C 15.5 -23.5 18.238281 -22.34375 20.5 -20.03125 C 22.757812 -17.726562 23.890625 -14.898438 23.890625 -11.546875 C 23.890625 -8.171875 22.78125 -5.332031 20.5625 -3.03125 C 18.34375 -0.726562 15.582031 0.421875 12.28125 0.421875 C 8.90625 0.421875 6.117188 -0.71875 3.921875 -3 C 1.734375 -5.289062 0.640625 -8.140625 0.640625 -11.546875 Z M 6.328125 -11.546875 C 6.328125 -10.335938 6.507812 -9.234375 6.875 -8.234375 C 7.25 -7.234375 7.898438 -6.390625 8.828125 -5.703125 C 9.765625 -5.015625 10.914062 -4.671875 12.28125 -4.671875 C 14.238281 -4.671875 15.710938 -5.34375 16.703125 -6.6875 C 17.703125 -8.03125 18.203125 -9.648438 18.203125 -11.546875 C 18.203125 -13.429688 17.691406 -15.050781 16.671875 -16.40625 C 15.660156 -17.757812 14.195312 -18.4375 12.28125 -18.4375 C 10.375 -18.4375 8.90625 -17.757812 7.875 -16.40625 C 6.84375 -15.050781 6.328125 -13.429688 6.328125 -11.546875 Z M 6.328125 -11.546875 "/></g></g></g><g fill="#f28f69" fill-opacity="1"><g transform="translate(595.659613, 400.474778)"><g><path d="M 1.671875 -23.078125 L 9.921875 -23.078125 C 12.140625 -23.078125 13.945312 -22.484375 15.34375 -21.296875 C 16.75 -20.109375 17.453125 -18.414062 17.453125 -16.21875 C 17.453125 -14.519531 17.023438 -13.097656 16.171875 -11.953125 C 15.328125 -10.804688 14.175781 -10 12.71875 -9.53125 L 20.671875 0 L 13.984375 0 L 6.9375 -9.125 L 6.9375 0 L 1.671875 0 Z M 6.9375 -12.84375 L 7.546875 -12.84375 C 8.035156 -12.84375 8.445312 -12.847656 8.78125 -12.859375 C 9.113281 -12.878906 9.492188 -12.945312 9.921875 -13.0625 C 10.359375 -13.175781 10.707031 -13.332031 10.96875 -13.53125 C 11.226562 -13.738281 11.453125 -14.035156 11.640625 -14.421875 C 11.828125 -14.816406 11.921875 -15.296875 11.921875 -15.859375 C 11.921875 -16.421875 11.828125 -16.894531 11.640625 -17.28125 C 11.453125 -17.675781 11.226562 -17.972656 10.96875 -18.171875 C 10.707031 -18.378906 10.359375 -18.539062 9.921875 -18.65625 C 9.492188 -18.769531 9.113281 -18.832031 8.78125 -18.84375 C 8.445312 -18.863281 8.035156 -18.875 7.546875 -18.875 L 6.9375 -18.875 Z M 6.9375 -12.84375 "/></g></g></g><g fill="#f28f69" fill-opacity="1"><g transform="translate(615.683634, 400.474778)"><g><path d="M 20.75 0 L 19.65625 -13.671875 L 19.515625 -13.671875 L 14.796875 -0.140625 L 11.65625 -0.140625 L 6.9375 -13.671875 L 6.796875 -13.671875 L 5.703125 0 L 0.453125 0 L 2.515625 -23.078125 L 8.109375 -23.078125 L 13.234375 -9.765625 L 18.34375 -23.078125 L 23.9375 -23.078125 L 26.015625 0 Z M 20.75 0 "/></g></g></g><g fill="#9f3f73" fill-opacity="1"><g transform="translate(267.148004, 213.098535)"><g><path d="M 37.476562 0.417969 C 45.347656 8.1875 51.542969 13.332031 54.164062 13.332031 C 61.410156 13.332031 68.335938 10.917969 71.382812 7.453125 L 70.855469 7.03125 C 69.492188 8.609375 63.089844 9.65625 54.691406 9.65625 C 50.386719 9.65625 45.136719 5.984375 39.574219 0.523438 C 60.570312 0.210938 71.382812 -17.949219 71.382812 -39.050781 C 71.382812 -60.464844 60.359375 -78.730469 39.050781 -78.730469 C 17.636719 -78.730469 6.613281 -60.464844 6.613281 -39.050781 C 6.613281 -18.265625 17.109375 -0.417969 37.476562 0.417969 Z M 39.050781 -77.363281 C 56.265625 -77.363281 65.1875 -59.835938 65.1875 -39.15625 C 65.1875 -18.582031 56.265625 -1.050781 39.050781 -1.050781 C 21.835938 -1.050781 12.910156 -18.582031 12.910156 -39.15625 C 12.910156 -59.835938 21.835938 -77.363281 39.050781 -77.363281 Z M 39.050781 -77.363281 "/></g></g></g><g fill="#9f3f73" fill-opacity="1"><g transform="translate(343.668364, 213.098535)"><g><path d="M 6.824219 -78.308594 L 6.613281 -78.203125 L 6.296875 -78.203125 L 6.296875 -77.15625 L 6.402344 -77.15625 C 6.613281 -77.15625 6.71875 -74.425781 6.71875 -70.332031 L 6.71875 -24.5625 C 6.71875 -9.449219 13.226562 0.523438 30.023438 0.523438 C 46.1875 0.523438 52.488281 -8.082031 52.488281 -20.996094 L 52.488281 -69.28125 C 52.488281 -74.003906 52.589844 -77.15625 52.800781 -77.15625 L 52.90625 -77.15625 C 52.800781 -77.15625 52.800781 -77.363281 52.90625 -77.679688 C 52.800781 -77.890625 52.800781 -78.101562 52.90625 -78.203125 L 52.589844 -78.203125 L 52.589844 -78.308594 L 50.597656 -78.308594 L 50.597656 -77.261719 C 50.808594 -77.261719 50.910156 -75.160156 50.910156 -71.90625 L 50.808594 -21.625 C 50.808594 -9.65625 45.242188 -1.574219 30.96875 -1.574219 C 17.636719 -1.574219 12.492188 -10.390625 12.492188 -23.515625 L 12.492188 -74.636719 C 12.492188 -76.316406 12.597656 -77.261719 12.703125 -77.261719 L 12.808594 -77.261719 L 12.808594 -78.308594 Z M 6.824219 -78.308594 "/></g></g></g><g fill="#9f3f73" fill-opacity="1"><g transform="translate(401.294807, 213.098535)"><g><path d="M 4.304688 0 L 10.601562 0 L 10.601562 -1.050781 C 10.390625 -1.050781 10.289062 -3.777344 10.289062 -7.871094 L 10.289062 -70.332031 C 10.289062 -74.425781 10.390625 -77.15625 10.601562 -77.15625 L 10.601562 -78.203125 L 4.304688 -78.203125 L 4.304688 -77.15625 C 4.515625 -77.15625 4.617188 -74.425781 4.617188 -70.332031 L 4.617188 -7.871094 C 4.617188 -3.777344 4.515625 -1.050781 4.304688 -1.050781 Z M 4.304688 0 "/></g></g></g><g fill="#9f3f73" fill-opacity="1"><g transform="translate(416.095041, 213.098535)"><g><path d="M 49.757812 -1.996094 C 48.496094 -1.679688 43.773438 -1.46875 38.105469 -1.46875 L 12.597656 -1.46875 L 52.488281 -78.203125 L 12.492188 -78.203125 L 12.386719 -77.46875 C 12.28125 -77.050781 12.070312 -76.628906 11.96875 -76.210938 L 12.808594 -76.210938 L 13.332031 -76.316406 C 15.117188 -76.523438 19.523438 -76.734375 24.5625 -76.734375 L 45.242188 -76.734375 L 5.5625 0 L 51.015625 0 L 51.121094 -0.734375 C 51.226562 -1.15625 51.332031 -1.679688 51.4375 -2.097656 L 50.070312 -2.097656 Z M 49.757812 -1.996094 "/></g></g></g><g fill="#9f3f73" fill-opacity="1"><g transform="translate(472.776789, 213.098535)"><g><path d="M 5.984375 -1.050781 L 5.878906 -1.050781 C 5.667969 -1.050781 5.667969 -4.304688 5.773438 -9.238281 L 7.871094 -70.226562 L 32.542969 0.628906 L 34.011719 0.628906 L 58.574219 -72.640625 L 60.777344 -4.304688 C 60.777344 -2.203125 60.777344 -0.945312 60.675781 -0.945312 L 60.570312 -0.945312 L 60.570312 0.105469 L 66.867188 0.105469 L 66.867188 -0.945312 C 66.761719 -0.945312 66.65625 -1.996094 66.554688 -3.777344 L 63.824219 -73.796875 C 63.824219 -75.789062 63.824219 -76.945312 63.929688 -76.945312 L 63.929688 -77.996094 L 58.46875 -77.996094 L 35.0625 -7.347656 L 10.707031 -78.203125 L 6.402344 -78.203125 L 6.402344 -78.101562 L 6.089844 -78.101562 L 6.089844 -77.050781 L 6.195312 -77.050781 C 6.296875 -77.050781 6.296875 -75.894531 6.296875 -74.003906 L 3.882812 -3.042969 C 3.777344 -1.785156 3.675781 -1.050781 3.570312 -1.050781 L 3.464844 -1.050781 L 3.464844 0 L 5.984375 0 Z M 5.984375 -1.050781 "/></g></g></g><g fill="#9f3f73" fill-opacity="1"><g transform="translate(539.640258, 213.098535)"><g><path d="M 41.253906 -7.871094 C 42.410156 -3.777344 43.25 -1.050781 43.144531 -1.050781 L 43.25 -1.050781 L 43.355469 -0.734375 L 43.355469 0 L 49.96875 0 L 49.96875 -1.050781 L 49.863281 -1.050781 C 49.652344 -1.050781 48.601562 -3.777344 47.34375 -7.871094 L 25.089844 -79.988281 L 23.722656 -79.988281 L 3.359375 -7.871094 C 2.203125 -3.777344 1.363281 -1.050781 1.15625 -1.050781 L 1.15625 0 L 3.570312 0 L 3.570312 -1.050781 L 3.464844 -1.050781 C 3.464844 -1.050781 4.304688 -4.410156 5.667969 -9.449219 L 15.429688 -44.929688 L 30.441406 -44.929688 Z M 22.777344 -71.382812 L 30.023438 -46.398438 L 15.851562 -46.398438 Z M 22.777344 -71.382812 "/></g></g></g><g fill="#9f3f73" fill-opacity="1"><g transform="translate(591.073695, 213.098535)"><g><path d="M 59.414062 -76.105469 C 59.308594 -76.523438 59.308594 -77.050781 59.203125 -77.46875 L 59.203125 -78.203125 L 2.835938 -78.203125 L 2.730469 -77.46875 C 2.730469 -77.050781 2.625 -76.523438 2.625 -76.105469 L 3.464844 -76.105469 L 3.882812 -76.210938 C 5.5625 -76.523438 10.078125 -76.734375 15.117188 -76.734375 L 28.132812 -76.734375 L 28.132812 -7.871094 C 28.132812 -3.777344 28.027344 -1.050781 27.921875 -1.050781 L 27.816406 -1.050781 L 27.816406 0 L 34.117188 0 C 34.222656 0 34.222656 -0.210938 34.117188 -0.523438 C 34.222656 -0.839844 34.222656 -1.050781 34.117188 -1.050781 C 34.011719 -1.050781 33.800781 -3.777344 33.800781 -7.871094 L 33.800781 -76.734375 L 46.921875 -76.734375 C 51.960938 -76.734375 56.371094 -76.523438 58.050781 -76.210938 L 58.574219 -76.105469 Z M 59.414062 -76.105469 "/></g></g></g><g fill="#9f3f73" fill-opacity="1"><g transform="translate(653.003753, 213.098535)"><g><path d="M 32.015625 -43.355469 L 32.015625 -45.453125 L 30.96875 -45.453125 C 30.230469 -45.242188 26.136719 -45.136719 20.785156 -45.136719 L 10.289062 -45.136719 L 10.289062 -76.628906 L 24.355469 -76.628906 C 30.652344 -76.628906 35.796875 -76.421875 37.371094 -76.105469 L 38.523438 -76.105469 L 38.523438 -78.101562 L 4.199219 -78.101562 L 4.199219 -77.050781 L 4.304688 -77.050781 C 4.410156 -77.050781 4.515625 -74.320312 4.515625 -70.226562 L 4.515625 -7.769531 C 4.515625 -3.675781 4.410156 -0.945312 4.304688 -0.945312 L 4.199219 -0.945312 L 4.199219 0.105469 L 39.050781 0.105469 L 39.261719 -0.734375 C 39.261719 -1.15625 39.363281 -1.574219 39.46875 -1.996094 L 38.734375 -1.996094 L 38.210938 -1.890625 C 37.160156 -1.679688 34.640625 -1.46875 31.386719 -1.363281 L 10.289062 -1.363281 L 10.289062 -43.773438 L 20.785156 -43.773438 C 26.136719 -43.773438 30.230469 -43.667969 30.96875 -43.457031 L 31.28125 -43.355469 Z M 32.015625 -43.355469 "/></g></g></g><path stroke-linecap="butt" transform="matrix(0.904664, 0, 0, 0.904664, 173.221905, 124.784177)" fill="none" stroke-linejoin="miter" d="M 140.62625 93.462063 C 149.331139 102.050369 156.175013 107.737045 159.076643 107.737045 C 167.082033 107.737045 174.74199 105.068582 178.105635 101.238603 L 177.527037 100.77227 C 176.020089 102.516702 168.93873 103.6739 159.65956 103.6739 C 154.901232 103.6739 149.097973 99.615072 142.949281 93.578646 C 166.153684 93.233214 178.105635 73.159289 178.105635 49.833985 C 178.105635 26.163248 165.924835 5.97274 142.366364 5.97274 C 118.695627 5.97274 106.514827 26.163248 106.514827 49.833985 C 106.514827 72.809539 118.117029 92.533714 140.62625 93.462063 Z M 142.366364 7.484006 C 161.399674 7.484006 171.261761 26.85843 171.261761 49.717402 C 171.261761 72.459789 161.399674 91.838532 142.366364 91.838532 C 123.337372 91.838532 113.475284 72.459789 113.475284 49.717402 C 113.475284 26.85843 123.337372 7.484006 142.366364 7.484006 Z M 191.331368 6.439074 L 191.098201 6.555657 L 190.748451 6.555657 L 190.748451 7.712855 L 190.865035 7.712855 C 191.098201 7.712855 191.214785 10.731068 191.214785 15.256229 L 191.214785 65.849082 C 191.214785 82.555043 198.408409 93.578646 216.975386 93.578646 C 234.842862 93.578646 241.80332 84.066309 241.80332 69.791326 L 241.80332 16.417744 C 241.80332 11.193083 241.919903 7.712855 242.15307 7.712855 L 242.269653 7.712855 C 242.15307 7.712855 242.15307 7.484006 242.269653 7.134256 C 242.15307 6.901089 242.15307 6.667923 242.269653 6.555657 L 241.919903 6.555657 L 241.919903 6.439074 L 239.717773 6.439074 L 239.717773 7.596271 C 239.946622 7.596271 240.063205 9.919303 240.063205 13.516115 L 239.946622 69.096144 C 239.946622 82.326194 233.79793 91.259933 218.016 91.259933 C 203.28332 91.259933 197.596643 81.514429 197.596643 67.00628 L 197.596643 10.497901 C 197.596643 8.641204 197.713227 7.596271 197.82981 7.596271 L 197.942075 7.596271 L 197.942075 6.439074 Z M 252.244006 93.000047 L 259.204463 93.000047 L 259.204463 91.838532 C 258.975614 91.838532 258.859031 88.824636 258.859031 84.299475 L 258.859031 15.256229 C 258.859031 10.731068 258.975614 7.712855 259.204463 7.712855 L 259.204463 6.555657 L 252.244006 6.555657 L 252.244006 7.712855 C 252.477173 7.712855 252.593756 10.731068 252.593756 15.256229 L 252.593756 84.299475 C 252.593756 88.824636 252.477173 91.838532 252.244006 91.838532 Z M 318.847638 90.793599 C 317.452956 91.143349 312.232613 91.376516 305.967338 91.376516 L 277.77144 91.376516 L 321.865851 6.555657 L 277.654857 6.555657 L 277.538273 7.367423 C 277.42169 7.829438 277.188523 8.295772 277.076258 8.757787 L 278.004607 8.757787 L 278.583206 8.641204 C 280.556487 8.412355 285.42708 8.179188 290.997173 8.179188 L 313.856144 8.179188 L 269.994899 93.000047 L 320.238002 93.000047 L 320.354586 92.188282 C 320.471169 91.721948 320.587752 91.143349 320.704336 90.681334 L 319.197388 90.681334 Z M 333.113985 91.838532 L 333.001719 91.838532 C 332.768553 91.838532 332.768553 88.24172 332.885136 82.78821 L 335.203849 15.372812 L 362.471398 93.695229 L 364.094929 93.695229 L 391.250212 12.704349 L 393.685508 88.24172 C 393.685508 90.564751 393.685508 91.955115 393.568925 91.955115 L 393.452342 91.955115 L 393.452342 93.11663 L 400.417117 93.11663 L 400.417117 91.955115 C 400.300534 91.955115 400.18395 90.793599 400.067367 88.824636 L 397.049154 11.42625 C 397.049154 9.22412 397.049154 7.946021 397.165737 7.946021 L 397.165737 6.784506 L 391.133629 6.784506 L 365.256444 84.878074 L 338.338646 6.555657 L 333.580318 6.555657 L 333.580318 6.667923 L 333.230568 6.667923 L 333.230568 7.829438 L 333.347152 7.829438 C 333.463735 7.829438 333.463735 9.107537 333.463735 11.193083 L 330.795272 89.636402 C 330.678688 91.026766 330.562105 91.838532 330.445522 91.838532 L 330.328938 91.838532 L 330.328938 93.000047 L 333.113985 93.000047 Z M 446.014158 84.299475 C 447.287939 88.824636 448.216288 91.838532 448.099704 91.838532 L 448.216288 91.838532 L 448.332871 92.188282 L 448.332871 93.000047 L 455.643078 93.000047 L 455.643078 91.838532 L 455.526495 91.838532 C 455.297646 91.838532 454.136131 88.824636 452.741449 84.299475 L 428.142363 4.582376 L 426.635416 4.582376 L 404.126195 84.299475 C 402.848096 88.824636 401.919747 91.838532 401.68658 91.838532 L 401.68658 93.000047 L 404.355043 93.000047 L 404.355043 91.838532 L 404.23846 91.838532 C 404.23846 91.838532 405.166809 88.125136 406.678074 82.555043 L 417.46851 43.335543 L 434.062206 43.335543 Z M 425.590483 14.094713 L 433.595873 41.712012 L 417.930526 41.712012 Z M 522.941893 8.87437 C 522.825309 8.412355 522.825309 7.829438 522.708726 7.367423 L 522.708726 6.555657 L 460.397088 6.555657 L 460.280505 7.367423 C 460.280505 7.829438 460.163921 8.412355 460.163921 8.87437 L 461.09227 8.87437 L 461.558604 8.757787 C 463.415301 8.412355 468.402478 8.179188 473.972571 8.179188 L 488.364137 8.179188 L 488.364137 84.299475 C 488.364137 88.824636 488.247553 91.838532 488.13097 91.838532 L 488.014387 91.838532 L 488.014387 93.000047 L 494.974844 93.000047 C 495.091427 93.000047 495.091427 92.76688 494.974844 92.421448 C 495.091427 92.071698 495.091427 91.838532 494.974844 91.838532 C 494.858261 91.838532 494.629412 88.824636 494.629412 84.299475 L 494.629412 8.179188 L 509.133243 8.179188 C 514.703336 8.179188 519.573929 8.412355 521.430627 8.757787 L 522.013544 8.87437 Z M 561.112143 45.075657 L 561.112143 42.756944 L 559.950627 42.756944 C 559.138862 42.990111 554.613701 43.106694 548.698176 43.106694 L 537.091656 43.106694 L 537.091656 8.295772 L 552.64042 8.295772 C 559.605195 8.295772 565.287554 8.52462 567.031986 8.87437 L 568.305767 8.87437 L 568.305767 6.667923 L 530.364366 6.667923 L 530.364366 7.829438 L 530.480949 7.829438 C 530.593214 7.829438 530.709798 10.847651 530.709798 15.372812 L 530.709798 84.411741 C 530.709798 88.936902 530.593214 91.955115 530.480949 91.955115 L 530.364366 91.955115 L 530.364366 93.11663 L 568.888684 93.11663 L 569.117532 92.188282 C 569.117532 91.721948 569.234116 91.259933 569.350699 90.793599 L 568.538934 90.793599 L 567.960335 90.910183 C 566.798819 91.143349 564.013773 91.376516 560.416961 91.493099 L 537.091656 91.493099 L 537.091656 44.613642 L 548.698176 44.613642 C 554.613701 44.613642 559.138862 44.730225 559.950627 44.963392 L 560.300377 45.075657 Z M 561.112143 45.075657 " stroke="#f28f69" stroke-width="4.4559" stroke-opacity="1" stroke-miterlimit="4"/></svg>