<svg xmlns="http://www.w3.org/2000/svg" xmlns:xlink="http://www.w3.org/1999/xlink" width="1600" zoomAndPan="magnify" viewBox="0 0 1200 599.999999" height="800" preserveAspectRatio="xMidYMid meet" version="1.0"><defs><filter x="0%" y="0%" width="100%" height="100%" id="id1"><feColorMatrix values="0 0 0 0 1 0 0 0 0 1 0 0 0 0 1 0 0 0 1 0" color-interpolation-filters="sRGB"/></filter><g/><mask id="id2"><g filter="url(#id1)"><rect x="-120" width="1440" fill="#000000" y="-60" height="719.999999" fill-opacity="0.298"/></g></mask><clipPath id="id3"><path d="M 0.601562 0.292969 L 222.035156 0.292969 L 222.035156 135.359375 L 0.601562 135.359375 Z M 0.601562 0.292969 " clip-rule="nonzero"/></clipPath><clipPath id="id4"><rect x="0" width="223" y="0" height="136"/></clipPath><mask id="id5"><g filter="url(#id1)"><rect x="-120" width="1440" fill="#000000" y="-60" height="719.999999" fill-opacity="0.298"/></g></mask><clipPath id="id6"><path d="M 0.667969 0.640625 L 222 0.640625 L 222 135.699219 L 0.667969 135.699219 Z M 0.667969 0.640625 " clip-rule="nonzero"/></clipPath><clipPath id="id7"><rect x="0" width="222" y="0" height="136"/></clipPath><mask id="id8"><g filter="url(#id1)"><rect x="-120" width="1440" fill="#000000" y="-60" height="719.999999" fill-opacity="0.8"/></g></mask><clipPath id="id9"><path d="M 21 0.28125 L 35 0.28125 L 35 15 L 21 15 Z M 21 0.28125 " clip-rule="nonzero"/></clipPath><clipPath id="id10"><path d="M 84 54 L 94.679688 54 L 94.679688 65 L 84 65 Z M 84 54 " clip-rule="nonzero"/></clipPath><clipPath id="id11"><path d="M 39 80 L 52 80 L 52 96.28125 L 39 96.28125 Z M 39 80 " clip-rule="nonzero"/></clipPath><clipPath id="id12"><rect x="0" width="95" y="0" height="97"/></clipPath><mask id="id13"><g filter="url(#id1)"><rect x="-120" width="1440" fill="#000000" y="-60" height="719.999999" fill-opacity="0.8"/></g></mask><clipPath id="id14"><path d="M 0.691406 60 L 11 60 L 11 71 L 0.691406 71 Z M 0.691406 60 " clip-rule="nonzero"/></clipPath><clipPath id="id15"><path d="M 84 55 L 94.441406 55 L 94.441406 66 L 84 66 Z M 84 55 " clip-rule="nonzero"/></clipPath><clipPath id="id16"><rect x="0" width="95" y="0" height="98"/></clipPath><mask id="id17"><g filter="url(#id1)"><rect x="-120" width="1440" fill="#000000" y="-60" height="719.999999" fill-opacity="0.2"/></g></mask><clipPath id="id18"><path d="M 0.207031 0.261719 L 323.457031 0.261719 L 323.457031 423 L 0.207031 423 Z M 0.207031 0.261719 " clip-rule="nonzero"/></clipPath><clipPath id="id19"><rect x="0" width="324" y="0" height="423"/></clipPath></defs><rect x="-120" width="1440" fill="#ffffff" y="-60" height="719.999999" fill-opacity="1"/><rect x="-120" width="1440" fill="#ffffff" y="-60" height="719.999999" fill-opacity="1"/><rect x="-120" width="1440" fill="#ffffff" y="-60" height="719.999999" fill-opacity="1"/><rect x="-120" width="1440" fill="#ffffff" y="-60" height="719.999999" fill-opacity="1"/><g mask="url(#id2)"><g transform="matrix(1, 0, 0, 1, 909, -0.000000000000034778)"><g clip-path="url(#id4)"><g clip-path="url(#id3)"><path fill="#f28f69" d="M 19.492188 0.402344 L 222.03125 0.402344 L 222.03125 133.296875 C 222.03125 133.296875 177.933594 142.703125 175.199219 120.359375 C 172.46875 98.011719 168.957031 88.996094 148.273438 87.820312 C 127.589844 86.644531 94.421875 81.15625 89.34375 46.660156 C 84.265625 12.164062 44.554688 26.027344 36.664062 32.542969 C 7.953125 56.257812 -17.96875 0.402344 19.492188 0.402344 Z M 19.492188 0.402344 " fill-opacity="1" fill-rule="nonzero"/></g></g></g></g><g mask="url(#id5)"><g transform="matrix(1, 0, 0, 1, 66, 464)"><g clip-path="url(#id7)"><g clip-path="url(#id6)"><path fill="#f28f69" d="M 203.207031 135.59375 L 0.671875 135.59375 L 0.671875 2.695312 C 0.671875 2.695312 44.769531 -6.710938 47.5 15.636719 C 50.234375 37.980469 53.746094 46.996094 74.425781 48.171875 C 95.109375 49.347656 128.28125 54.835938 133.359375 89.332031 C 138.433594 123.832031 178.148438 109.964844 186.039062 103.449219 C 214.746094 79.734375 240.671875 135.59375 203.207031 135.59375 Z M 203.207031 135.59375 " fill-opacity="1" fill-rule="nonzero"/></g></g></g></g><g mask="url(#id8)"><g transform="matrix(1, 0, 0, 1, 963, 23)"><g clip-path="url(#id12)"><g clip-path="url(#id9)"><path fill="#f28f69" d="M 31.628906 1.121094 C 30.480469 0.507812 29.085938 0.199219 27.8125 0.617188 C 26.539062 1.03125 25.640625 1.789062 24.851562 2.910156 L 22.289062 6.527344 C 21.578125 7.53125 21.476562 9.234375 21.789062 10.371094 C 22.101562 11.507812 22.996094 12.78125 24.066406 13.351562 C 25.214844 13.964844 26.609375 14.273438 27.882812 13.855469 C 29.160156 13.441406 30.058594 12.675781 30.84375 11.5625 L 33.40625 7.949219 C 34.113281 6.949219 34.21875 5.238281 33.90625 4.101562 C 33.59375 2.960938 32.695312 1.6875 31.628906 1.121094 Z M 31.628906 1.121094 " fill-opacity="1" fill-rule="nonzero"/></g><path fill="#f28f69" d="M 45.535156 11.96875 C 48.125 11.96875 50.609375 9.671875 50.488281 6.976562 C 50.367188 4.285156 48.3125 1.988281 45.535156 1.988281 C 42.945312 1.988281 40.460938 4.28125 40.582031 6.976562 C 40.699219 9.675781 42.757812 11.96875 45.535156 11.96875 Z M 45.535156 11.96875 " fill-opacity="1" fill-rule="nonzero"/><path fill="#f28f69" d="M 72.195312 11.96875 C 74.785156 11.96875 77.265625 9.671875 77.148438 6.976562 C 77.027344 4.285156 74.96875 1.988281 72.195312 1.988281 C 69.601562 1.988281 67.121094 4.28125 67.238281 6.976562 C 67.359375 9.675781 69.417969 11.96875 72.195312 11.96875 Z M 72.195312 11.96875 " fill-opacity="1" fill-rule="nonzero"/><path fill="#f28f69" d="M 17.851562 32.113281 C 20.441406 32.113281 22.921875 29.820312 22.804688 27.121094 C 22.683594 24.425781 20.625 22.132812 17.851562 22.132812 C 15.257812 22.132812 12.777344 24.429688 12.894531 27.121094 C 13.015625 29.816406 15.074219 32.113281 17.851562 32.113281 Z M 17.851562 32.113281 " fill-opacity="1" fill-rule="nonzero"/><path fill="#f28f69" d="M 47.414062 25.058594 C 47.292969 22.351562 45.234375 20.066406 42.457031 20.066406 C 39.867188 20.066406 37.386719 22.359375 37.503906 25.058594 C 37.625 27.753906 39.683594 30.046875 42.457031 30.046875 C 45.050781 30.046875 47.53125 27.75 47.414062 25.058594 Z M 47.414062 25.058594 " fill-opacity="1" fill-rule="nonzero"/><path fill="#f28f69" d="M 65.355469 25.058594 C 65.234375 22.351562 63.179688 20.066406 60.402344 20.066406 C 57.808594 20.066406 55.328125 22.359375 55.449219 25.058594 C 55.570312 27.753906 57.625 30.046875 60.402344 30.046875 C 62.984375 30.046875 65.480469 27.75 65.355469 25.058594 Z M 65.355469 25.058594 " fill-opacity="1" fill-rule="nonzero"/><path fill="#f28f69" d="M 84.835938 25.058594 C 84.71875 22.351562 82.660156 20.066406 79.882812 20.066406 C 77.292969 20.066406 74.808594 22.359375 74.929688 25.058594 C 75.050781 27.753906 77.105469 30.046875 79.882812 30.046875 C 82.472656 30.046875 84.953125 27.75 84.835938 25.058594 Z M 84.835938 25.058594 " fill-opacity="1" fill-rule="nonzero"/><path fill="#f28f69" d="M 7.085938 47.609375 C 9.675781 47.609375 12.15625 45.3125 12.039062 42.621094 C 11.917969 39.925781 9.859375 37.628906 7.085938 37.628906 C 4.492188 37.628906 2.011719 39.921875 2.128906 42.621094 C 2.25 45.316406 4.308594 47.609375 7.085938 47.609375 Z M 7.085938 47.609375 " fill-opacity="1" fill-rule="nonzero"/><path fill="#f28f69" d="M 28.105469 36.59375 C 25.511719 36.59375 23.03125 38.890625 23.148438 41.585938 C 23.269531 44.28125 25.324219 46.578125 28.105469 46.578125 C 30.695312 46.578125 33.175781 44.28125 33.054688 41.585938 C 32.9375 38.890625 30.882812 36.59375 28.105469 36.59375 Z M 28.105469 36.59375 " fill-opacity="1" fill-rule="nonzero"/><path fill="#f28f69" d="M 43.144531 45.71875 C 43.265625 48.421875 45.320312 50.710938 48.097656 50.710938 C 50.6875 50.710938 53.171875 48.414062 53.050781 45.71875 C 52.933594 43.023438 50.875 40.726562 48.097656 40.726562 C 45.511719 40.726562 43.023438 43.023438 43.144531 45.71875 Z M 43.144531 45.71875 " fill-opacity="1" fill-rule="nonzero"/><path fill="#f28f69" d="M 68.605469 37.628906 C 66.011719 37.628906 63.53125 39.921875 63.652344 42.621094 C 63.773438 45.316406 65.828125 47.609375 68.605469 47.609375 C 71.195312 47.609375 73.679688 45.3125 73.558594 42.621094 C 73.4375 39.925781 71.382812 37.628906 68.605469 37.628906 Z M 68.605469 37.628906 " fill-opacity="1" fill-rule="nonzero"/><path fill="#f28f69" d="M 11.011719 64.832031 C 10.890625 62.125 8.835938 59.839844 6.058594 59.839844 C 3.46875 59.839844 0.984375 62.136719 1.105469 64.832031 C 1.226562 67.523438 3.28125 69.820312 6.058594 69.820312 C 8.648438 69.820312 11.132812 67.527344 11.011719 64.832031 Z M 11.011719 64.832031 " fill-opacity="1" fill-rule="nonzero"/><path fill="#f28f69" d="M 26.054688 59.839844 C 23.460938 59.839844 20.980469 62.136719 21.097656 64.832031 C 21.21875 67.523438 23.277344 69.820312 26.054688 69.820312 C 28.644531 69.820312 31.125 67.527344 31.007812 64.832031 C 30.886719 62.132812 28.828125 59.839844 26.054688 59.839844 Z M 26.054688 59.839844 " fill-opacity="1" fill-rule="nonzero"/><path fill="#f28f69" d="M 50.660156 62.421875 C 48.070312 62.421875 45.589844 64.71875 45.707031 67.414062 C 45.828125 70.105469 47.886719 72.40625 50.660156 72.40625 C 53.25 72.40625 55.734375 70.109375 55.613281 67.414062 C 55.496094 64.714844 53.4375 62.421875 50.660156 62.421875 Z M 50.660156 62.421875 " fill-opacity="1" fill-rule="nonzero"/><path fill="#f28f69" d="M 64.503906 63.105469 C 67.09375 63.105469 69.578125 60.8125 69.457031 58.113281 C 69.335938 55.417969 67.28125 53.125 64.503906 53.125 C 61.914062 53.125 59.429688 55.421875 59.550781 58.113281 C 59.667969 60.808594 61.726562 63.105469 64.503906 63.105469 Z M 64.503906 63.105469 " fill-opacity="1" fill-rule="nonzero"/><g clip-path="url(#id10)"><path fill="#f28f69" d="M 94.578125 59.664062 C 94.457031 56.960938 92.402344 54.675781 89.625 54.675781 C 87.035156 54.675781 84.550781 56.96875 84.671875 59.664062 C 84.789062 62.363281 86.847656 64.65625 89.625 64.65625 C 92.214844 64.65625 94.699219 62.359375 94.578125 59.664062 Z M 94.578125 59.664062 " fill-opacity="1" fill-rule="nonzero"/></g><path fill="#f28f69" d="M 92.015625 41.070312 C 91.894531 38.367188 89.839844 36.078125 87.0625 36.078125 C 84.46875 36.078125 81.988281 38.375 82.109375 41.070312 C 82.226562 43.765625 84.285156 46.058594 87.0625 46.058594 C 89.652344 46.058594 92.136719 43.765625 92.015625 41.070312 Z M 92.015625 41.070312 " fill-opacity="1" fill-rule="nonzero"/><path fill="#f28f69" d="M 19.609375 76.90625 C 18.238281 76.589844 17.066406 76.820312 15.792969 77.40625 C 13.917969 78.292969 12.265625 79.492188 10.832031 81 C 9.027344 82.875 8.835938 86.214844 10.832031 88.058594 C 12.785156 89.863281 15.910156 90.0625 17.839844 88.058594 C 18.128906 87.753906 18.433594 87.46875 18.746094 87.195312 C 19.394531 86.742188 20.078125 86.351562 20.792969 86.019531 C 21.855469 85.53125 22.773438 84.125 23.070312 83.035156 C 23.402344 81.84375 23.25 80.25 22.570312 79.191406 C 21.890625 78.128906 20.882812 77.191406 19.609375 76.90625 Z M 19.609375 76.90625 " fill-opacity="1" fill-rule="nonzero"/><g clip-path="url(#id11)"><path fill="#f28f69" d="M 49.980469 81.859375 C 47.886719 79.921875 45.070312 80.03125 42.972656 81.859375 C 39.671875 84.738281 39.09375 89.988281 41.242188 93.703125 C 42.546875 95.960938 45.773438 96.953125 48.019531 95.492188 C 50.183594 94.082031 51.117188 91.300781 49.945312 88.953125 L 49.980469 88.925781 C 51.945312 87.203125 51.855469 83.59375 49.980469 81.859375 Z M 49.980469 81.859375 " fill-opacity="1" fill-rule="nonzero"/></g><path fill="#f28f69" d="M 65.527344 75.851562 C 62.9375 75.851562 60.453125 78.148438 60.574219 80.84375 C 60.695312 83.539062 62.75 85.832031 65.527344 85.832031 C 68.121094 85.832031 70.601562 83.539062 70.480469 80.84375 C 70.363281 78.148438 68.3125 75.851562 65.527344 75.851562 Z M 65.527344 75.851562 " fill-opacity="1" fill-rule="nonzero"/></g></g></g><g mask="url(#id13)"><g transform="matrix(1, 0, 0, 1, 151, 453)"><g clip-path="url(#id16)"><path fill="#f28f69" d="M 31.347656 1.738281 C 30.199219 1.125 28.804688 0.820312 27.53125 1.234375 C 26.253906 1.652344 25.355469 2.410156 24.570312 3.527344 L 22.007812 7.144531 C 21.296875 8.152344 21.195312 9.851562 21.507812 10.988281 C 21.820312 12.125 22.710938 13.402344 23.785156 13.972656 C 24.933594 14.585938 26.328125 14.890625 27.601562 14.476562 C 28.875 14.058594 29.773438 13.292969 30.5625 12.183594 L 33.125 8.566406 C 33.832031 7.570312 33.9375 5.859375 33.625 4.71875 C 33.3125 3.582031 32.414062 2.308594 31.347656 1.738281 Z M 31.347656 1.738281 " fill-opacity="1" fill-rule="nonzero"/><path fill="#f28f69" d="M 45.253906 12.589844 C 47.84375 12.589844 50.324219 10.292969 50.207031 7.597656 C 50.085938 4.902344 48.027344 2.605469 45.253906 2.605469 C 42.660156 2.605469 40.179688 4.902344 40.296875 7.597656 C 40.417969 10.292969 42.476562 12.589844 45.253906 12.589844 Z M 45.253906 12.589844 " fill-opacity="1" fill-rule="nonzero"/><path fill="#f28f69" d="M 71.914062 12.589844 C 74.503906 12.589844 76.984375 10.292969 76.863281 7.597656 C 76.746094 4.902344 74.6875 2.605469 71.914062 2.605469 C 69.320312 2.605469 66.835938 4.902344 66.957031 7.597656 C 67.078125 10.292969 69.132812 12.589844 71.914062 12.589844 Z M 71.914062 12.589844 " fill-opacity="1" fill-rule="nonzero"/><path fill="#f28f69" d="M 17.566406 32.734375 C 20.160156 32.734375 22.640625 30.4375 22.519531 27.742188 C 22.402344 25.046875 20.34375 22.753906 17.566406 22.753906 C 14.976562 22.753906 12.492188 25.046875 12.613281 27.742188 C 12.734375 30.4375 14.789062 32.734375 17.566406 32.734375 Z M 17.566406 32.734375 " fill-opacity="1" fill-rule="nonzero"/><path fill="#f28f69" d="M 47.128906 25.675781 C 47.011719 22.972656 44.953125 20.683594 42.175781 20.683594 C 39.585938 20.683594 37.101562 22.980469 37.222656 25.675781 C 37.34375 28.371094 39.398438 30.667969 42.175781 30.667969 C 44.765625 30.667969 47.25 28.371094 47.128906 25.675781 Z M 47.128906 25.675781 " fill-opacity="1" fill-rule="nonzero"/><path fill="#f28f69" d="M 65.074219 25.675781 C 64.953125 22.972656 62.898438 20.683594 60.121094 20.683594 C 57.527344 20.683594 55.046875 22.980469 55.167969 25.675781 C 55.285156 28.371094 57.34375 30.667969 60.121094 30.667969 C 62.703125 30.667969 65.199219 28.371094 65.074219 25.675781 Z M 65.074219 25.675781 " fill-opacity="1" fill-rule="nonzero"/><path fill="#f28f69" d="M 84.554688 25.675781 C 84.433594 22.972656 82.378906 20.683594 79.601562 20.683594 C 77.007812 20.683594 74.527344 22.980469 74.648438 25.675781 C 74.769531 28.371094 76.824219 30.667969 79.601562 30.667969 C 82.191406 30.667969 84.671875 28.371094 84.554688 25.675781 Z M 84.554688 25.675781 " fill-opacity="1" fill-rule="nonzero"/><path fill="#f28f69" d="M 6.800781 48.230469 C 9.394531 48.230469 11.875 45.933594 11.753906 43.238281 C 11.636719 40.542969 9.578125 38.246094 6.800781 38.246094 C 4.210938 38.246094 1.726562 40.542969 1.847656 43.238281 C 1.96875 45.933594 4.023438 48.230469 6.800781 48.230469 Z M 6.800781 48.230469 " fill-opacity="1" fill-rule="nonzero"/><path fill="#f28f69" d="M 27.820312 37.214844 C 25.230469 37.214844 22.746094 39.511719 22.867188 42.207031 C 22.988281 44.902344 25.042969 47.195312 27.820312 47.195312 C 30.414062 47.195312 32.894531 44.902344 32.773438 42.207031 C 32.65625 39.511719 30.597656 37.214844 27.820312 37.214844 Z M 27.820312 37.214844 " fill-opacity="1" fill-rule="nonzero"/><path fill="#f28f69" d="M 42.859375 46.335938 C 42.984375 49.042969 45.039062 51.328125 47.816406 51.328125 C 50.40625 51.328125 52.890625 49.035156 52.769531 46.335938 C 52.648438 43.640625 50.59375 41.347656 47.816406 41.347656 C 45.230469 41.347656 42.742188 43.644531 42.859375 46.335938 Z M 42.859375 46.335938 " fill-opacity="1" fill-rule="nonzero"/><path fill="#f28f69" d="M 68.324219 38.246094 C 65.730469 38.246094 63.25 40.542969 63.371094 43.238281 C 63.488281 45.933594 65.546875 48.230469 68.324219 48.230469 C 70.914062 48.230469 73.398438 45.933594 73.277344 43.238281 C 73.15625 40.542969 71.101562 38.246094 68.324219 38.246094 Z M 68.324219 38.246094 " fill-opacity="1" fill-rule="nonzero"/><g clip-path="url(#id14)"><path fill="#f28f69" d="M 10.730469 65.449219 C 10.609375 62.746094 8.554688 60.460938 5.777344 60.460938 C 3.1875 60.460938 0.703125 62.753906 0.824219 65.449219 C 0.941406 68.144531 3 70.441406 5.777344 70.441406 C 8.367188 70.441406 10.851562 68.144531 10.730469 65.449219 Z M 10.730469 65.449219 " fill-opacity="1" fill-rule="nonzero"/></g><path fill="#f28f69" d="M 25.769531 60.460938 C 23.179688 60.460938 20.695312 62.753906 20.816406 65.449219 C 20.9375 68.144531 22.992188 70.441406 25.769531 70.441406 C 28.363281 70.441406 30.84375 68.144531 30.722656 65.449219 C 30.605469 62.753906 28.546875 60.460938 25.769531 60.460938 Z M 25.769531 60.460938 " fill-opacity="1" fill-rule="nonzero"/><path fill="#f28f69" d="M 50.378906 63.042969 C 47.789062 63.042969 45.304688 65.335938 45.425781 68.03125 C 45.546875 70.726562 47.601562 73.023438 50.378906 73.023438 C 52.96875 73.023438 55.453125 70.726562 55.332031 68.03125 C 55.214844 65.335938 53.15625 63.042969 50.378906 63.042969 Z M 50.378906 63.042969 " fill-opacity="1" fill-rule="nonzero"/><path fill="#f28f69" d="M 64.222656 63.726562 C 66.8125 63.726562 69.292969 61.429688 69.175781 58.734375 C 69.054688 56.039062 67 53.746094 64.222656 53.746094 C 61.628906 53.746094 59.148438 56.039062 59.265625 58.734375 C 59.386719 61.429688 61.445312 63.726562 64.222656 63.726562 Z M 64.222656 63.726562 " fill-opacity="1" fill-rule="nonzero"/><g clip-path="url(#id15)"><path fill="#f28f69" d="M 94.296875 60.285156 C 94.175781 57.582031 92.121094 55.292969 89.339844 55.292969 C 86.753906 55.292969 84.269531 57.589844 84.390625 60.285156 C 84.507812 62.980469 86.566406 65.273438 89.339844 65.273438 C 91.933594 65.273438 94.414062 62.980469 94.296875 60.285156 Z M 94.296875 60.285156 " fill-opacity="1" fill-rule="nonzero"/></g><path fill="#f28f69" d="M 91.734375 41.691406 C 91.613281 38.984375 89.554688 36.699219 86.777344 36.699219 C 84.1875 36.699219 81.707031 38.992188 81.824219 41.691406 C 81.945312 44.386719 84.003906 46.679688 86.777344 46.679688 C 89.371094 46.679688 91.851562 44.382812 91.734375 41.691406 Z M 91.734375 41.691406 " fill-opacity="1" fill-rule="nonzero"/><path fill="#f28f69" d="M 19.328125 77.523438 C 17.953125 77.207031 16.785156 77.441406 15.507812 78.027344 C 13.636719 78.914062 11.980469 80.109375 10.550781 81.617188 C 8.746094 83.496094 8.554688 86.832031 10.550781 88.675781 C 12.503906 90.480469 15.628906 90.679688 17.554688 88.675781 C 17.847656 88.371094 18.152344 88.085938 18.464844 87.8125 C 19.113281 87.359375 19.792969 86.96875 20.511719 86.640625 C 21.574219 86.152344 22.488281 84.746094 22.789062 83.65625 C 23.121094 82.460938 22.96875 80.871094 22.289062 79.808594 C 21.609375 78.75 20.597656 77.8125 19.328125 77.523438 Z M 19.328125 77.523438 " fill-opacity="1" fill-rule="nonzero"/><path fill="#f28f69" d="M 49.699219 82.480469 C 47.601562 80.542969 44.789062 80.652344 42.691406 82.480469 C 39.390625 85.355469 38.8125 90.609375 40.960938 94.320312 C 42.265625 96.578125 45.492188 97.570312 47.738281 96.113281 C 49.902344 94.703125 50.835938 91.921875 49.664062 89.574219 L 49.699219 89.546875 C 51.664062 87.824219 51.570312 84.210938 49.699219 82.480469 Z M 49.699219 82.480469 " fill-opacity="1" fill-rule="nonzero"/><path fill="#f28f69" d="M 65.246094 76.472656 C 62.65625 76.472656 60.171875 78.765625 60.292969 81.464844 C 60.414062 84.160156 62.46875 86.453125 65.246094 86.453125 C 67.839844 86.453125 70.320312 84.15625 70.199219 81.464844 C 70.078125 78.769531 68.03125 76.472656 65.246094 76.472656 Z M 65.246094 76.472656 " fill-opacity="1" fill-rule="nonzero"/></g></g></g><g mask="url(#id17)"><g transform="matrix(1, 0, 0, 1, 707, 177)"><g clip-path="url(#id19)"><g clip-path="url(#id18)"><path fill="#cf7666" d="M 10.9375 352.050781 C 17.90625 331.523438 28.1875 310.234375 42.234375 287.234375 C 50.554688 273.609375 53.152344 268.53125 55.59375 261.125 C 58.1875 253.269531 62.066406 246.402344 65.089844 244.328125 C 66.757812 243.183594 68.71875 242.789062 74.496094 242.433594 C 78.8125 242.171875 82.535156 242.269531 83.597656 242.671875 C 84.589844 243.050781 86.234375 243.15625 87.253906 242.910156 C 91.527344 241.871094 101.285156 237.503906 107.1875 233.980469 C 110.671875 231.902344 115.210938 229.457031 117.277344 228.542969 C 120.921875 226.929688 121.054688 226.773438 121.875 223.105469 L 122.722656 219.328125 L 118.902344 215.417969 C 109.855469 206.152344 104.765625 195.117188 102.921875 180.753906 C 102.65625 178.703125 101.785156 176.382812 100.773438 175.046875 C 99.835938 173.8125 98.601562 171.675781 98.027344 170.304688 C 96.664062 167.042969 94.320312 157.714844 94.308594 155.507812 C 94.304688 154.554688 93.609375 152.472656 92.765625 150.882812 C 91.53125 148.546875 91.367188 147.609375 91.921875 146.039062 C 92.492188 144.425781 93.019531 144.085938 95.007812 144.050781 C 97.320312 144.007812 97.402344 143.917969 97.183594 141.628906 C 97.058594 140.320312 96.925781 134.425781 96.890625 128.53125 C 96.835938 119.519531 97.128906 116.222656 98.726562 107.867188 C 99.773438 102.398438 100.367188 97.660156 100.046875 97.339844 C 98.988281 96.285156 67.171875 87.027344 64.601562 87.027344 C 63.644531 87.027344 63.164062 87.472656 63.164062 88.359375 C 63.5 90.097656 64.191406 93.902344 65.207031 99.132812 L 66.234375 109.160156 C 66.800781 114.679688 68.03125 122.648438 68.972656 126.878906 C 71.371094 137.628906 73.550781 149.410156 73.519531 151.402344 C 73.503906 152.328125 74.082031 155.886719 74.804688 159.308594 C 75.527344 162.734375 76.785156 169.269531 77.605469 173.835938 C 81.675781 196.546875 81.550781 195.625 80.570312 195.625 C 79.957031 195.625 78.984375 191.539062 77.6875 183.53125 C 76.773438 177.863281 75.496094 173.492188 74.757812 173.492188 C 74.46875 173.492188 74.242188 174.191406 74.25 175.046875 C 74.277344 178.097656 76.988281 196.734375 78 200.8125 C 79.085938 205.207031 79.332031 209.480469 78.640625 212.054688 C 78.070312 214.1875 77.472656 214.007812 76.347656 211.363281 L 75.390625 209.113281 L 74.984375 211.882812 C 74.648438 214.171875 74.289062 214.679688 72.886719 214.835938 C 71.957031 214.941406 70.6875 215.484375 70.066406 216.046875 C 68.21875 217.71875 61.875 217.398438 59.890625 215.535156 C 58.992188 214.6875 57.570312 213.988281 56.730469 213.976562 C 55.289062 213.957031 55.21875 213.695312 55.398438 209.113281 C 55.503906 206.453125 55.890625 202.09375 56.257812 199.429688 C 57.027344 193.84375 56.636719 166.355469 55.570312 150.664062 C 55.167969 144.769531 54.648438 127.417969 54.417969 112.113281 C 54.125 92.828125 53.757812 84.09375 53.21875 83.664062 C 51.855469 82.578125 45 80.957031 39.726562 80.476562 C 33.585938 79.914062 31.339844 79.148438 31.339844 77.609375 C 31.339844 75.441406 39.078125 67.648438 47.574219 61.261719 C 52.246094 57.746094 56.558594 54.015625 57.160156 52.972656 C 57.761719 51.925781 59.433594 50.53125 60.882812 49.871094 C 62.328125 49.214844 67.871094 45.054688 73.195312 40.625 C 78.523438 36.199219 85.527344 30.679688 88.761719 28.359375 C 91.996094 26.042969 98.917969 21.066406 104.144531 17.304688 C 109.367188 13.542969 116.21875 8.839844 119.363281 6.851562 C 122.511719 4.867188 125.933594 2.585938 126.96875 1.78125 L 128.855469 0.316406 L 138.382812 3.292969 C 179.441406 16.109375 208.679688 25.628906 232.664062 34 C 257.75 42.753906 265.554688 45.710938 274.820312 49.984375 C 279.980469 52.367188 285.832031 54.851562 287.824219 55.503906 C 289.8125 56.160156 292.140625 57.257812 292.992188 57.945312 C 294.351562 59.046875 294.417969 59.34375 293.5625 60.375 C 291.902344 62.371094 283.011719 66.488281 279.191406 67.027344 C 275.019531 67.617188 266.816406 72.394531 235.519531 92.464844 L 216.578125 104.609375 L 217.011719 109.25 C 217.25 111.800781 218.085938 116.605469 218.875 119.925781 C 220.316406 125.988281 220.433594 133.691406 219.15625 138.492188 C 218.65625 140.378906 218.726562 140.472656 220.28125 139.976562 C 224.503906 138.640625 226.058594 138.757812 227.738281 140.546875 C 229.953125 142.902344 230.601562 150.40625 228.933594 154.394531 C 228.316406 155.875 227.625 158.832031 227.398438 160.964844 C 226.460938 169.835938 218.207031 181.757812 212.230469 182.878906 C 210.9375 183.121094 209.609375 183.675781 209.277344 184.113281 C 208.945312 184.546875 207.675781 188.105469 206.453125 192.019531 L 204.230469 199.136719 L 208.015625 206.894531 C 210.09375 211.160156 212.328125 216.59375 212.980469 218.972656 C 214.292969 223.753906 214.179688 223.632812 226.089844 232.910156 C 233.050781 238.328125 234.957031 240.242188 241.3125 248.191406 C 243.214844 250.570312 246.792969 254.160156 249.265625 256.167969 C 251.742188 258.179688 256.410156 262.203125 259.644531 265.113281 C 264.605469 269.582031 265.796875 270.339844 267.253906 269.96875 C 273.617188 268.351562 273.933594 268.445312 278.992188 273.539062 C 281.585938 276.148438 285.457031 279.796875 287.59375 281.640625 C 295.136719 288.15625 300.394531 300.269531 313.480469 341.296875 C 316.523438 350.839844 319.363281 360.957031 319.789062 363.777344 C 323.019531 382.949219 323.015625 402.054688 323.015625 421.644531 L 323.457031 423.203125 L 0.207031 423.203125 C 0.207031 393.058594 5.015625 369.417969 10.933594 352.046875 Z M 75.039062 202.722656 C 74.753906 197.882812 73.539062 196.074219 73.554688 200.507812 C 73.5625 203.875 74.148438 206.695312 74.835938 206.699219 C 75.078125 206.699219 75.167969 204.910156 75.039062 202.722656 Z M 82.25 211.484375 C 81.273438 208.617188 80 199.277344 80.429688 198.121094 C 81.117188 196.257812 81.457031 197.117188 82.914062 204.453125 C 83.878906 209.3125 83.992188 211.050781 83.386719 211.660156 C 82.777344 212.269531 82.503906 212.226562 82.25 211.484375 Z M 82.25 211.484375 " fill-opacity="1" fill-rule="nonzero"/></g></g></g></g><path fill="#000000" d="M 858.902344 745.175781 C 858.523438 745.175781 858.148438 744.996094 857.90625 744.667969 C 852.335938 736.820312 842 737.804688 841.890625 737.816406 C 841.222656 737.886719 840.628906 737.402344 840.558594 736.734375 C 840.484375 736.070312 840.96875 735.472656 841.636719 735.402344 C 842.121094 735.351562 853.5 734.273438 859.882812 743.273438 C 860.269531 743.820312 860.136719 744.570312 859.59375 744.957031 C 859.386719 745.105469 859.144531 745.175781 858.902344 745.175781 Z M 851.027344 752.355469 C 851.574219 751.96875 851.707031 751.21875 851.316406 750.671875 C 844.9375 741.683594 833.558594 742.75 833.070312 742.800781 C 832.40625 742.871094 831.917969 743.46875 831.992188 744.132812 C 832.066406 744.800781 832.648438 745.261719 833.328125 745.214844 C 833.4375 745.203125 843.773438 744.21875 849.339844 752.066406 C 849.582031 752.40625 849.945312 752.574219 850.335938 752.574219 C 850.578125 752.585938 850.820312 752.515625 851.027344 752.355469 Z M 843.46875 760.203125 C 844.015625 759.816406 844.148438 759.0625 843.761719 758.519531 C 837.378906 749.53125 826 750.597656 825.511719 750.648438 C 824.847656 750.71875 824.359375 751.3125 824.433594 751.980469 C 824.507812 752.648438 825.089844 753.144531 825.769531 753.058594 C 825.878906 753.058594 836.214844 752.066406 841.78125 759.914062 C 842.023438 760.253906 842.390625 760.421875 842.777344 760.421875 C 843.019531 760.421875 843.261719 760.351562 843.46875 760.203125 Z M 973.183594 738.480469 C 978.726562 730.671875 989.101562 731.617188 989.195312 731.628906 C 989.851562 731.679688 990.457031 731.21875 990.53125 730.550781 C 990.605469 729.882812 990.117188 729.289062 989.453125 729.214844 C 988.964844 729.167969 977.585938 728.089844 971.207031 737.085938 C 970.816406 737.632812 970.949219 738.386719 971.496094 738.773438 C 971.703125 738.929688 971.957031 738.992188 972.199219 738.992188 C 972.578125 738.992188 972.941406 738.820312 973.183594 738.480469 Z M 981.746094 745.890625 C 987.292969 738.070312 997.664062 739.027344 997.761719 739.039062 C 998.417969 739.089844 999.023438 738.628906 999.097656 737.960938 C 999.167969 737.292969 998.683594 736.699219 998.015625 736.625 C 997.53125 736.578125 986.152344 735.5 979.769531 744.484375 C 979.382812 745.03125 979.515625 745.785156 980.0625 746.171875 C 980.269531 746.328125 980.523438 746.390625 980.765625 746.390625 C 981.140625 746.402344 981.503906 746.230469 981.746094 745.890625 Z M 989.304688 753.738281 C 994.851562 745.917969 1005.222656 746.875 1005.320312 746.886719 C 1005.976562 746.949219 1006.582031 746.476562 1006.65625 745.808594 C 1006.726562 745.140625 1006.242188 744.546875 1005.574219 744.472656 C 1005.089844 744.425781 993.710938 743.34375 987.328125 752.34375 C 986.941406 752.890625 987.074219 753.644531 987.621094 754.03125 C 987.839844 754.1875 988.082031 754.25 988.324219 754.25 C 988.699219 754.25 989.0625 754.078125 989.304688 753.738281 Z M 938.183594 513.195312 C 939.757812 519.453125 969.75 639.429688 973.523438 715.207031 C 973.605469 716.871094 972.808594 718.445312 971.410156 719.355469 C 967.105469 722.179688 956.804688 727.203125 942.972656 722.691406 C 941.496094 722.207031 940.367188 721.015625 939.929688 719.523438 C 935.210938 703.382812 906.664062 606.753906 888.332031 567.507812 C 887.90625 566.597656 886.535156 566.902344 886.550781 567.90625 C 886.839844 589.882812 888.257812 691.339844 890.007812 721.367188 C 890.128906 723.347656 889 725.175781 887.179688 725.964844 C 881.367188 728.476562 868.144531 732.671875 855.78125 725.675781 C 854.570312 724.996094 853.730469 723.808594 853.476562 722.4375 C 849.742188 702.667969 820.320312 545.96875 821.957031 518.992188 C 823.707031 490.273438 926.425781 480.386719 938.023438 512.675781 C 938.097656 512.855469 938.144531 513.027344 938.183594 513.195312 Z M 938.183594 513.195312 " fill-opacity="1" fill-rule="nonzero"/><path fill="#f7b49a" d="M 837.898438 459.03125 C 837.898438 459.03125 849.121094 529.21875 826.351562 517.453125 C 803.578125 505.6875 807.207031 501.964844 809.679688 499.902344 C 812.15625 497.839844 817.941406 502.972656 817.941406 502.972656 C 813.40625 489.519531 814.847656 472.382812 814.847656 472.382812 Z M 837.898438 459.03125 " fill-opacity="1" fill-rule="nonzero"/><path fill="#f28f69" d="M 989.234375 407.835938 C 988.613281 377.492188 961.355469 385.226562 961.355469 385.226562 C 936.570312 322.050781 874.78125 330.808594 874.78125 330.808594 C 828.160156 333.050781 799.042969 366.648438 799.042969 366.648438 C 799.042969 366.648438 746.074219 423.3125 753.195312 443.90625 C 760.316406 464.5 805.847656 471.316406 805.847656 471.316406 L 810.6875 478.097656 C 812.433594 480.535156 815.773438 481.1875 818.308594 479.574219 C 819.582031 478.761719 820.890625 477.851562 822.203125 476.90625 C 822.117188 477.851562 822.03125 478.789062 821.957031 479.683594 C 820.40625 498.265625 823.816406 502.59375 823.816406 502.59375 L 821.957031 519.003906 C 878.640625 542.851562 937.804688 514.042969 938.109375 512.941406 C 938.425781 511.835938 932.007812 495.476562 932.007812 495.476562 C 939.214844 490.210938 936.253906 458.011719 936.253906 458.011719 C 976.835938 482.460938 989.851562 438.179688 989.234375 407.835938 Z M 805.859375 424.863281 L 823.085938 418.460938 L 828.171875 429.414062 C 828.171875 429.414062 827.382812 434.761719 826.351562 442.351562 C 816.742188 430.539062 805.859375 424.863281 805.859375 424.863281 Z M 805.859375 424.863281 " fill-opacity="1" fill-rule="nonzero"/><path fill="#ede6dd" d="M 899.75 348.382812 C 899.542969 357.320312 893.0625 374.433594 887.351562 387.871094 C 882.777344 398.617188 878.699219 407.011719 878.699219 407.011719 C 876.734375 405.167969 872.160156 398.425781 867.125 390.480469 C 858.378906 376.691406 848.210938 359.273438 847.789062 357.5625 C 847.75 357.371094 847.738281 357.1875 847.75 356.992188 C 850.359375 324.839844 900.535156 315.234375 899.75 348.382812 Z M 899.75 348.382812 " fill-opacity="1" fill-rule="nonzero"/><path fill="#638481" d="M 887.351562 387.871094 C 882.777344 398.617188 878.699219 407.011719 878.699219 407.011719 C 876.734375 405.167969 872.160156 398.425781 867.125 390.480469 L 870.898438 370.324219 C 870.960938 369.945312 870.910156 369.570312 870.742188 369.230469 L 864.515625 357.101562 C 864.179688 356.433594 864.324219 355.597656 864.882812 355.089844 L 873.542969 346.988281 C 874.136719 346.441406 875.023438 346.378906 875.679688 346.828125 L 885.894531 353.886719 C 886.535156 354.335938 886.792969 355.160156 886.511719 355.902344 L 881.769531 368.296875 C 881.625 368.648438 881.613281 369.035156 881.71875 369.402344 C 882.4375 371.753906 885.289062 381.082031 887.351562 387.871094 Z M 887.351562 387.871094 " fill-opacity="1" fill-rule="nonzero"/><path fill="#ede6dd" d="M 872.34375 325.507812 C 901.421875 314.703125 902.613281 347.59375 902.164062 359.117188 C 902.089844 361.09375 900.160156 362.488281 898.207031 361.964844 L 875.898438 356.046875 C 875.195312 355.828125 874.429688 355.867188 873.738281 356.132812 L 851.984375 364.597656 C 850.007812 365.363281 847.800781 364.113281 847.546875 362.050781 C 842.886719 324.609375 866.484375 325.253906 870.886719 325.691406 C 871.394531 325.761719 871.882812 325.675781 872.34375 325.507812 Z M 872.34375 325.507812 " fill-opacity="1" fill-rule="nonzero"/><path fill="#f7b49a" d="M 888.574219 316.789062 C 888.503906 316.847656 888.441406 316.894531 888.367188 316.945312 C 888.648438 317.515625 888.890625 318.132812 889.058594 318.765625 L 891.765625 328.757812 C 892.734375 332.324219 891.644531 336.132812 888.9375 338.65625 L 875.691406 351 L 860.9375 342.449219 C 857.566406 340.5 855.636719 336.75 856.011719 332.871094 L 857.09375 321.675781 C 857.128906 321.324219 857.191406 320.972656 857.261719 320.621094 C 857.226562 320.609375 857.191406 320.59375 857.140625 320.570312 C 856.667969 320.378906 856.207031 320.183594 855.746094 319.976562 C 846.320312 315.828125 839.804688 305.664062 838.675781 294.179688 C 836.855469 275.839844 850.445312 258.945312 866.75 257.332031 C 883.054688 255.71875 899.273438 269.183594 901.082031 287.519531 C 901.992188 296.691406 900.015625 306.136719 893.996094 311.898438 C 892.140625 313.707031 890.359375 315.34375 888.574219 316.789062 Z M 888.574219 316.789062 " fill-opacity="1" fill-rule="nonzero"/><path fill="#000000" d="M 843.128906 279.226562 L 840.652344 296.667969 C 840.652344 296.667969 823.097656 291.402344 832.390625 266.734375 C 841.683594 242.0625 852.835938 248.261719 852.835938 248.261719 C 858.003906 236.800781 867.285156 238.449219 893.210938 248.46875 C 919.136719 258.484375 903.65625 292.058594 898.171875 295.039062 C 892.6875 298.023438 890.941406 269.109375 890.941406 269.109375 C 866.058594 268.796875 861.824219 260.863281 861.824219 260.863281 C 862.550781 265.714844 873.289062 275.625 866.882812 274.894531 C 860.476562 274.167969 854.179688 260.644531 854.179688 260.644531 C 851.828125 269.316406 843.128906 279.226562 843.128906 279.226562 Z M 873.335938 323.761719 C 867.769531 324.308594 862.164062 322.65625 857.152344 320.582031 C 859.882812 326.125 865.597656 329.933594 872.195312 329.933594 C 880.214844 329.933594 886.925781 324.292969 888.574219 316.789062 C 883.867188 320.644531 879.246094 323.167969 873.335938 323.761719 Z M 882.207031 280.257812 C 879.816406 280.257812 877.875 282.195312 877.875 284.585938 C 877.875 286.976562 879.816406 288.917969 882.207031 288.917969 C 884.597656 288.917969 886.535156 286.976562 886.535156 284.585938 C 886.550781 282.195312 884.609375 280.257812 882.207031 280.257812 Z M 855.128906 285.363281 C 852.738281 285.363281 850.796875 287.304688 850.796875 289.691406 C 850.796875 292.082031 852.738281 294.023438 855.128906 294.023438 C 857.515625 294.023438 859.457031 292.082031 859.457031 289.691406 C 859.457031 287.304688 857.53125 285.363281 855.128906 285.363281 Z M 855.128906 285.363281 " fill-opacity="1" fill-rule="nonzero"/><path fill="#f7b49a" d="M 909.890625 296.496094 C 908.011719 302.667969 902.515625 306.476562 897.601562 304.984375 C 892.6875 303.496094 890.226562 297.285156 892.105469 291.097656 C 893.984375 284.925781 899.480469 281.117188 904.394531 282.609375 C 909.308594 284.101562 911.769531 290.324219 909.890625 296.496094 Z M 833.789062 310.117188 C 837.367188 315.488281 843.722656 317.550781 847.992188 314.714844 C 852.265625 311.875 852.835938 305.214844 849.269531 299.832031 C 845.6875 294.457031 839.332031 292.398438 835.0625 295.234375 C 830.789062 298.074219 830.21875 304.742188 833.789062 310.117188 Z M 833.789062 310.117188 " fill-opacity="1" fill-rule="nonzero"/><path fill="#000000" d="M 886.550781 273.101562 C 886.292969 273.101562 886.039062 273.027344 885.832031 272.859375 C 879.195312 267.945312 872.511719 271.574219 872.234375 271.730469 C 871.652344 272.058594 870.910156 271.851562 870.582031 271.269531 C 870.257812 270.6875 870.460938 269.945312 871.042969 269.621094 C 871.382812 269.425781 879.355469 265.046875 887.277344 270.917969 C 887.8125 271.316406 887.933594 272.082031 887.53125 272.617188 C 887.289062 272.941406 886.914062 273.101562 886.550781 273.101562 Z M 846.867188 281.457031 C 849.21875 274.566406 856.800781 274.542969 857.152344 274.53125 C 857.785156 274.542969 858.367188 274 858.378906 273.332031 C 858.390625 272.664062 857.84375 272.105469 857.175781 272.105469 C 857.105469 272.105469 847.496094 272.09375 844.574219 280.667969 C 844.355469 281.300781 844.695312 281.992188 845.324219 282.210938 C 845.457031 282.257812 845.589844 282.269531 845.714844 282.269531 C 846.210938 282.269531 846.683594 281.953125 846.867188 281.457031 Z M 898.597656 289.824219 C 899.820312 287.703125 901.121094 286.613281 902.453125 286.574219 C 904.539062 286.539062 906.214844 289.074219 906.226562 289.097656 C 906.410156 289.378906 906.785156 289.460938 907.0625 289.28125 C 907.34375 289.097656 907.429688 288.722656 907.246094 288.441406 C 907.160156 288.308594 905.171875 285.324219 902.429688 285.363281 C 900.632812 285.398438 898.996094 286.707031 897.539062 289.21875 C 897.371094 289.511719 897.480469 289.886719 897.757812 290.042969 C 897.855469 290.09375 897.953125 290.128906 898.0625 290.128906 C 898.28125 290.128906 898.488281 290.019531 898.597656 289.824219 Z M 833.558594 303.082031 C 833.472656 303.082031 833.386719 303.070312 833.300781 303.035156 C 833 302.898438 832.867188 302.535156 833 302.234375 C 833.058594 302.101562 834.5625 298.824219 837.316406 298.484375 C 839.089844 298.265625 840.910156 299.308594 842.714844 301.589844 C 842.921875 301.855469 842.875 302.234375 842.621094 302.4375 C 842.351562 302.644531 841.976562 302.597656 841.769531 302.34375 C 840.253906 300.414062 838.808594 299.527344 837.476562 299.6875 C 835.402344 299.941406 834.113281 302.695312 834.101562 302.730469 C 834.003906 302.949219 833.789062 303.082031 833.558594 303.082031 Z M 866.675781 307.96875 C 864.808594 307.96875 862.792969 307.726562 860.636719 307.15625 C 860.308594 307.074219 860.113281 306.734375 860.210938 306.417969 C 860.296875 306.089844 860.636719 305.90625 860.949219 305.992188 C 873.226562 309.269531 880.824219 301.09375 880.894531 301.007812 C 881.113281 300.765625 881.503906 300.742188 881.757812 300.960938 C 882 301.191406 882.023438 301.566406 881.804688 301.820312 C 881.71875 301.894531 876.089844 307.96875 866.675781 307.96875 Z M 865.839844 298.207031 C 865.535156 298.207031 865.28125 297.988281 865.234375 297.683594 C 864.894531 295.199219 865.332031 293.476562 866.542969 292.566406 C 868.519531 291.074219 871.722656 292.445312 871.855469 292.507812 C 872.160156 292.640625 872.304688 293.003906 872.171875 293.304688 C 872.039062 293.609375 871.6875 293.753906 871.371094 293.621094 C 870.632812 293.292969 868.449219 292.652344 867.269531 293.535156 C 866.433594 294.167969 866.15625 295.515625 866.433594 297.527344 C 866.484375 297.855469 866.253906 298.171875 865.914062 298.207031 C 865.902344 298.195312 865.875 298.207031 865.839844 298.207031 Z M 865.839844 298.207031 " fill-opacity="1" fill-rule="nonzero"/><path fill="#ede6dd" d="M 984.976562 403.761719 C 982.074219 407.847656 974.625 407.558594 968.34375 403.09375 C 962.058594 398.628906 959.316406 391.703125 962.226562 387.617188 C 965.128906 383.53125 972.578125 383.820312 978.859375 388.285156 C 985.144531 392.734375 987.886719 399.660156 984.976562 403.761719 Z M 984.976562 403.761719 " fill-opacity="1" fill-rule="nonzero"/><path fill="#f7b49a" d="M 983.179688 379.417969 C 983.15625 379.878906 983.082031 380.351562 982.996094 380.800781 L 981.273438 397.613281 C 981.273438 397.613281 972.964844 404.523438 965.867188 392.761719 L 965.867188 386.988281 C 964.277344 386.027344 963.078125 384.863281 962.589844 383.820312 C 960.722656 379.84375 964.496094 378.109375 964.496094 378.109375 C 964.496094 378.109375 960.90625 377.890625 959.28125 374.347656 C 957.652344 370.808594 962.035156 369.011719 962.035156 369.011719 C 962.035156 369.011719 958.128906 368.417969 957.109375 365.507812 C 956.101562 362.597656 959.414062 360.21875 959.414062 360.21875 C 959.414062 360.21875 955.640625 361.976562 954.996094 356.691406 C 954.574219 353.171875 957.3125 349.691406 963.308594 348.804688 C 960.527344 341.128906 961.304688 332.433594 966.863281 332.152344 C 971.398438 331.921875 972.808594 343.046875 973.242188 349.402344 C 973.742188 349.511719 974.226562 349.605469 974.746094 349.742188 C 983.773438 352.019531 983.617188 371.472656 983.179688 379.417969 Z M 983.179688 379.417969 " fill-opacity="1" fill-rule="nonzero"/><path fill="#000000" d="M 817.640625 479.816406 C 817.820312 480.097656 817.738281 480.472656 817.457031 480.65625 C 817.359375 480.714844 817.238281 480.753906 817.128906 480.753906 C 816.925781 480.753906 816.730469 480.65625 816.621094 480.472656 L 810.820312 471.339844 C 810.640625 471.0625 810.726562 470.683594 811.003906 470.503906 C 811.28125 470.320312 811.660156 470.40625 811.839844 470.683594 Z M 876.917969 506.101562 C 846.332031 507.230469 826.726562 502.679688 824.25 502.074219 C 818.550781 490.007812 826.859375 442.921875 826.945312 442.449219 C 827.003906 442.121094 826.789062 441.808594 826.460938 441.746094 C 826.121094 441.6875 825.816406 441.90625 825.757812 442.230469 C 825.550781 443.382812 822.699219 459.539062 821.535156 475.257812 L 816.816406 466.984375 C 816.644531 466.695312 816.28125 466.597656 815.988281 466.753906 C 815.699219 466.914062 815.601562 467.289062 815.757812 467.582031 L 821.375 477.429688 C 820.710938 487.921875 820.878906 497.878906 823.207031 502.667969 L 821.363281 518.921875 C 821.328125 519.246094 821.570312 519.550781 821.898438 519.585938 C 821.921875 519.585938 821.945312 519.585938 821.972656 519.585938 C 822.273438 519.585938 822.542969 519.355469 822.578125 519.054688 L 824.359375 503.324219 C 827.695312 504.113281 843.25 507.472656 867.246094 507.472656 C 870.351562 507.472656 873.59375 507.410156 876.964844 507.289062 C 877.304688 507.277344 877.558594 506.996094 877.546875 506.660156 C 877.535156 506.355469 877.257812 506.078125 876.917969 506.101562 Z M 874.246094 414.289062 C 840.121094 369.121094 834.210938 342.464844 834.152344 342.195312 C 834.078125 341.867188 833.761719 341.664062 833.4375 341.722656 C 833.109375 341.796875 832.902344 342.113281 832.960938 342.4375 C 833.023438 342.707031 838.957031 369.535156 873.167969 414.859375 L 878.664062 528.453125 C 878.675781 528.78125 878.941406 529.035156 879.269531 529.035156 C 879.28125 529.035156 879.292969 529.035156 879.292969 529.035156 C 879.632812 529.023438 879.886719 528.730469 879.875 528.40625 L 874.367188 414.628906 C 874.355469 414.496094 874.320312 414.386719 874.246094 414.289062 Z M 806.1875 424.367188 C 805.847656 424.136719 797.753906 418.957031 786.398438 427.167969 C 786.132812 427.363281 786.074219 427.738281 786.265625 428.015625 C 786.386719 428.1875 786.570312 428.273438 786.765625 428.273438 C 786.886719 428.273438 787.007812 428.234375 787.117188 428.164062 C 797.769531 420.472656 805.21875 425.191406 805.53125 425.386719 C 805.8125 425.566406 806.1875 425.496094 806.371094 425.214844 C 806.550781 424.9375 806.464844 424.546875 806.1875 424.367188 Z M 849.800781 365.445312 C 849.863281 365.445312 849.933594 365.433594 849.996094 365.410156 L 875.933594 356.691406 L 898.0625 362.558594 C 898.390625 362.644531 898.71875 362.449219 898.800781 362.125 C 898.886719 361.796875 898.691406 361.46875 898.367188 361.382812 L 876.054688 355.464844 C 875.945312 355.441406 875.824219 355.441406 875.703125 355.476562 L 849.59375 364.257812 C 849.28125 364.367188 849.109375 364.707031 849.21875 365.023438 C 849.316406 365.289062 849.546875 365.445312 849.800781 365.445312 Z M 823.257812 420.28125 C 823.367188 420.496094 823.574219 420.617188 823.804688 420.617188 C 823.886719 420.617188 823.984375 420.59375 824.070312 420.558594 C 824.375 420.414062 824.496094 420.050781 824.347656 419.746094 L 815.394531 401.371094 C 815.25 401.066406 814.886719 400.945312 814.582031 401.09375 C 814.28125 401.238281 814.15625 401.601562 814.304688 401.90625 Z M 959.425781 360.839844 C 959.511719 360.839844 959.59375 360.824219 959.679688 360.789062 C 959.742188 360.765625 965.527344 358.195312 972.210938 359.527344 C 972.539062 359.601562 972.855469 359.382812 972.929688 359.054688 C 972.988281 358.726562 972.78125 358.414062 972.453125 358.339844 C 965.371094 356.933594 959.425781 359.578125 959.183594 359.6875 C 958.878906 359.820312 958.746094 360.183594 958.878906 360.484375 C 958.964844 360.703125 959.183594 360.839844 959.425781 360.839844 Z M 963.308594 349.339844 C 963.378906 349.339844 970.199219 349.085938 973.074219 349.972656 C 973.132812 349.996094 973.195312 349.996094 973.253906 349.996094 C 973.511719 349.996094 973.753906 349.824219 973.835938 349.570312 C 973.933594 349.253906 973.753906 348.914062 973.4375 348.804688 C 970.367188 347.859375 963.5625 348.101562 963.269531 348.113281 C 962.929688 348.128906 962.675781 348.40625 962.6875 348.746094 C 962.6875 349.085938 962.945312 349.363281 963.308594 349.339844 Z M 881.671875 368.25 C 881.40625 368.199219 875 367.070312 870.742188 369.207031 C 870.4375 369.351562 870.316406 369.714844 870.472656 370.019531 C 870.582031 370.238281 870.789062 370.359375 871.019531 370.359375 C 871.117188 370.359375 871.203125 370.335938 871.285156 370.296875 C 875.179688 368.34375 881.394531 369.4375 881.464844 369.449219 C 881.792969 369.511719 882.109375 369.292969 882.167969 368.964844 C 882.21875 368.625 882 368.308594 881.671875 368.25 Z M 961.804688 368.464844 C 961.5 368.601562 961.34375 368.953125 961.476562 369.253906 C 961.574219 369.484375 961.804688 369.632812 962.035156 369.632812 C 962.105469 369.632812 962.191406 369.617188 962.265625 369.582031 C 962.324219 369.558594 968.695312 366.949219 973.292969 369.023438 C 973.59375 369.15625 973.960938 369.023438 974.09375 368.722656 C 974.226562 368.417969 974.09375 368.054688 973.789062 367.921875 C 968.71875 365.628906 962.082031 368.34375 961.804688 368.464844 Z M 969.007812 403.761719 C 968.667969 403.710938 968.367188 403.929688 968.316406 404.257812 L 967.007812 412.480469 C 966.960938 412.808594 967.175781 413.125 967.515625 413.171875 C 967.554688 413.171875 967.578125 413.183594 967.613281 413.183594 C 967.90625 413.183594 968.160156 412.964844 968.207031 412.675781 L 969.519531 404.453125 C 969.566406 404.125 969.347656 403.808594 969.007812 403.761719 Z M 974.492188 406.40625 C 974.164062 406.378906 973.863281 406.609375 973.824219 406.949219 L 973.023438 415.003906 C 972.988281 415.332031 973.230469 415.632812 973.570312 415.671875 C 973.59375 415.671875 973.605469 415.671875 973.632812 415.671875 C 973.933594 415.671875 974.203125 415.441406 974.238281 415.125 L 975.039062 407.070312 C 975.074219 406.730469 974.832031 406.441406 974.492188 406.40625 Z M 976.824219 386.902344 C 976.75 386.914062 969.058594 388.417969 966.207031 386.488281 C 966.023438 386.367188 965.804688 386.355469 965.613281 386.441406 C 965.417969 386.527344 965.285156 386.71875 965.261719 386.925781 L 964.761719 391.351562 C 964.726562 391.679688 964.96875 391.984375 965.296875 392.019531 C 965.320312 392.019531 965.34375 392.019531 965.371094 392.019531 C 965.671875 392.019531 965.941406 391.789062 965.976562 391.488281 L 966.363281 387.945312 C 969.980469 389.472656 976.738281 388.152344 977.054688 388.089844 C 977.378906 388.03125 977.597656 387.703125 977.527344 387.375 C 977.476562 387.058594 977.160156 386.839844 976.824219 386.902344 Z M 980.621094 405.796875 C 980.28125 405.796875 980.011719 406.066406 980.011719 406.40625 L 980.011719 415.050781 C 980.011719 415.390625 980.28125 415.660156 980.621094 415.660156 C 980.960938 415.660156 981.226562 415.390625 981.226562 415.050781 L 981.226562 406.40625 C 981.226562 406.078125 980.960938 405.796875 980.621094 405.796875 Z M 985.570312 403.640625 C 985.507812 403.3125 985.179688 403.09375 984.867188 403.152344 C 984.539062 403.214844 984.320312 403.53125 984.378906 403.859375 L 986.054688 412.6875 C 986.101562 412.976562 986.359375 413.183594 986.648438 413.183594 C 986.6875 413.183594 986.722656 413.183594 986.757812 413.171875 C 987.085938 413.113281 987.304688 412.796875 987.242188 412.46875 Z M 931.753906 494.929688 C 931.558594 495.027344 912.414062 504.269531 888.890625 506.113281 C 888.78125 506.125 888.683594 506.160156 888.597656 506.222656 L 884.65625 413.585938 C 909.574219 374.917969 911.066406 335.296875 911.078125 334.894531 C 911.089844 334.554688 910.824219 334.277344 910.496094 334.265625 C 910.484375 334.265625 910.484375 334.265625 910.472656 334.265625 C 910.144531 334.265625 909.878906 334.519531 909.867188 334.847656 C 909.855469 335.234375 908.375 374.640625 883.527344 413.074219 C 883.457031 413.183594 883.429688 413.304688 883.429688 413.425781 L 888.320312 528.441406 C 888.332031 528.769531 888.597656 529.023438 888.925781 529.023438 C 888.9375 529.023438 888.9375 529.023438 888.949219 529.023438 C 889.289062 529.011719 889.546875 528.71875 889.535156 528.394531 L 888.636719 507.214844 C 888.71875 507.265625 888.816406 507.300781 888.925781 507.300781 C 888.9375 507.300781 888.964844 507.300781 888.976562 507.300781 C 912.730469 505.445312 932.078125 496.09375 932.273438 495.996094 C 932.578125 495.851562 932.699219 495.488281 932.554688 495.183594 C 932.40625 494.90625 932.042969 494.773438 931.753906 494.929688 Z M 961.886719 385.519531 C 962.046875 385.226562 961.9375 384.851562 961.644531 384.695312 C 961.355469 384.535156 960.976562 384.644531 960.820312 384.9375 C 960.652344 385.253906 943.519531 417.320312 945.363281 446.683594 C 945.386719 447.011719 945.65625 447.253906 945.972656 447.253906 C 945.984375 447.253906 945.996094 447.253906 946.007812 447.253906 C 946.347656 447.230469 946.601562 446.949219 946.578125 446.609375 C 944.746094 417.609375 961.71875 385.835938 961.886719 385.519531 Z M 937.308594 419.40625 C 937.308594 419.40625 937.296875 419.40625 937.296875 419.40625 C 936.96875 419.40625 936.703125 419.660156 936.691406 420 L 935.660156 457.988281 C 935.648438 458.328125 935.914062 458.605469 936.253906 458.605469 C 936.253906 458.605469 936.265625 458.605469 936.265625 458.605469 C 936.59375 458.605469 936.859375 458.351562 936.871094 458.011719 L 937.902344 420.023438 C 937.902344 419.699219 937.648438 419.417969 937.308594 419.40625 Z M 963.40625 399.042969 C 963.078125 398.980469 962.75 399.1875 962.6875 399.515625 L 960.746094 408.953125 C 960.6875 409.277344 960.894531 409.605469 961.222656 409.667969 C 961.257812 409.679688 961.304688 409.679688 961.34375 409.679688 C 961.621094 409.679688 961.875 409.484375 961.9375 409.195312 L 963.878906 399.757812 C 963.949219 399.429688 963.730469 399.101562 963.40625 399.042969 Z M 973.121094 378.738281 C 973.195312 378.765625 973.253906 378.777344 973.328125 378.777344 C 973.582031 378.777344 973.8125 378.617188 973.898438 378.375 C 974.007812 378.058594 973.851562 377.707031 973.535156 377.597656 C 970.332031 376.460938 964.640625 377.492188 964.398438 377.527344 C 964.070312 377.585938 963.851562 377.902344 963.914062 378.230469 C 963.976562 378.558594 964.289062 378.789062 964.617188 378.714844 C 964.667969 378.714844 970.234375 377.707031 973.121094 378.738281 Z M 973.121094 378.738281 " fill-opacity="1" fill-rule="nonzero"/><path fill="#000000" d="M 880.871094 456.484375 C 878.894531 456.566406 877.351562 458.242188 877.4375 460.21875 C 877.472656 461.175781 877.886719 462.0625 878.601562 462.703125 C 879.269531 463.3125 880.132812 463.652344 881.027344 463.652344 C 881.078125 463.652344 881.136719 463.652344 881.1875 463.652344 C 883.164062 463.566406 884.703125 461.890625 884.621094 459.914062 C 884.582031 458.957031 884.171875 458.070312 883.457031 457.429688 C 882.75 456.773438 881.84375 456.445312 880.871094 456.484375 Z M 881.125 462.449219 C 880.496094 462.472656 879.886719 462.257812 879.414062 461.832031 C 878.941406 461.40625 878.675781 460.8125 878.652344 460.183594 C 878.589844 458.871094 879.609375 457.769531 880.917969 457.707031 C 880.957031 457.707031 880.992188 457.707031 881.027344 457.707031 C 881.625 457.707031 882.195312 457.925781 882.628906 458.339844 C 883.105469 458.761719 883.371094 459.359375 883.394531 459.988281 C 883.457031 461.273438 882.4375 462.390625 881.125 462.449219 Z M 879.5625 425.894531 C 877.582031 425.980469 876.042969 427.652344 876.128906 429.628906 C 876.164062 430.589844 876.578125 431.472656 877.292969 432.117188 C 877.960938 432.722656 878.808594 433.0625 879.71875 433.0625 C 879.765625 433.0625 879.828125 433.0625 879.875 433.0625 C 881.855469 432.976562 883.394531 431.304688 883.308594 429.328125 C 883.273438 428.371094 882.859375 427.484375 882.144531 426.839844 C 881.441406 426.1875 880.519531 425.847656 879.5625 425.894531 Z M 879.816406 431.851562 C 879.183594 431.875 878.578125 431.65625 878.105469 431.230469 C 877.632812 430.808594 877.363281 430.210938 877.339844 429.582031 C 877.28125 428.273438 878.300781 427.167969 879.609375 427.109375 C 879.644531 427.109375 879.683594 427.109375 879.71875 427.109375 C 880.3125 427.109375 880.882812 427.328125 881.320312 427.738281 C 881.792969 428.164062 882.058594 428.757812 882.085938 429.386719 C 882.144531 430.6875 881.125 431.800781 879.816406 431.851562 Z M 880.214844 441.1875 C 879.257812 441.226562 878.371094 441.636719 877.730469 442.351562 C 877.085938 443.058594 876.746094 443.980469 876.78125 444.9375 C 876.820312 445.894531 877.230469 446.78125 877.949219 447.421875 C 878.613281 448.042969 879.476562 448.367188 880.375 448.367188 C 880.421875 448.367188 880.484375 448.367188 880.53125 448.367188 C 881.488281 448.332031 882.375 447.921875 883.019531 447.203125 C 883.660156 446.5 884 445.578125 883.964844 444.621094 C 883.929688 443.664062 883.515625 442.777344 882.800781 442.136719 C 882.097656 441.480469 881.1875 441.152344 880.214844 441.1875 Z M 882.121094 446.378906 C 881.695312 446.851562 881.101562 447.121094 880.472656 447.144531 C 879.839844 447.167969 879.234375 446.949219 878.761719 446.527344 C 878.289062 446.101562 878.019531 445.507812 877.996094 444.875 C 877.972656 444.246094 878.191406 443.640625 878.613281 443.164062 C 879.039062 442.691406 879.632812 442.425781 880.265625 442.402344 C 880.300781 442.402344 880.335938 442.402344 880.375 442.402344 C 880.96875 442.402344 881.539062 442.621094 881.976562 443.03125 C 882.449219 443.457031 882.714844 444.050781 882.738281 444.683594 C 882.777344 445.3125 882.558594 445.917969 882.121094 446.378906 Z M 881.527344 471.777344 C 879.550781 471.863281 878.007812 473.535156 878.09375 475.511719 C 878.128906 476.472656 878.542969 477.355469 879.257812 478 C 879.925781 478.617188 880.785156 478.945312 881.683594 478.945312 C 881.734375 478.945312 881.792969 478.945312 881.84375 478.945312 C 882.800781 478.910156 883.6875 478.496094 884.328125 477.78125 C 884.972656 477.078125 885.3125 476.15625 885.273438 475.195312 C 885.238281 474.238281 884.828125 473.355469 884.109375 472.710938 C 883.40625 472.066406 882.496094 471.730469 881.527344 471.777344 Z M 883.429688 476.96875 C 883.007812 477.441406 882.410156 477.707031 881.78125 477.730469 C 881.136719 477.757812 880.542969 477.539062 880.070312 477.113281 C 879.597656 476.6875 879.332031 476.09375 879.304688 475.464844 C 879.246094 474.152344 880.265625 473.050781 881.574219 472.988281 C 881.613281 472.988281 881.648438 472.988281 881.683594 472.988281 C 882.277344 472.988281 882.847656 473.207031 883.285156 473.621094 C 883.757812 474.046875 884.027344 474.640625 884.050781 475.269531 C 884.085938 475.902344 883.867188 476.507812 883.429688 476.96875 Z M 878.761719 490.820312 C 878.796875 491.777344 879.210938 492.664062 879.925781 493.304688 C 880.59375 493.921875 881.453125 494.25 882.351562 494.25 C 882.398438 494.25 882.460938 494.25 882.507812 494.25 C 883.46875 494.214844 884.351562 493.800781 884.996094 493.085938 C 885.640625 492.382812 885.980469 491.460938 885.941406 490.503906 C 885.90625 489.546875 885.492188 488.660156 884.777344 488.015625 C 884.074219 487.363281 883.164062 487.023438 882.195312 487.070312 C 880.203125 487.15625 878.675781 488.839844 878.761719 490.820312 Z M 882.339844 488.285156 C 882.933594 488.285156 883.503906 488.503906 883.941406 488.914062 C 884.414062 489.339844 884.679688 489.933594 884.703125 490.5625 C 884.730469 491.195312 884.511719 491.800781 884.085938 492.273438 C 883.660156 492.746094 883.066406 493.015625 882.4375 493.039062 C 881.804688 493.050781 881.199219 492.84375 880.726562 492.417969 C 880.253906 491.996094 879.984375 491.402344 879.960938 490.769531 C 879.902344 489.460938 880.917969 488.34375 882.230469 488.296875 C 882.277344 488.285156 882.304688 488.285156 882.339844 488.285156 Z M 882.847656 502.378906 C 880.871094 502.460938 879.332031 504.136719 879.414062 506.113281 C 879.453125 507.070312 879.863281 507.957031 880.582031 508.597656 C 881.246094 509.21875 882.109375 509.546875 883.007812 509.546875 C 883.054688 509.546875 883.117188 509.546875 883.164062 509.546875 C 885.140625 509.460938 886.683594 507.785156 886.597656 505.808594 C 886.5 503.820312 884.8125 502.269531 882.847656 502.378906 Z M 883.105469 508.332031 C 882.472656 508.34375 881.867188 508.136719 881.394531 507.714844 C 880.917969 507.289062 880.652344 506.695312 880.628906 506.0625 C 880.566406 504.753906 881.585938 503.652344 882.898438 503.589844 C 882.933594 503.589844 882.96875 503.589844 882.996094 503.589844 C 884.257812 503.589844 885.3125 504.585938 885.371094 505.859375 C 885.433594 507.167969 884.402344 508.273438 883.105469 508.332031 Z M 883.105469 508.332031 " fill-opacity="1" fill-rule="nonzero"/><path fill="#ede6dd" d="M 888.332031 568.113281 C 888.257812 568.113281 888.1875 568.101562 888.113281 568.078125 L 863.148438 558.484375 C 862.832031 558.363281 862.671875 558.011719 862.792969 557.695312 C 862.917969 557.378906 863.269531 557.222656 863.582031 557.34375 L 888.550781 566.9375 C 888.867188 567.058594 889.023438 567.410156 888.902344 567.726562 C 888.804688 567.96875 888.574219 568.113281 888.332031 568.113281 Z M 888.332031 568.113281 " fill-opacity="1" fill-rule="nonzero"/><g fill="#f28f69" fill-opacity="1"><g transform="translate(275.710727, 289.533144)"><g><path d="M -0.75 -20.53125 L 4.875 -20.53125 L 9.15625 -13.96875 L 13.4375 -20.53125 L 19.0625 -20.53125 L 11.5 -9.203125 L 11.5 0 L 6.8125 0 L 6.8125 -9.203125 Z M -0.75 -20.53125 "/></g></g></g><g fill="#f28f69" fill-opacity="1"><g transform="translate(294.034149, 289.533144)"><g><path d="M 0.578125 -10.28125 C 0.578125 -13.25 1.585938 -15.757812 3.609375 -17.8125 C 5.628906 -19.875 8.066406 -20.90625 10.921875 -20.90625 C 13.796875 -20.90625 16.234375 -19.878906 18.234375 -17.828125 C 20.242188 -15.785156 21.25 -13.269531 21.25 -10.28125 C 21.25 -7.28125 20.257812 -4.753906 18.28125 -2.703125 C 16.3125 -0.648438 13.859375 0.375 10.921875 0.375 C 7.921875 0.375 5.445312 -0.640625 3.5 -2.671875 C 1.550781 -4.703125 0.578125 -7.238281 0.578125 -10.28125 Z M 5.625 -10.28125 C 5.625 -9.195312 5.789062 -8.210938 6.125 -7.328125 C 6.457031 -6.441406 7.035156 -5.691406 7.859375 -5.078125 C 8.691406 -4.460938 9.710938 -4.15625 10.921875 -4.15625 C 12.671875 -4.15625 13.988281 -4.75 14.875 -5.9375 C 15.757812 -7.132812 16.203125 -8.582031 16.203125 -10.28125 C 16.203125 -11.957031 15.75 -13.394531 14.84375 -14.59375 C 13.9375 -15.800781 12.628906 -16.40625 10.921875 -16.40625 C 9.234375 -16.40625 7.925781 -15.800781 7 -14.59375 C 6.082031 -13.394531 5.625 -11.957031 5.625 -10.28125 Z M 5.625 -10.28125 "/></g></g></g><g fill="#f28f69" fill-opacity="1"><g transform="translate(315.8679, 289.533144)"><g><path d="M 17.28125 -20.53125 L 17.28125 -7.296875 C 17.28125 -4.773438 16.597656 -2.863281 15.234375 -1.5625 C 13.867188 -0.269531 11.875 0.375 9.25 0.375 C 6.632812 0.375 4.644531 -0.269531 3.28125 -1.5625 C 1.925781 -2.863281 1.25 -4.773438 1.25 -7.296875 L 1.25 -20.53125 L 5.921875 -20.53125 L 5.921875 -8.65625 C 5.921875 -7 6.179688 -5.847656 6.703125 -5.203125 C 7.222656 -4.554688 8.070312 -4.234375 9.25 -4.234375 C 10.4375 -4.234375 11.289062 -4.554688 11.8125 -5.203125 C 12.332031 -5.847656 12.59375 -7 12.59375 -8.65625 L 12.59375 -20.53125 Z M 17.28125 -20.53125 "/></g></g></g><g fill="#f28f69" fill-opacity="1"><g transform="translate(334.390489, 289.533144)"><g><path d="M 1.5 -20.53125 L 8.84375 -20.53125 C 10.8125 -20.53125 12.414062 -20.003906 13.65625 -18.953125 C 14.90625 -17.898438 15.53125 -16.394531 15.53125 -14.4375 C 15.53125 -12.925781 15.148438 -11.660156 14.390625 -10.640625 C 13.640625 -9.617188 12.617188 -8.898438 11.328125 -8.484375 L 18.390625 0 L 12.453125 0 L 6.171875 -8.109375 L 6.171875 0 L 1.5 0 Z M 6.171875 -11.421875 L 6.71875 -11.421875 C 7.15625 -11.421875 7.519531 -11.425781 7.8125 -11.4375 C 8.113281 -11.457031 8.453125 -11.515625 8.828125 -11.609375 C 9.210938 -11.710938 9.519531 -11.859375 9.75 -12.046875 C 9.988281 -12.234375 10.191406 -12.5 10.359375 -12.84375 C 10.523438 -13.1875 10.609375 -13.609375 10.609375 -14.109375 C 10.609375 -14.609375 10.523438 -15.03125 10.359375 -15.375 C 10.191406 -15.726562 9.988281 -15.992188 9.75 -16.171875 C 9.519531 -16.359375 9.210938 -16.5 8.828125 -16.59375 C 8.453125 -16.695312 8.113281 -16.753906 7.8125 -16.765625 C 7.519531 -16.785156 7.15625 -16.796875 6.71875 -16.796875 L 6.171875 -16.796875 Z M 6.171875 -11.421875 "/></g></g></g><g fill="#f28f69" fill-opacity="1"><g transform="translate(352.215995, 289.533144)"><g/></g></g><g fill="#f28f69" fill-opacity="1"><g transform="translate(359.012587, 289.533144)"><g><path d="M 18.46875 0 L 17.5 -12.171875 L 17.375 -12.171875 L 13.171875 -0.125 L 10.375 -0.125 L 6.171875 -12.171875 L 6.046875 -12.171875 L 5.078125 0 L 0.390625 0 L 2.234375 -20.53125 L 7.21875 -20.53125 L 11.765625 -8.6875 L 16.328125 -20.53125 L 21.3125 -20.53125 L 23.140625 0 Z M 18.46875 0 "/></g></g></g><g fill="#f28f69" fill-opacity="1"><g transform="translate(382.564161, 289.533144)"><g><path d="M 0.578125 -10.28125 C 0.578125 -13.25 1.585938 -15.757812 3.609375 -17.8125 C 5.628906 -19.875 8.066406 -20.90625 10.921875 -20.90625 C 13.796875 -20.90625 16.234375 -19.878906 18.234375 -17.828125 C 20.242188 -15.785156 21.25 -13.269531 21.25 -10.28125 C 21.25 -7.28125 20.257812 -4.753906 18.28125 -2.703125 C 16.3125 -0.648438 13.859375 0.375 10.921875 0.375 C 7.921875 0.375 5.445312 -0.640625 3.5 -2.671875 C 1.550781 -4.703125 0.578125 -7.238281 0.578125 -10.28125 Z M 5.625 -10.28125 C 5.625 -9.195312 5.789062 -8.210938 6.125 -7.328125 C 6.457031 -6.441406 7.035156 -5.691406 7.859375 -5.078125 C 8.691406 -4.460938 9.710938 -4.15625 10.921875 -4.15625 C 12.671875 -4.15625 13.988281 -4.75 14.875 -5.9375 C 15.757812 -7.132812 16.203125 -8.582031 16.203125 -10.28125 C 16.203125 -11.957031 15.75 -13.394531 14.84375 -14.59375 C 13.9375 -15.800781 12.628906 -16.40625 10.921875 -16.40625 C 9.234375 -16.40625 7.925781 -15.800781 7 -14.59375 C 6.082031 -13.394531 5.625 -11.957031 5.625 -10.28125 Z M 5.625 -10.28125 "/></g></g></g><g fill="#f28f69" fill-opacity="1"><g transform="translate(404.397912, 289.533144)"><g><path d="M 9.0625 -20.90625 C 10.175781 -20.90625 11.257812 -20.742188 12.3125 -20.421875 C 13.375 -20.097656 14.164062 -19.78125 14.6875 -19.46875 L 15.4375 -18.96875 L 13.546875 -15.234375 C 13.390625 -15.328125 13.175781 -15.453125 12.90625 -15.609375 C 12.644531 -15.773438 12.148438 -15.988281 11.421875 -16.25 C 10.691406 -16.519531 10.015625 -16.65625 9.390625 -16.65625 C 8.609375 -16.65625 8.003906 -16.488281 7.578125 -16.15625 C 7.148438 -15.820312 6.9375 -15.375 6.9375 -14.8125 C 6.9375 -14.53125 7.035156 -14.269531 7.234375 -14.03125 C 7.441406 -13.789062 7.785156 -13.53125 8.265625 -13.25 C 8.742188 -12.976562 9.164062 -12.757812 9.53125 -12.59375 C 9.894531 -12.425781 10.457031 -12.175781 11.21875 -11.84375 C 12.550781 -11.28125 13.6875 -10.515625 14.625 -9.546875 C 15.5625 -8.578125 16.03125 -7.476562 16.03125 -6.25 C 16.03125 -5.070312 15.816406 -4.039062 15.390625 -3.15625 C 14.972656 -2.28125 14.394531 -1.59375 13.65625 -1.09375 C 12.914062 -0.59375 12.097656 -0.222656 11.203125 0.015625 C 10.304688 0.253906 9.332031 0.375 8.28125 0.375 C 7.382812 0.375 6.503906 0.28125 5.640625 0.09375 C 4.785156 -0.0820312 4.066406 -0.304688 3.484375 -0.578125 C 2.898438 -0.859375 2.375 -1.128906 1.90625 -1.390625 C 1.445312 -1.660156 1.109375 -1.882812 0.890625 -2.0625 L 0.578125 -2.34375 L 2.90625 -6.265625 C 3.101562 -6.109375 3.375 -5.898438 3.71875 -5.640625 C 4.070312 -5.378906 4.691406 -5.03125 5.578125 -4.59375 C 6.472656 -4.164062 7.257812 -3.953125 7.9375 -3.953125 C 9.914062 -3.953125 10.90625 -4.625 10.90625 -5.96875 C 10.90625 -6.25 10.832031 -6.507812 10.6875 -6.75 C 10.550781 -7 10.300781 -7.242188 9.9375 -7.484375 C 9.582031 -7.722656 9.269531 -7.910156 9 -8.046875 C 8.726562 -8.191406 8.28125 -8.410156 7.65625 -8.703125 C 7.03125 -8.992188 6.566406 -9.210938 6.265625 -9.359375 C 5.023438 -9.972656 4.0625 -10.738281 3.375 -11.65625 C 2.695312 -12.582031 2.359375 -13.578125 2.359375 -14.640625 C 2.359375 -16.484375 3.039062 -17.988281 4.40625 -19.15625 C 5.769531 -20.320312 7.320312 -20.90625 9.0625 -20.90625 Z M 9.0625 -20.90625 "/></g></g></g><g fill="#f28f69" fill-opacity="1"><g transform="translate(421.127993, 289.533144)"><g><path d="M 0.203125 -16.421875 L 0.203125 -20.53125 L 14.640625 -20.53125 L 14.640625 -16.421875 L 9.75 -16.421875 L 9.75 0 L 5.078125 0 L 5.078125 -16.421875 Z M 0.203125 -16.421875 "/></g></g></g><g fill="#f28f69" fill-opacity="1"><g transform="translate(435.965984, 289.533144)"><g/></g></g><g fill="#f28f69" fill-opacity="1"><g transform="translate(442.762584, 289.533144)"><g><path d="M 12.421875 -4.234375 C 13.128906 -4.234375 13.816406 -4.335938 14.484375 -4.546875 C 15.160156 -4.765625 15.660156 -4.972656 15.984375 -5.171875 L 16.453125 -5.5 L 18.4375 -1.515625 C 18.375 -1.460938 18.285156 -1.394531 18.171875 -1.3125 C 18.054688 -1.226562 17.785156 -1.070312 17.359375 -0.84375 C 16.929688 -0.625 16.476562 -0.429688 16 -0.265625 C 15.519531 -0.109375 14.890625 0.0351562 14.109375 0.171875 C 13.328125 0.304688 12.523438 0.375 11.703125 0.375 C 9.796875 0.375 7.984375 -0.09375 6.265625 -1.03125 C 4.554688 -1.96875 3.179688 -3.257812 2.140625 -4.90625 C 1.097656 -6.550781 0.578125 -8.328125 0.578125 -10.234375 C 0.578125 -11.671875 0.882812 -13.050781 1.5 -14.375 C 2.113281 -15.707031 2.925781 -16.847656 3.9375 -17.796875 C 4.957031 -18.742188 6.148438 -19.5 7.515625 -20.0625 C 8.878906 -20.625 10.273438 -20.90625 11.703125 -20.90625 C 13.023438 -20.90625 14.242188 -20.75 15.359375 -20.4375 C 16.484375 -20.125 17.28125 -19.804688 17.75 -19.484375 L 18.4375 -19.015625 L 16.453125 -15.03125 C 16.335938 -15.132812 16.160156 -15.253906 15.921875 -15.390625 C 15.691406 -15.535156 15.226562 -15.722656 14.53125 -15.953125 C 13.832031 -16.179688 13.128906 -16.296875 12.421875 -16.296875 C 11.296875 -16.296875 10.285156 -16.113281 9.390625 -15.75 C 8.492188 -15.382812 7.78125 -14.90625 7.25 -14.3125 C 6.726562 -13.71875 6.332031 -13.070312 6.0625 -12.375 C 5.789062 -11.6875 5.65625 -10.988281 5.65625 -10.28125 C 5.65625 -8.71875 6.238281 -7.316406 7.40625 -6.078125 C 8.570312 -4.847656 10.242188 -4.234375 12.421875 -4.234375 Z M 12.421875 -4.234375 "/></g></g></g><g fill="#f28f69" fill-opacity="1"><g transform="translate(461.509241, 289.533144)"><g><path d="M 0.578125 -10.28125 C 0.578125 -13.25 1.585938 -15.757812 3.609375 -17.8125 C 5.628906 -19.875 8.066406 -20.90625 10.921875 -20.90625 C 13.796875 -20.90625 16.234375 -19.878906 18.234375 -17.828125 C 20.242188 -15.785156 21.25 -13.269531 21.25 -10.28125 C 21.25 -7.28125 20.257812 -4.753906 18.28125 -2.703125 C 16.3125 -0.648438 13.859375 0.375 10.921875 0.375 C 7.921875 0.375 5.445312 -0.640625 3.5 -2.671875 C 1.550781 -4.703125 0.578125 -7.238281 0.578125 -10.28125 Z M 5.625 -10.28125 C 5.625 -9.195312 5.789062 -8.210938 6.125 -7.328125 C 6.457031 -6.441406 7.035156 -5.691406 7.859375 -5.078125 C 8.691406 -4.460938 9.710938 -4.15625 10.921875 -4.15625 C 12.671875 -4.15625 13.988281 -4.75 14.875 -5.9375 C 15.757812 -7.132812 16.203125 -8.582031 16.203125 -10.28125 C 16.203125 -11.957031 15.75 -13.394531 14.84375 -14.59375 C 13.9375 -15.800781 12.628906 -16.40625 10.921875 -16.40625 C 9.234375 -16.40625 7.925781 -15.800781 7 -14.59375 C 6.082031 -13.394531 5.625 -11.957031 5.625 -10.28125 Z M 5.625 -10.28125 "/></g></g></g><g fill="#f28f69" fill-opacity="1"><g transform="translate(483.342992, 289.533144)"><g><path d="M 6.171875 -12.75 L 6.171875 0 L 1.5 0 L 1.5 -20.53125 L 6.171875 -20.53125 L 14.34375 -7.796875 L 14.390625 -7.796875 L 14.390625 -20.53125 L 19.0625 -20.53125 L 19.0625 0 L 14.390625 0 L 6.21875 -12.75 Z M 6.171875 -12.75 "/></g></g></g><g fill="#f28f69" fill-opacity="1"><g transform="translate(503.907051, 289.533144)"><g><path d="M 7.921875 0 L -0.703125 -20.53125 L 4.578125 -20.53125 L 9.75 -7.046875 L 14.9375 -20.53125 L 20.21875 -20.53125 L 11.59375 0 Z M 7.921875 0 "/></g></g></g><g fill="#f28f69" fill-opacity="1"><g transform="translate(523.425478, 289.533144)"><g><path d="M 13.234375 -20.53125 L 13.234375 -16.421875 L 6.171875 -16.421875 L 6.171875 -12.34375 L 12.9375 -12.34375 L 12.9375 -8.234375 L 6.171875 -8.234375 L 6.171875 -4.109375 L 13.234375 -4.109375 L 13.234375 0 L 1.5 0 L 1.5 -20.53125 Z M 13.234375 -20.53125 "/></g></g></g><g fill="#f28f69" fill-opacity="1"><g transform="translate(537.86512, 289.533144)"><g><path d="M 6.171875 -12.75 L 6.171875 0 L 1.5 0 L 1.5 -20.53125 L 6.171875 -20.53125 L 14.34375 -7.796875 L 14.390625 -7.796875 L 14.390625 -20.53125 L 19.0625 -20.53125 L 19.0625 0 L 14.390625 0 L 6.21875 -12.75 Z M 6.171875 -12.75 "/></g></g></g><g fill="#f28f69" fill-opacity="1"><g transform="translate(558.429178, 289.533144)"><g><path d="M 6.171875 -20.53125 L 6.171875 0 L 1.5 0 L 1.5 -20.53125 Z M 6.171875 -20.53125 "/></g></g></g><g fill="#f28f69" fill-opacity="1"><g transform="translate(566.097135, 289.533144)"><g><path d="M 13.234375 -20.53125 L 13.234375 -16.421875 L 6.171875 -16.421875 L 6.171875 -12.34375 L 12.9375 -12.34375 L 12.9375 -8.234375 L 6.171875 -8.234375 L 6.171875 -4.109375 L 13.234375 -4.109375 L 13.234375 0 L 1.5 0 L 1.5 -20.53125 Z M 13.234375 -20.53125 "/></g></g></g><g fill="#f28f69" fill-opacity="1"><g transform="translate(580.536806, 289.533144)"><g><path d="M 6.171875 -12.75 L 6.171875 0 L 1.5 0 L 1.5 -20.53125 L 6.171875 -20.53125 L 14.34375 -7.796875 L 14.390625 -7.796875 L 14.390625 -20.53125 L 19.0625 -20.53125 L 19.0625 0 L 14.390625 0 L 6.21875 -12.75 Z M 6.171875 -12.75 "/></g></g></g><g fill="#f28f69" fill-opacity="1"><g transform="translate(601.100865, 289.533144)"><g><path d="M 0.203125 -16.421875 L 0.203125 -20.53125 L 14.640625 -20.53125 L 14.640625 -16.421875 L 9.75 -16.421875 L 9.75 0 L 5.078125 0 L 5.078125 -16.421875 Z M 0.203125 -16.421875 "/></g></g></g><g fill="#f28f69" fill-opacity="1"><g transform="translate(284.839494, 324.264087)"><g><path d="M 0.578125 -10.28125 C 0.578125 -13.25 1.585938 -15.757812 3.609375 -17.8125 C 5.628906 -19.875 8.066406 -20.90625 10.921875 -20.90625 C 13.796875 -20.90625 16.234375 -19.878906 18.234375 -17.828125 C 20.242188 -15.785156 21.25 -13.269531 21.25 -10.28125 C 21.25 -7.28125 20.257812 -4.753906 18.28125 -2.703125 C 16.3125 -0.648438 13.859375 0.375 10.921875 0.375 C 7.921875 0.375 5.445312 -0.640625 3.5 -2.671875 C 1.550781 -4.703125 0.578125 -7.238281 0.578125 -10.28125 Z M 5.625 -10.28125 C 5.625 -9.195312 5.789062 -8.210938 6.125 -7.328125 C 6.457031 -6.441406 7.035156 -5.691406 7.859375 -5.078125 C 8.691406 -4.460938 9.710938 -4.15625 10.921875 -4.15625 C 12.671875 -4.15625 13.988281 -4.75 14.875 -5.9375 C 15.757812 -7.132812 16.203125 -8.582031 16.203125 -10.28125 C 16.203125 -11.957031 15.75 -13.394531 14.84375 -14.59375 C 13.9375 -15.800781 12.628906 -16.40625 10.921875 -16.40625 C 9.234375 -16.40625 7.925781 -15.800781 7 -14.59375 C 6.082031 -13.394531 5.625 -11.957031 5.625 -10.28125 Z M 5.625 -10.28125 "/></g></g></g><g fill="#f28f69" fill-opacity="1"><g transform="translate(306.673245, 324.264087)"><g><path d="M 6.171875 -12.75 L 6.171875 0 L 1.5 0 L 1.5 -20.53125 L 6.171875 -20.53125 L 14.34375 -7.796875 L 14.390625 -7.796875 L 14.390625 -20.53125 L 19.0625 -20.53125 L 19.0625 0 L 14.390625 0 L 6.21875 -12.75 Z M 6.171875 -12.75 "/></g></g></g><g fill="#f28f69" fill-opacity="1"><g transform="translate(327.237304, 324.264087)"><g><path d="M 6.171875 -20.53125 L 6.171875 -4.109375 L 13.234375 -4.109375 L 13.234375 0 L 1.5 0 L 1.5 -20.53125 Z M 6.171875 -20.53125 "/></g></g></g><g fill="#f28f69" fill-opacity="1"><g transform="translate(341.303518, 324.264087)"><g><path d="M 6.171875 -20.53125 L 6.171875 0 L 1.5 0 L 1.5 -20.53125 Z M 6.171875 -20.53125 "/></g></g></g><g fill="#f28f69" fill-opacity="1"><g transform="translate(348.971475, 324.264087)"><g><path d="M 6.171875 -12.75 L 6.171875 0 L 1.5 0 L 1.5 -20.53125 L 6.171875 -20.53125 L 14.34375 -7.796875 L 14.390625 -7.796875 L 14.390625 -20.53125 L 19.0625 -20.53125 L 19.0625 0 L 14.390625 0 L 6.21875 -12.75 Z M 6.171875 -12.75 "/></g></g></g><g fill="#f28f69" fill-opacity="1"><g transform="translate(369.535534, 324.264087)"><g><path d="M 13.234375 -20.53125 L 13.234375 -16.421875 L 6.171875 -16.421875 L 6.171875 -12.34375 L 12.9375 -12.34375 L 12.9375 -8.234375 L 6.171875 -8.234375 L 6.171875 -4.109375 L 13.234375 -4.109375 L 13.234375 0 L 1.5 0 L 1.5 -20.53125 Z M 13.234375 -20.53125 "/></g></g></g><g fill="#f28f69" fill-opacity="1"><g transform="translate(383.97519, 324.264087)"><g/></g></g><g fill="#f28f69" fill-opacity="1"><g transform="translate(390.771782, 324.264087)"><g><path d="M 6.5 4.3125 L 5.375 2.609375 C 5.425781 2.546875 5.492188 2.460938 5.578125 2.359375 C 5.660156 2.265625 5.832031 2.078125 6.09375 1.796875 C 6.363281 1.523438 6.625 1.285156 6.875 1.078125 C 7.125 0.867188 7.410156 0.679688 7.734375 0.515625 C 8.066406 0.359375 8.375 0.28125 8.65625 0.28125 L 8.65625 0.171875 C 6.238281 -0.285156 4.285156 -1.476562 2.796875 -3.40625 C 1.316406 -5.332031 0.578125 -7.625 0.578125 -10.28125 C 0.578125 -13.269531 1.570312 -15.785156 3.5625 -17.828125 C 5.550781 -19.878906 7.960938 -20.90625 10.796875 -20.90625 C 13.648438 -20.90625 16.0625 -19.878906 18.03125 -17.828125 C 20.007812 -15.785156 21 -13.269531 21 -10.28125 C 21 -7.84375 20.34375 -5.691406 19.03125 -3.828125 C 17.726562 -1.972656 16.003906 -0.722656 13.859375 -0.078125 L 13.859375 0.03125 C 13.960938 0.03125 14.40625 0.109375 15.1875 0.265625 C 15.96875 0.421875 16.585938 0.5 17.046875 0.5 C 17.679688 0.5 18.253906 0.382812 18.765625 0.15625 C 19.285156 -0.0625 19.644531 -0.28125 19.84375 -0.5 L 20.140625 -0.84375 L 21.609375 2.3125 C 21.578125 2.394531 21.519531 2.5 21.4375 2.625 C 21.363281 2.75 21.191406 2.96875 20.921875 3.28125 C 20.660156 3.601562 20.367188 3.882812 20.046875 4.125 C 19.722656 4.375 19.289062 4.597656 18.75 4.796875 C 18.21875 5.003906 17.644531 5.109375 17.03125 5.109375 C 16.007812 5.109375 14.769531 4.78125 13.3125 4.125 C 11.851562 3.476562 10.59375 3.15625 9.53125 3.15625 C 8.945312 3.15625 8.398438 3.25 7.890625 3.4375 C 7.390625 3.632812 7.03125 3.832031 6.8125 4.03125 Z M 5.625 -10.28125 C 5.625 -9.476562 5.710938 -8.734375 5.890625 -8.046875 C 6.078125 -7.359375 6.363281 -6.734375 6.75 -6.171875 C 7.144531 -5.609375 7.6875 -5.164062 8.375 -4.84375 C 9.0625 -4.519531 9.867188 -4.359375 10.796875 -4.359375 C 12.546875 -4.359375 13.84375 -4.921875 14.6875 -6.046875 C 15.53125 -7.171875 15.953125 -8.582031 15.953125 -10.28125 C 15.953125 -11.957031 15.519531 -13.363281 14.65625 -14.5 C 13.789062 -15.632812 12.503906 -16.203125 10.796875 -16.203125 C 9.109375 -16.203125 7.820312 -15.628906 6.9375 -14.484375 C 6.0625 -13.335938 5.625 -11.9375 5.625 -10.28125 Z M 5.625 -10.28125 "/></g></g></g><g fill="#f28f69" fill-opacity="1"><g transform="translate(412.356572, 324.264087)"><g><path d="M 17.28125 -20.53125 L 17.28125 -7.296875 C 17.28125 -4.773438 16.597656 -2.863281 15.234375 -1.5625 C 13.867188 -0.269531 11.875 0.375 9.25 0.375 C 6.632812 0.375 4.644531 -0.269531 3.28125 -1.5625 C 1.925781 -2.863281 1.25 -4.773438 1.25 -7.296875 L 1.25 -20.53125 L 5.921875 -20.53125 L 5.921875 -8.65625 C 5.921875 -7 6.179688 -5.847656 6.703125 -5.203125 C 7.222656 -4.554688 8.070312 -4.234375 9.25 -4.234375 C 10.4375 -4.234375 11.289062 -4.554688 11.8125 -5.203125 C 12.332031 -5.847656 12.59375 -7 12.59375 -8.65625 L 12.59375 -20.53125 Z M 17.28125 -20.53125 "/></g></g></g><g fill="#f28f69" fill-opacity="1"><g transform="translate(430.879169, 324.264087)"><g><path d="M 6.171875 -20.53125 L 6.171875 0 L 1.5 0 L 1.5 -20.53125 Z M 6.171875 -20.53125 "/></g></g></g><g fill="#f28f69" fill-opacity="1"><g transform="translate(438.547126, 324.264087)"><g><path d="M 18.75 -20.53125 L 8.5625 -4.109375 L 18.078125 -4.109375 L 18.078125 0 L 0.390625 0 L 10.546875 -16.421875 L 1.84375 -16.421875 L 1.84375 -20.53125 Z M 18.75 -20.53125 "/></g></g></g><g fill="#f28f69" fill-opacity="1"><g transform="translate(457.692103, 324.264087)"><g/></g></g><g fill="#f28f69" fill-opacity="1"><g transform="translate(464.488703, 324.264087)"><g><path d="M 1.5 -20.53125 L 8.984375 -20.53125 C 11.078125 -20.53125 12.769531 -19.988281 14.0625 -18.90625 C 15.351562 -17.832031 16 -16.265625 16 -14.203125 C 16 -12.148438 15.34375 -10.535156 14.03125 -9.359375 C 12.726562 -8.191406 11.046875 -7.609375 8.984375 -7.609375 L 6.171875 -7.609375 L 6.171875 0 L 1.5 0 Z M 6.171875 -11.34375 L 7.484375 -11.34375 C 8.535156 -11.34375 9.394531 -11.554688 10.0625 -11.984375 C 10.738281 -12.410156 11.078125 -13.101562 11.078125 -14.0625 C 11.078125 -15.039062 10.738281 -15.738281 10.0625 -16.15625 C 9.394531 -16.582031 8.535156 -16.796875 7.484375 -16.796875 L 6.171875 -16.796875 Z M 6.171875 -11.34375 "/></g></g></g><g fill="#f28f69" fill-opacity="1"><g transform="translate(481.069409, 324.264087)"><g><path d="M 6.171875 -20.53125 L 6.171875 -4.109375 L 13.234375 -4.109375 L 13.234375 0 L 1.5 0 L 1.5 -20.53125 Z M 6.171875 -20.53125 "/></g></g></g><g fill="#f28f69" fill-opacity="1"><g transform="translate(495.135617, 324.264087)"><g><path d="M 11.921875 -20.53125 L 20.21875 0 L 15.1875 0 L 13.671875 -4.109375 L 5.84375 -4.109375 L 4.328125 0 L -0.703125 0 L 7.59375 -20.53125 Z M 12.078125 -8.21875 L 9.78125 -14.1875 L 9.734375 -14.1875 L 7.4375 -8.21875 Z M 12.078125 -8.21875 "/></g></g></g><g fill="#f28f69" fill-opacity="1"><g transform="translate(514.654044, 324.264087)"><g><path d="M 0.203125 -16.421875 L 0.203125 -20.53125 L 14.640625 -20.53125 L 14.640625 -16.421875 L 9.75 -16.421875 L 9.75 0 L 5.078125 0 L 5.078125 -16.421875 Z M 0.203125 -16.421875 "/></g></g></g><g fill="#f28f69" fill-opacity="1"><g transform="translate(529.49205, 324.264087)"><g><path d="M 13.359375 -20.53125 L 13.359375 -16.421875 L 6.171875 -16.421875 L 6.171875 -12.34375 L 12.8125 -12.34375 L 12.8125 -8.234375 L 6.171875 -8.234375 L 6.171875 0 L 1.5 0 L 1.5 -20.53125 Z M 13.359375 -20.53125 "/></g></g></g><g fill="#f28f69" fill-opacity="1"><g transform="translate(543.608058, 324.264087)"><g><path d="M 0.578125 -10.28125 C 0.578125 -13.25 1.585938 -15.757812 3.609375 -17.8125 C 5.628906 -19.875 8.066406 -20.90625 10.921875 -20.90625 C 13.796875 -20.90625 16.234375 -19.878906 18.234375 -17.828125 C 20.242188 -15.785156 21.25 -13.269531 21.25 -10.28125 C 21.25 -7.28125 20.257812 -4.753906 18.28125 -2.703125 C 16.3125 -0.648438 13.859375 0.375 10.921875 0.375 C 7.921875 0.375 5.445312 -0.640625 3.5 -2.671875 C 1.550781 -4.703125 0.578125 -7.238281 0.578125 -10.28125 Z M 5.625 -10.28125 C 5.625 -9.195312 5.789062 -8.210938 6.125 -7.328125 C 6.457031 -6.441406 7.035156 -5.691406 7.859375 -5.078125 C 8.691406 -4.460938 9.710938 -4.15625 10.921875 -4.15625 C 12.671875 -4.15625 13.988281 -4.75 14.875 -5.9375 C 15.757812 -7.132812 16.203125 -8.582031 16.203125 -10.28125 C 16.203125 -11.957031 15.75 -13.394531 14.84375 -14.59375 C 13.9375 -15.800781 12.628906 -16.40625 10.921875 -16.40625 C 9.234375 -16.40625 7.925781 -15.800781 7 -14.59375 C 6.082031 -13.394531 5.625 -11.957031 5.625 -10.28125 Z M 5.625 -10.28125 "/></g></g></g><g fill="#f28f69" fill-opacity="1"><g transform="translate(565.441795, 324.264087)"><g><path d="M 1.5 -20.53125 L 8.84375 -20.53125 C 10.8125 -20.53125 12.414062 -20.003906 13.65625 -18.953125 C 14.90625 -17.898438 15.53125 -16.394531 15.53125 -14.4375 C 15.53125 -12.925781 15.148438 -11.660156 14.390625 -10.640625 C 13.640625 -9.617188 12.617188 -8.898438 11.328125 -8.484375 L 18.390625 0 L 12.453125 0 L 6.171875 -8.109375 L 6.171875 0 L 1.5 0 Z M 6.171875 -11.421875 L 6.71875 -11.421875 C 7.15625 -11.421875 7.519531 -11.425781 7.8125 -11.4375 C 8.113281 -11.457031 8.453125 -11.515625 8.828125 -11.609375 C 9.210938 -11.710938 9.519531 -11.859375 9.75 -12.046875 C 9.988281 -12.234375 10.191406 -12.5 10.359375 -12.84375 C 10.523438 -13.1875 10.609375 -13.609375 10.609375 -14.109375 C 10.609375 -14.609375 10.523438 -15.03125 10.359375 -15.375 C 10.191406 -15.726562 9.988281 -15.992188 9.75 -16.171875 C 9.519531 -16.359375 9.210938 -16.5 8.828125 -16.59375 C 8.453125 -16.695312 8.113281 -16.753906 7.8125 -16.765625 C 7.519531 -16.785156 7.15625 -16.796875 6.71875 -16.796875 L 6.171875 -16.796875 Z M 6.171875 -11.421875 "/></g></g></g><g fill="#f28f69" fill-opacity="1"><g transform="translate(583.267294, 324.264087)"><g><path d="M 18.46875 0 L 17.5 -12.171875 L 17.375 -12.171875 L 13.171875 -0.125 L 10.375 -0.125 L 6.171875 -12.171875 L 6.046875 -12.171875 L 5.078125 0 L 0.390625 0 L 2.234375 -20.53125 L 7.21875 -20.53125 L 11.765625 -8.6875 L 16.328125 -20.53125 L 21.3125 -20.53125 L 23.140625 0 Z M 18.46875 0 "/></g></g></g><g fill="#9f3f73" fill-opacity="1"><g transform="translate(248.169932, 178.675426)"><g><path d="M 38.492188 0.429688 C 46.578125 8.410156 52.941406 13.695312 55.636719 13.695312 C 63.078125 13.695312 70.195312 11.214844 73.320312 7.65625 L 72.78125 7.222656 C 71.378906 8.839844 64.800781 9.917969 56.175781 9.917969 C 51.753906 9.917969 46.363281 6.144531 40.648438 0.539062 C 62.214844 0.214844 73.320312 -18.4375 73.320312 -40.109375 C 73.320312 -62.105469 62 -80.867188 40.109375 -80.867188 C 18.113281 -80.867188 6.792969 -62.105469 6.792969 -40.109375 C 6.792969 -18.761719 17.574219 -0.429688 38.492188 0.429688 Z M 40.109375 -79.464844 C 57.792969 -79.464844 66.957031 -61.460938 66.957031 -40.21875 C 66.957031 -19.085938 57.792969 -1.078125 40.109375 -1.078125 C 22.425781 -1.078125 13.261719 -19.085938 13.261719 -40.21875 C 13.261719 -61.460938 22.425781 -79.464844 40.109375 -79.464844 Z M 40.109375 -79.464844 "/></g></g></g><g fill="#9f3f73" fill-opacity="1"><g transform="translate(326.768681, 178.675426)"><g><path d="M 7.007812 -80.4375 L 6.792969 -80.328125 L 6.46875 -80.328125 L 6.46875 -79.25 L 6.578125 -79.25 C 6.792969 -79.25 6.902344 -76.445312 6.902344 -72.242188 L 6.902344 -25.230469 C 6.902344 -9.703125 13.585938 0.539062 30.835938 0.539062 C 47.441406 0.539062 53.910156 -8.300781 53.910156 -21.566406 L 53.910156 -71.164062 C 53.910156 -76.015625 54.019531 -79.25 54.234375 -79.25 L 54.34375 -79.25 C 54.234375 -79.25 54.234375 -79.464844 54.34375 -79.789062 C 54.234375 -80.003906 54.234375 -80.222656 54.34375 -80.328125 L 54.019531 -80.328125 L 54.019531 -80.4375 L 51.972656 -80.4375 L 51.972656 -79.359375 C 52.1875 -79.359375 52.292969 -77.203125 52.292969 -73.859375 L 52.1875 -22.210938 C 52.1875 -9.917969 46.472656 -1.617188 31.808594 -1.617188 C 18.113281 -1.617188 12.832031 -10.675781 12.832031 -24.152344 L 12.832031 -76.664062 C 12.832031 -78.386719 12.9375 -79.359375 13.046875 -79.359375 L 13.15625 -79.359375 L 13.15625 -80.4375 Z M 7.007812 -80.4375 "/></g></g></g><g fill="#9f3f73" fill-opacity="1"><g transform="translate(385.960331, 178.675426)"><g><path d="M 4.421875 0 L 10.890625 0 L 10.890625 -1.078125 C 10.675781 -1.078125 10.566406 -3.882812 10.566406 -8.085938 L 10.566406 -72.242188 C 10.566406 -76.445312 10.675781 -79.25 10.890625 -79.25 L 10.890625 -80.328125 L 4.421875 -80.328125 L 4.421875 -79.25 C 4.636719 -79.25 4.746094 -76.445312 4.746094 -72.242188 L 4.746094 -8.085938 C 4.746094 -3.882812 4.636719 -1.078125 4.421875 -1.078125 Z M 4.421875 0 "/></g></g></g><g fill="#9f3f73" fill-opacity="1"><g transform="translate(401.162558, 178.675426)"><g><path d="M 51.109375 -2.046875 C 49.816406 -1.726562 44.960938 -1.507812 39.140625 -1.507812 L 12.9375 -1.507812 L 53.910156 -80.328125 L 12.832031 -80.328125 L 12.722656 -79.574219 C 12.617188 -79.144531 12.398438 -78.710938 12.292969 -78.28125 L 13.15625 -78.28125 L 13.695312 -78.386719 C 15.527344 -78.605469 20.054688 -78.820312 25.230469 -78.820312 L 46.472656 -78.820312 L 5.714844 0 L 52.402344 0 L 52.511719 -0.753906 C 52.617188 -1.1875 52.726562 -1.726562 52.832031 -2.15625 L 51.433594 -2.15625 Z M 51.109375 -2.046875 "/></g></g></g><g fill="#9f3f73" fill-opacity="1"><g transform="translate(459.383852, 178.675426)"><g><path d="M 6.144531 -1.078125 L 6.039062 -1.078125 C 5.824219 -1.078125 5.824219 -4.421875 5.929688 -9.488281 L 8.085938 -72.132812 L 33.425781 0.648438 L 34.933594 0.648438 L 60.164062 -74.613281 L 62.429688 -4.421875 C 62.429688 -2.265625 62.429688 -0.96875 62.324219 -0.96875 L 62.214844 -0.96875 L 62.214844 0.109375 L 68.683594 0.109375 L 68.683594 -0.96875 C 68.574219 -0.96875 68.46875 -2.046875 68.359375 -3.882812 L 65.558594 -75.800781 C 65.558594 -77.847656 65.558594 -79.035156 65.664062 -79.035156 L 65.664062 -80.113281 L 60.058594 -80.113281 L 36.011719 -7.546875 L 11 -80.328125 L 6.578125 -80.328125 L 6.578125 -80.222656 L 6.253906 -80.222656 L 6.253906 -79.144531 L 6.363281 -79.144531 C 6.46875 -79.144531 6.46875 -77.957031 6.46875 -76.015625 L 3.988281 -3.125 C 3.882812 -1.832031 3.773438 -1.078125 3.667969 -1.078125 L 3.558594 -1.078125 L 3.558594 0 L 6.144531 0 Z M 6.144531 -1.078125 "/></g></g></g><g fill="#9f3f73" fill-opacity="1"><g transform="translate(528.063417, 178.675426)"><g><path d="M 42.375 -8.085938 C 43.5625 -3.882812 44.421875 -1.078125 44.316406 -1.078125 L 44.421875 -1.078125 L 44.53125 -0.753906 L 44.53125 0 L 51.324219 0 L 51.324219 -1.078125 L 51.214844 -1.078125 C 51 -1.078125 49.921875 -3.882812 48.628906 -8.085938 L 25.769531 -82.160156 L 24.367188 -82.160156 L 3.449219 -8.085938 C 2.265625 -3.882812 1.402344 -1.078125 1.1875 -1.078125 L 1.1875 0 L 3.667969 0 L 3.667969 -1.078125 L 3.558594 -1.078125 C 3.558594 -1.078125 4.421875 -4.527344 5.824219 -9.703125 L 15.851562 -46.148438 L 31.269531 -46.148438 Z M 23.398438 -73.320312 L 30.835938 -47.660156 L 16.28125 -47.660156 Z M 23.398438 -73.320312 "/></g></g></g><g fill="#9f3f73" fill-opacity="1"><g transform="translate(580.893851, 178.675426)"><g><path d="M 61.027344 -78.171875 C 60.921875 -78.605469 60.921875 -79.144531 60.8125 -79.574219 L 60.8125 -80.328125 L 2.910156 -80.328125 L 2.804688 -79.574219 C 2.804688 -79.144531 2.695312 -78.605469 2.695312 -78.171875 L 3.558594 -78.171875 L 3.988281 -78.28125 C 5.714844 -78.605469 10.351562 -78.820312 15.527344 -78.820312 L 28.898438 -78.820312 L 28.898438 -8.085938 C 28.898438 -3.882812 28.789062 -1.078125 28.679688 -1.078125 L 28.574219 -1.078125 L 28.574219 0 L 35.042969 0 C 35.152344 0 35.152344 -0.214844 35.042969 -0.539062 C 35.152344 -0.863281 35.152344 -1.078125 35.042969 -1.078125 C 34.933594 -1.078125 34.71875 -3.882812 34.71875 -8.085938 L 34.71875 -78.820312 L 48.199219 -78.820312 C 53.371094 -78.820312 57.902344 -78.605469 59.625 -78.28125 L 60.164062 -78.171875 Z M 61.027344 -78.171875 "/></g></g></g><g fill="#9f3f73" fill-opacity="1"><g transform="translate(644.506007, 178.675426)"><g><path d="M 32.886719 -44.53125 L 32.886719 -46.6875 L 31.808594 -46.6875 C 31.054688 -46.472656 26.847656 -46.363281 21.347656 -46.363281 L 10.566406 -46.363281 L 10.566406 -78.710938 L 25.015625 -78.710938 C 31.484375 -78.710938 36.769531 -78.496094 38.386719 -78.171875 L 39.570312 -78.171875 L 39.570312 -80.222656 L 4.3125 -80.222656 L 4.3125 -79.144531 L 4.421875 -79.144531 C 4.527344 -79.144531 4.636719 -76.339844 4.636719 -72.132812 L 4.636719 -7.980469 C 4.636719 -3.773438 4.527344 -0.96875 4.421875 -0.96875 L 4.3125 -0.96875 L 4.3125 0.109375 L 40.109375 0.109375 L 40.328125 -0.753906 C 40.328125 -1.1875 40.433594 -1.617188 40.542969 -2.046875 L 39.785156 -2.046875 L 39.246094 -1.941406 C 38.167969 -1.726562 35.582031 -1.507812 32.238281 -1.402344 L 10.566406 -1.402344 L 10.566406 -44.960938 L 21.347656 -44.960938 C 26.847656 -44.960938 31.054688 -44.855469 31.808594 -44.640625 L 32.132812 -44.53125 Z M 32.886719 -44.53125 "/></g></g></g><path stroke-linecap="butt" transform="matrix(0.929236, 0, 0, 0.929236, 151.692681, 87.962344)" fill="none" stroke-linejoin="miter" d="M 140.625781 93.464068 C 149.331692 102.052274 156.175353 107.735708 159.075922 107.735708 C 167.084015 107.735708 174.743199 105.066344 178.106177 101.236752 L 177.526064 100.774343 C 176.016927 102.514684 168.942061 103.674912 159.656036 103.674912 C 154.901625 103.674912 149.096283 99.614115 142.95044 93.581772 C 166.154992 93.232863 178.106177 73.160085 178.106177 49.833625 C 178.106177 26.162459 165.923787 5.971977 142.366123 5.971977 C 118.694957 5.971977 106.512567 26.162459 106.512567 49.833625 C 106.512567 72.811176 118.114843 92.535045 140.625781 93.464068 Z M 142.366123 7.481113 C 161.396378 7.481113 171.262516 26.860277 171.262516 49.720124 C 171.262516 72.462267 161.396378 91.841431 142.366123 91.841431 C 123.340071 91.841431 113.473933 72.462267 113.473933 49.720124 C 113.473933 26.860277 123.340071 7.481113 142.366123 7.481113 Z M 191.331091 6.43859 L 191.095682 6.552091 L 190.750977 6.552091 L 190.750977 7.712318 L 190.864477 7.712318 C 191.095682 7.712318 191.213386 10.730591 191.213386 15.258001 L 191.213386 65.84981 C 191.213386 82.555406 198.405957 93.581772 216.973802 93.581772 C 234.843829 93.581772 241.805195 84.064543 241.805195 69.792903 L 241.805195 16.418229 C 241.805195 11.197205 241.922899 7.712318 242.154104 7.712318 L 242.267605 7.712318 C 242.154104 7.712318 242.154104 7.481113 242.267605 7.132204 C 242.154104 6.901 242.154104 6.669795 242.267605 6.552091 L 241.922899 6.552091 L 241.922899 6.43859 L 239.715945 6.43859 L 239.715945 7.598818 C 239.947149 7.598818 240.064854 9.919273 240.064854 13.51766 L 239.947149 69.095085 C 239.947149 82.324201 233.797102 91.261317 218.016325 91.261317 C 203.282276 91.261317 197.594638 81.512883 197.594638 67.010038 L 197.594638 10.499387 C 197.594638 8.641341 197.712342 7.598818 197.825843 7.598818 L 197.943547 7.598818 L 197.943547 6.43859 Z M 252.24304 93.001658 L 259.204405 93.001658 L 259.204405 91.841431 C 258.973201 91.841431 258.8597 88.823158 258.8597 84.295748 L 258.8597 15.258001 C 258.8597 10.730591 258.973201 7.712318 259.204405 7.712318 L 259.204405 6.552091 L 252.24304 6.552091 L 252.24304 7.712318 C 252.474245 7.712318 252.591949 10.730591 252.591949 15.258001 L 252.591949 84.295748 C 252.591949 88.823158 252.474245 91.841431 252.24304 91.841431 Z M 318.84683 90.794704 C 317.455398 91.143613 312.234374 91.374818 305.966622 91.374818 L 277.772251 91.374818 L 321.865104 6.552091 L 277.654547 6.552091 L 277.536842 7.367613 C 277.423342 7.830022 277.192137 8.292432 277.074433 8.759045 L 278.003456 8.759045 L 278.583569 8.641341 C 280.555116 8.410136 285.427231 8.178931 290.997164 8.178931 L 313.857011 8.178931 L 269.995363 93.001658 L 320.238263 93.001658 L 320.355967 92.186136 C 320.473671 91.723727 320.587172 91.143613 320.704876 90.681203 L 319.195739 90.681203 Z M 333.114267 91.841431 L 333.000766 91.841431 C 332.769562 91.841431 332.769562 88.243044 332.883062 82.790815 L 335.203517 15.371502 L 362.47307 93.695273 L 364.095707 93.695273 L 391.247555 12.702138 L 393.685715 88.243044 C 393.685715 90.563499 393.685715 91.954931 393.56801 91.954931 L 393.45451 91.954931 L 393.45451 93.115159 L 400.415876 93.115159 L 400.415876 91.954931 C 400.298171 91.954931 400.184671 90.794704 400.066967 88.823158 L 397.052897 11.42841 C 397.052897 9.221455 397.052897 7.947727 397.166398 7.947727 L 397.166398 6.787499 L 391.134055 6.787499 L 365.255935 84.875861 L 338.335291 6.552091 L 333.58088 6.552091 L 333.58088 6.669795 L 333.231971 6.669795 L 333.231971 7.830022 L 333.349675 7.830022 C 333.463176 7.830022 333.463176 9.107954 333.463176 11.197205 L 330.793812 89.634476 C 330.680311 91.025908 330.562607 91.841431 330.444903 91.841431 L 330.331402 91.841431 L 330.331402 93.001658 L 333.114267 93.001658 Z M 446.013661 84.295748 C 447.291593 88.823158 448.216412 91.841431 448.102912 91.841431 L 448.216412 91.841431 L 448.334116 92.186136 L 448.334116 93.001658 L 455.644391 93.001658 L 455.644391 91.841431 L 455.526687 91.841431 C 455.295482 91.841431 454.135254 88.823158 452.743822 84.295748 L 428.143634 4.580544 L 426.634497 4.580544 L 404.123559 84.295748 C 402.849831 88.823158 401.920808 91.841431 401.689604 91.841431 L 401.689604 93.001658 L 404.354764 93.001658 L 404.354764 91.841431 L 404.241264 91.841431 C 404.241264 91.841431 405.170286 88.125339 406.675219 82.555406 L 417.470381 43.338872 L 434.062476 43.338872 Z M 425.591974 14.097774 L 433.595863 41.712032 L 417.93279 41.712032 Z M 522.941796 8.872546 C 522.824092 8.410136 522.824092 7.830022 522.710591 7.367613 L 522.710591 6.552091 L 460.398802 6.552091 L 460.281098 7.367613 C 460.281098 7.830022 460.167597 8.410136 460.167597 8.872546 L 461.092416 8.872546 L 461.55903 8.759045 C 463.412872 8.410136 468.402691 8.178931 473.972624 8.178931 L 488.361969 8.178931 L 488.361969 84.295748 C 488.361969 88.823158 488.248468 91.841431 488.130764 91.841431 L 488.01306 91.841431 L 488.01306 93.001658 L 494.974425 93.001658 C 495.09213 93.001658 495.09213 92.76625 494.974425 92.421545 C 495.09213 92.072636 495.09213 91.841431 494.974425 91.841431 C 494.860925 91.841431 494.62972 88.823158 494.62972 84.295748 L 494.62972 8.178931 L 509.132565 8.178931 C 514.702498 8.178931 519.574614 8.410136 521.432659 8.759045 L 522.012773 8.872546 Z M 561.111603 45.079214 L 561.111603 42.758759 L 559.951375 42.758759 C 559.140056 42.989963 554.612647 43.103464 548.698008 43.103464 L 537.091528 43.103464 L 537.091528 8.292432 L 552.6411 8.292432 C 559.602466 8.292432 565.290104 8.527841 567.030445 8.872546 L 568.308377 8.872546 L 568.308377 6.669795 L 530.361367 6.669795 L 530.361367 7.830022 L 530.479072 7.830022 C 530.596776 7.830022 530.710276 10.848296 530.710276 15.371502 L 530.710276 84.413452 C 530.710276 88.940862 530.596776 91.954931 530.479072 91.954931 L 530.361367 91.954931 L 530.361367 93.115159 L 568.888491 93.115159 L 569.119695 92.186136 C 569.119695 91.723727 569.233196 91.261317 569.3509 90.794704 L 568.539582 90.794704 L 567.959468 90.912408 C 566.79924 91.143613 564.012172 91.374818 560.417988 91.492522 L 537.091528 91.492522 L 537.091528 44.612601 L 548.698008 44.612601 C 554.612647 44.612601 559.140056 44.730305 559.951375 44.96151 L 560.300284 45.079214 Z M 561.111603 45.079214 " stroke="#f28f69" stroke-width="4.4559" stroke-opacity="1" stroke-miterlimit="4"/></svg>