<svg xmlns="http://www.w3.org/2000/svg" xmlns:xlink="http://www.w3.org/1999/xlink" width="1600" zoomAndPan="magnify" viewBox="0 0 1200 637.499986" height="850" preserveAspectRatio="xMidYMid meet" version="1.0"><defs><filter x="0%" y="0%" width="100%" height="100%" id="id1"><feColorMatrix values="0 0 0 0 1 0 0 0 0 1 0 0 0 0 1 0 0 0 1 0" color-interpolation-filters="sRGB"/></filter><g/><clipPath id="id2"><path d="M 0.46875 0 L 1199.527344 0 L 1199.527344 637 L 0.46875 637 Z M 0.46875 0 " clip-rule="nonzero"/></clipPath><mask id="id3"><g filter="url(#id1)"><rect x="-120" width="1440" fill="#000000" y="-63.749999" height="764.999983" fill-opacity="0.298"/></g></mask><clipPath id="id4"><path d="M 0.78125 0.238281 L 235.78125 0.238281 L 235.78125 143.648438 L 0.78125 143.648438 Z M 0.78125 0.238281 " clip-rule="nonzero"/></clipPath><clipPath id="id5"><rect x="0" width="237" y="0" height="144"/></clipPath><mask id="id6"><g filter="url(#id1)"><rect x="-120" width="1440" fill="#000000" y="-63.749999" height="764.999983" fill-opacity="0.298"/></g></mask><clipPath id="id7"><path d="M 0.777344 0.292969 L 235.820312 0.292969 L 235.820312 143.777344 L 0.777344 143.777344 Z M 0.777344 0.292969 " clip-rule="nonzero"/></clipPath><clipPath id="id8"><rect x="0" width="236" y="0" height="144"/></clipPath><mask id="id9"><g filter="url(#id1)"><rect x="-120" width="1440" fill="#000000" y="-63.749999" height="764.999983" fill-opacity="0.8"/></g></mask><clipPath id="id10"><path d="M 22 0.699219 L 36 0.699219 L 36 16 L 22 16 Z M 22 0.699219 " clip-rule="nonzero"/></clipPath><clipPath id="id11"><path d="M 0.421875 63 L 12 63 L 12 75 L 0.421875 75 Z M 0.421875 63 " clip-rule="nonzero"/></clipPath><clipPath id="id12"><path d="M 41 85 L 55 85 L 55 102.621094 L 41 102.621094 Z M 41 85 " clip-rule="nonzero"/></clipPath><clipPath id="id13"><rect x="0" width="101" y="0" height="103"/></clipPath><mask id="id14"><g filter="url(#id1)"><rect x="-120" width="1440" fill="#000000" y="-63.749999" height="764.999983" fill-opacity="0.8"/></g></mask><clipPath id="id15"><path d="M 1.046875 64 L 12 64 L 12 75 L 1.046875 75 Z M 1.046875 64 " clip-rule="nonzero"/></clipPath><clipPath id="id16"><path d="M 90 58 L 100.71875 58 L 100.71875 70 L 90 70 Z M 90 58 " clip-rule="nonzero"/></clipPath><clipPath id="id17"><path d="M 42 85 L 55 85 L 55 102.941406 L 42 102.941406 Z M 42 85 " clip-rule="nonzero"/></clipPath><clipPath id="id18"><rect x="0" width="101" y="0" height="103"/></clipPath><mask id="id19"><g filter="url(#id1)"><rect x="-120" width="1440" fill="#000000" y="-63.749999" height="764.999983" fill-opacity="0.2"/></g></mask><clipPath id="id20"><path d="M 0.820312 0.195312 L 344.050781 0.195312 L 344.050781 449 L 0.820312 449 Z M 0.820312 0.195312 " clip-rule="nonzero"/></clipPath><clipPath id="id21"><rect x="0" width="345" y="0" height="449"/></clipPath><clipPath id="id22"><path d="M 835 522 L 1032 522 L 1032 637 L 835 637 Z M 835 522 " clip-rule="nonzero"/></clipPath></defs><g clip-path="url(#id2)"><path fill="#ffffff" d="M 0.46875 0 L 1199.53125 0 L 1199.53125 644.496094 L 0.46875 644.496094 Z M 0.46875 0 " fill-opacity="1" fill-rule="nonzero"/><path fill="#ffffff" d="M 0.46875 0 L 1199.53125 0 L 1199.53125 637 L 0.46875 637 Z M 0.46875 0 " fill-opacity="1" fill-rule="nonzero"/><path fill="#ffffff" d="M 0.46875 0 L 1199.53125 0 L 1199.53125 637 L 0.46875 637 Z M 0.46875 0 " fill-opacity="1" fill-rule="nonzero"/><path fill="#ffffff" d="M 0.46875 0 L 1199.53125 0 L 1199.53125 637 L 0.46875 637 Z M 0.46875 0 " fill-opacity="1" fill-rule="nonzero"/></g><g mask="url(#id3)"><g transform="matrix(1, 0, 0, 1, 928, 0)"><g clip-path="url(#id5)"><g clip-path="url(#id4)"><path fill="#f28f69" d="M 20.75 0.339844 L 235.777344 0.339844 L 235.777344 141.511719 C 235.777344 141.511719 188.960938 151.503906 186.058594 127.769531 C 183.160156 104.03125 179.429688 94.453125 157.472656 93.207031 C 135.515625 91.957031 100.296875 86.125 94.90625 49.480469 C 89.515625 12.832031 47.355469 27.5625 38.980469 34.484375 C 8.5 59.675781 -19.023438 0.339844 20.75 0.339844 Z M 20.75 0.339844 " fill-opacity="1" fill-rule="nonzero"/></g></g></g></g><g mask="url(#id6)"><g transform="matrix(1, 0, 0, 1, 33, 493)"><g clip-path="url(#id8)"><g clip-path="url(#id7)"><path fill="#f28f69" d="M 215.808594 143.660156 L 0.78125 143.660156 L 0.78125 2.484375 C 0.78125 2.484375 47.597656 -7.507812 50.5 16.230469 C 53.402344 39.964844 57.128906 49.542969 79.085938 50.792969 C 101.046875 52.042969 136.261719 57.871094 141.652344 94.519531 C 147.042969 131.164062 189.203125 116.433594 197.578125 109.511719 C 228.058594 84.324219 255.582031 143.660156 215.808594 143.660156 Z M 215.808594 143.660156 " fill-opacity="1" fill-rule="nonzero"/></g></g></g></g><g mask="url(#id9)"><g transform="matrix(1, 0, 0, 1, 986, 24)"><g clip-path="url(#id13)"><g clip-path="url(#id10)"><path fill="#f28f69" d="M 33.007812 1.605469 C 31.789062 0.957031 30.304688 0.632812 28.949219 1.074219 C 27.59375 1.515625 26.640625 2.316406 25.804688 3.503906 L 23.078125 7.34375 C 22.324219 8.410156 22.214844 10.214844 22.546875 11.421875 C 22.878906 12.628906 23.828125 13.984375 24.96875 14.589844 C 26.191406 15.238281 27.671875 15.5625 29.027344 15.121094 C 30.382812 14.679688 31.339844 13.867188 32.175781 12.6875 L 34.898438 8.851562 C 35.652344 7.792969 35.761719 5.976562 35.429688 4.769531 C 35.101562 3.5625 34.144531 2.210938 33.007812 1.605469 Z M 33.007812 1.605469 " fill-opacity="1" fill-rule="nonzero"/></g><path fill="#f28f69" d="M 47.792969 13.121094 C 50.550781 13.121094 53.1875 10.683594 53.0625 7.824219 C 52.933594 4.964844 50.746094 2.527344 47.792969 2.527344 C 45.039062 2.527344 42.398438 4.960938 42.527344 7.824219 C 42.652344 10.683594 44.839844 13.121094 47.792969 13.121094 Z M 47.792969 13.121094 " fill-opacity="1" fill-rule="nonzero"/><path fill="#f28f69" d="M 76.140625 13.121094 C 78.894531 13.121094 81.535156 10.683594 81.40625 7.824219 C 81.277344 4.964844 79.089844 2.527344 76.140625 2.527344 C 73.386719 2.527344 70.746094 4.960938 70.871094 7.824219 C 71 10.683594 73.1875 13.121094 76.140625 13.121094 Z M 76.140625 13.121094 " fill-opacity="1" fill-rule="nonzero"/><path fill="#f28f69" d="M 18.359375 34.496094 C 21.113281 34.496094 23.753906 32.0625 23.625 29.199219 C 23.496094 26.339844 21.308594 23.90625 18.359375 23.90625 C 15.601562 23.90625 12.964844 26.339844 13.089844 29.199219 C 13.21875 32.058594 15.40625 34.496094 18.359375 34.496094 Z M 18.359375 34.496094 " fill-opacity="1" fill-rule="nonzero"/><path fill="#f28f69" d="M 49.789062 27.007812 C 49.664062 24.136719 47.476562 21.710938 44.523438 21.710938 C 41.765625 21.710938 39.128906 24.148438 39.257812 27.007812 C 39.382812 29.871094 41.570312 32.304688 44.523438 32.304688 C 47.277344 32.304688 49.917969 29.867188 49.789062 27.007812 Z M 49.789062 27.007812 " fill-opacity="1" fill-rule="nonzero"/><path fill="#f28f69" d="M 68.871094 27.007812 C 68.742188 24.136719 66.554688 21.710938 63.601562 21.710938 C 60.847656 21.710938 58.207031 24.148438 58.335938 27.007812 C 58.464844 29.871094 60.648438 32.304688 63.601562 32.304688 C 66.351562 32.304688 69.003906 29.867188 68.871094 27.007812 Z M 68.871094 27.007812 " fill-opacity="1" fill-rule="nonzero"/><path fill="#f28f69" d="M 89.582031 27.007812 C 89.457031 24.136719 87.269531 21.710938 84.316406 21.710938 C 81.5625 21.710938 78.921875 24.148438 79.050781 27.007812 C 79.175781 29.871094 81.363281 32.304688 84.316406 32.304688 C 87.070312 32.304688 89.707031 29.867188 89.582031 27.007812 Z M 89.582031 27.007812 " fill-opacity="1" fill-rule="nonzero"/><path fill="#f28f69" d="M 6.910156 50.941406 C 9.667969 50.941406 12.304688 48.503906 12.175781 45.644531 C 12.050781 42.785156 9.863281 40.347656 6.910156 40.347656 C 4.15625 40.347656 1.515625 42.785156 1.644531 45.644531 C 1.769531 48.507812 3.957031 50.941406 6.910156 50.941406 Z M 6.910156 50.941406 " fill-opacity="1" fill-rule="nonzero"/><path fill="#f28f69" d="M 29.261719 39.253906 C 26.503906 39.253906 23.867188 41.6875 23.992188 44.550781 C 24.121094 47.410156 26.308594 49.84375 29.261719 49.84375 C 32.015625 49.84375 34.652344 47.410156 34.527344 44.550781 C 34.398438 41.691406 32.214844 39.253906 29.261719 39.253906 Z M 29.261719 39.253906 " fill-opacity="1" fill-rule="nonzero"/><path fill="#f28f69" d="M 45.25 48.933594 C 45.382812 51.804688 47.566406 54.230469 50.519531 54.230469 C 53.273438 54.230469 55.914062 51.796875 55.789062 48.933594 C 55.660156 46.074219 53.472656 43.636719 50.519531 43.636719 C 47.769531 43.636719 45.125 46.074219 45.25 48.933594 Z M 45.25 48.933594 " fill-opacity="1" fill-rule="nonzero"/><path fill="#f28f69" d="M 72.324219 40.347656 C 69.570312 40.347656 66.929688 42.785156 67.058594 45.644531 C 67.183594 48.507812 69.371094 50.941406 72.324219 50.941406 C 75.078125 50.941406 77.71875 48.503906 77.589844 45.644531 C 77.464844 42.785156 75.277344 40.347656 72.324219 40.347656 Z M 72.324219 40.347656 " fill-opacity="1" fill-rule="nonzero"/><g clip-path="url(#id11)"><path fill="#f28f69" d="M 11.085938 69.214844 C 10.960938 66.34375 8.773438 63.917969 5.820312 63.917969 C 3.066406 63.917969 0.425781 66.355469 0.554688 69.214844 C 0.679688 72.074219 2.867188 74.511719 5.820312 74.511719 C 8.574219 74.511719 11.214844 72.078125 11.085938 69.214844 Z M 11.085938 69.214844 " fill-opacity="1" fill-rule="nonzero"/></g><path fill="#f28f69" d="M 27.082031 63.917969 C 24.324219 63.917969 21.683594 66.355469 21.8125 69.214844 C 21.941406 72.074219 24.128906 74.511719 27.082031 74.511719 C 29.835938 74.511719 32.472656 72.078125 32.347656 69.214844 C 32.21875 66.355469 30.03125 63.917969 27.082031 63.917969 Z M 27.082031 63.917969 " fill-opacity="1" fill-rule="nonzero"/><path fill="#f28f69" d="M 53.246094 66.660156 C 50.488281 66.660156 47.851562 69.097656 47.980469 71.957031 C 48.105469 74.816406 50.292969 77.253906 53.246094 77.253906 C 56 77.253906 58.640625 74.816406 58.511719 71.957031 C 58.386719 69.09375 56.199219 66.660156 53.246094 66.660156 Z M 53.246094 66.660156 " fill-opacity="1" fill-rule="nonzero"/><path fill="#f28f69" d="M 67.964844 67.386719 C 70.71875 67.386719 73.355469 64.949219 73.230469 62.089844 C 73.101562 59.226562 70.917969 56.792969 67.964844 56.792969 C 65.207031 56.792969 62.566406 59.230469 62.695312 62.089844 C 62.824219 64.949219 65.011719 67.386719 67.964844 67.386719 Z M 67.964844 67.386719 " fill-opacity="1" fill-rule="nonzero"/><path fill="#f28f69" d="M 99.941406 63.734375 C 99.8125 60.863281 97.625 58.4375 94.671875 58.4375 C 91.917969 58.4375 89.277344 60.875 89.40625 63.734375 C 89.535156 66.597656 91.722656 69.03125 94.671875 69.03125 C 97.429688 69.03125 100.066406 66.59375 99.941406 63.734375 Z M 99.941406 63.734375 " fill-opacity="1" fill-rule="nonzero"/><path fill="#f28f69" d="M 97.214844 44 C 97.089844 41.132812 94.902344 38.703125 91.949219 38.703125 C 89.191406 38.703125 86.554688 41.140625 86.679688 44 C 86.808594 46.863281 88.996094 49.296875 91.949219 49.296875 C 94.703125 49.296875 97.34375 46.859375 97.214844 44 Z M 97.214844 44 " fill-opacity="1" fill-rule="nonzero"/><path fill="#f28f69" d="M 20.230469 82.027344 C 18.769531 81.695312 17.523438 81.941406 16.167969 82.5625 C 14.175781 83.503906 12.417969 84.773438 10.898438 86.375 C 8.976562 88.363281 8.773438 91.90625 10.898438 93.863281 C 12.972656 95.78125 16.296875 95.988281 18.347656 93.863281 C 18.65625 93.539062 18.976562 93.238281 19.3125 92.945312 C 20 92.46875 20.726562 92.050781 21.488281 91.699219 C 22.617188 91.183594 23.589844 89.691406 23.90625 88.535156 C 24.261719 87.269531 24.097656 85.582031 23.375 84.453125 C 22.65625 83.328125 21.582031 82.335938 20.230469 82.027344 Z M 20.230469 82.027344 " fill-opacity="1" fill-rule="nonzero"/><g clip-path="url(#id12)"><path fill="#f28f69" d="M 52.519531 87.289062 C 50.292969 85.230469 47.300781 85.347656 45.070312 87.289062 C 41.558594 90.339844 40.945312 95.914062 43.230469 99.855469 C 44.617188 102.25 48.046875 103.300781 50.4375 101.753906 C 52.738281 100.257812 53.730469 97.304688 52.484375 94.816406 L 52.519531 94.785156 C 54.613281 92.957031 54.511719 89.125 52.519531 87.289062 Z M 52.519531 87.289062 " fill-opacity="1" fill-rule="nonzero"/></g><path fill="#f28f69" d="M 69.054688 80.910156 C 66.296875 80.910156 63.660156 83.347656 63.785156 86.207031 C 63.914062 89.070312 66.101562 91.503906 69.054688 91.503906 C 71.808594 91.503906 74.445312 89.066406 74.320312 86.207031 C 74.191406 83.347656 72.011719 80.910156 69.054688 80.910156 Z M 69.054688 80.910156 " fill-opacity="1" fill-rule="nonzero"/></g></g></g><g mask="url(#id14)"><g transform="matrix(1, 0, 0, 1, 123, 481)"><g clip-path="url(#id18)"><path fill="#f28f69" d="M 33.636719 1.78125 C 32.414062 1.132812 30.933594 0.804688 29.578125 1.246094 C 28.222656 1.6875 27.265625 2.492188 26.429688 3.679688 L 23.703125 7.519531 C 22.949219 8.585938 22.84375 10.390625 23.171875 11.597656 C 23.503906 12.804688 24.453125 14.160156 25.59375 14.761719 C 26.816406 15.414062 28.296875 15.738281 29.652344 15.296875 C 31.007812 14.855469 31.964844 14.042969 32.800781 12.863281 L 35.527344 9.027344 C 36.277344 7.96875 36.386719 6.152344 36.058594 4.945312 C 35.726562 3.738281 34.769531 2.382812 33.636719 1.78125 Z M 33.636719 1.78125 " fill-opacity="1" fill-rule="nonzero"/><path fill="#f28f69" d="M 48.421875 13.296875 C 51.175781 13.296875 53.816406 10.859375 53.6875 8 C 53.558594 5.140625 51.371094 2.699219 48.421875 2.699219 C 45.667969 2.699219 43.027344 5.136719 43.152344 8 C 43.28125 10.859375 45.46875 13.296875 48.421875 13.296875 Z M 48.421875 13.296875 " fill-opacity="1" fill-rule="nonzero"/><path fill="#f28f69" d="M 76.765625 13.296875 C 79.523438 13.296875 82.160156 10.859375 82.035156 8 C 81.90625 5.140625 79.71875 2.699219 76.765625 2.699219 C 74.011719 2.699219 71.371094 5.136719 71.5 8 C 71.625 10.859375 73.8125 13.296875 76.765625 13.296875 Z M 76.765625 13.296875 " fill-opacity="1" fill-rule="nonzero"/><path fill="#f28f69" d="M 18.984375 34.671875 C 21.742188 34.671875 24.378906 32.238281 24.25 29.375 C 24.125 26.515625 21.9375 24.078125 18.984375 24.078125 C 16.230469 24.078125 13.589844 26.515625 13.71875 29.375 C 13.84375 32.234375 16.03125 34.671875 18.984375 34.671875 Z M 18.984375 34.671875 " fill-opacity="1" fill-rule="nonzero"/><path fill="#f28f69" d="M 50.417969 27.183594 C 50.289062 24.3125 48.101562 21.886719 45.148438 21.886719 C 42.394531 21.886719 39.757812 24.320312 39.882812 27.183594 C 40.011719 30.042969 42.199219 32.480469 45.148438 32.480469 C 47.90625 32.480469 50.542969 30.042969 50.417969 27.183594 Z M 50.417969 27.183594 " fill-opacity="1" fill-rule="nonzero"/><path fill="#f28f69" d="M 69.496094 27.183594 C 69.367188 24.3125 67.183594 21.886719 64.226562 21.886719 C 61.472656 21.886719 58.835938 24.320312 58.960938 27.183594 C 59.089844 30.042969 61.277344 32.480469 64.226562 32.480469 C 66.976562 32.480469 69.628906 30.042969 69.496094 27.183594 Z M 69.496094 27.183594 " fill-opacity="1" fill-rule="nonzero"/><path fill="#f28f69" d="M 90.210938 27.183594 C 90.082031 24.3125 87.894531 21.886719 84.941406 21.886719 C 82.1875 21.886719 79.550781 24.320312 79.675781 27.183594 C 79.804688 30.042969 81.992188 32.480469 84.941406 32.480469 C 87.699219 32.480469 90.335938 30.042969 90.210938 27.183594 Z M 90.210938 27.183594 " fill-opacity="1" fill-rule="nonzero"/><path fill="#f28f69" d="M 7.539062 51.117188 C 10.292969 51.117188 12.933594 48.679688 12.804688 45.820312 C 12.675781 42.960938 10.488281 40.523438 7.539062 40.523438 C 4.78125 40.523438 2.144531 42.960938 2.269531 45.820312 C 2.398438 48.679688 4.585938 51.117188 7.539062 51.117188 Z M 7.539062 51.117188 " fill-opacity="1" fill-rule="nonzero"/><path fill="#f28f69" d="M 29.886719 39.425781 C 27.132812 39.425781 24.492188 41.863281 24.621094 44.722656 C 24.746094 47.585938 26.933594 50.019531 29.886719 50.019531 C 32.640625 50.019531 35.28125 47.582031 35.152344 44.722656 C 35.027344 41.863281 32.839844 39.425781 29.886719 39.425781 Z M 29.886719 39.425781 " fill-opacity="1" fill-rule="nonzero"/><path fill="#f28f69" d="M 45.878906 49.109375 C 46.007812 51.980469 48.191406 54.40625 51.144531 54.40625 C 53.902344 54.40625 56.542969 51.96875 56.414062 49.109375 C 56.285156 46.246094 54.101562 43.8125 51.144531 43.8125 C 48.398438 43.8125 45.75 46.25 45.878906 49.109375 Z M 45.878906 49.109375 " fill-opacity="1" fill-rule="nonzero"/><path fill="#f28f69" d="M 72.949219 40.523438 C 70.195312 40.523438 67.558594 42.960938 67.683594 45.820312 C 67.8125 48.679688 70 51.117188 72.949219 51.117188 C 75.707031 51.117188 78.34375 48.679688 78.21875 45.820312 C 78.089844 42.960938 75.902344 40.523438 72.949219 40.523438 Z M 72.949219 40.523438 " fill-opacity="1" fill-rule="nonzero"/><g clip-path="url(#id15)"><path fill="#f28f69" d="M 11.714844 69.390625 C 11.585938 66.519531 9.398438 64.09375 6.449219 64.09375 C 3.691406 64.09375 1.054688 66.53125 1.179688 69.390625 C 1.308594 72.25 3.496094 74.6875 6.449219 74.6875 C 9.203125 74.6875 11.839844 72.25 11.714844 69.390625 Z M 11.714844 69.390625 " fill-opacity="1" fill-rule="nonzero"/></g><path fill="#f28f69" d="M 27.707031 64.09375 C 24.953125 64.09375 22.3125 66.53125 22.4375 69.390625 C 22.566406 72.25 24.753906 74.6875 27.707031 74.6875 C 30.460938 74.6875 33.101562 72.25 32.972656 69.390625 C 32.847656 66.527344 30.660156 64.09375 27.707031 64.09375 Z M 27.707031 64.09375 " fill-opacity="1" fill-rule="nonzero"/><path fill="#f28f69" d="M 53.871094 66.835938 C 51.117188 66.835938 48.476562 69.269531 48.605469 72.128906 C 48.734375 74.988281 50.917969 77.425781 53.871094 77.425781 C 56.625 77.425781 59.265625 74.992188 59.140625 72.128906 C 59.011719 69.269531 56.824219 66.835938 53.871094 66.835938 Z M 53.871094 66.835938 " fill-opacity="1" fill-rule="nonzero"/><path fill="#f28f69" d="M 68.589844 67.5625 C 71.34375 67.5625 73.984375 65.125 73.855469 62.261719 C 73.730469 59.402344 71.542969 56.96875 68.589844 56.96875 C 65.835938 56.96875 63.195312 59.402344 63.324219 62.261719 C 63.449219 65.121094 65.636719 67.5625 68.589844 67.5625 Z M 68.589844 67.5625 " fill-opacity="1" fill-rule="nonzero"/><g clip-path="url(#id16)"><path fill="#f28f69" d="M 100.566406 63.910156 C 100.441406 61.039062 98.253906 58.613281 95.300781 58.613281 C 92.546875 58.613281 89.90625 61.046875 90.035156 63.910156 C 90.160156 66.769531 92.347656 69.203125 95.300781 69.203125 C 98.054688 69.203125 100.695312 66.769531 100.566406 63.910156 Z M 100.566406 63.910156 " fill-opacity="1" fill-rule="nonzero"/></g><path fill="#f28f69" d="M 97.84375 44.175781 C 97.714844 41.304688 95.527344 38.878906 92.574219 38.878906 C 89.820312 38.878906 87.179688 41.316406 87.308594 44.175781 C 87.4375 47.039062 89.621094 49.472656 92.574219 49.472656 C 95.328125 49.472656 97.96875 47.035156 97.84375 44.175781 Z M 97.84375 44.175781 " fill-opacity="1" fill-rule="nonzero"/><path fill="#f28f69" d="M 20.855469 82.203125 C 19.394531 81.867188 18.152344 82.113281 16.796875 82.738281 C 14.804688 83.675781 13.046875 84.949219 11.523438 86.546875 C 9.601562 88.539062 9.398438 92.082031 11.523438 94.039062 C 13.597656 95.953125 16.921875 96.164062 18.972656 94.039062 C 19.28125 93.714844 19.605469 93.414062 19.9375 93.121094 C 20.628906 92.640625 21.351562 92.226562 22.113281 91.875 C 23.246094 91.359375 24.21875 89.863281 24.535156 88.710938 C 24.886719 87.441406 24.726562 85.753906 24.003906 84.628906 C 23.28125 83.503906 22.207031 82.507812 20.855469 82.203125 Z M 20.855469 82.203125 " fill-opacity="1" fill-rule="nonzero"/><g clip-path="url(#id17)"><path fill="#f28f69" d="M 53.148438 87.460938 C 50.917969 85.40625 47.929688 85.523438 45.699219 87.460938 C 42.1875 90.515625 41.574219 96.085938 43.855469 100.027344 C 45.246094 102.421875 48.675781 103.476562 51.0625 101.929688 C 53.363281 100.433594 54.359375 97.480469 53.113281 94.988281 L 53.148438 94.960938 C 55.238281 93.132812 55.140625 89.300781 53.148438 87.460938 Z M 53.148438 87.460938 " fill-opacity="1" fill-rule="nonzero"/></g><path fill="#f28f69" d="M 69.679688 81.085938 C 66.925781 81.085938 64.285156 83.523438 64.414062 86.382812 C 64.539062 89.242188 66.726562 91.679688 69.679688 91.679688 C 72.433594 91.679688 75.074219 89.242188 74.945312 86.382812 C 74.820312 83.523438 72.640625 81.085938 69.679688 81.085938 Z M 69.679688 81.085938 " fill-opacity="1" fill-rule="nonzero"/></g></g></g><g mask="url(#id19)"><g transform="matrix(1, 0, 0, 1, 713, 188)"><g clip-path="url(#id21)"><g clip-path="url(#id20)"><path fill="#cf7666" d="M 12.210938 373.519531 C 19.613281 351.738281 30.527344 329.140625 45.441406 304.734375 C 54.277344 290.277344 57.035156 284.886719 59.628906 277.027344 C 62.382812 268.6875 66.503906 261.402344 69.710938 259.203125 C 71.484375 257.988281 73.5625 257.570312 79.699219 257.191406 C 84.28125 256.914062 88.234375 257.015625 89.363281 257.445312 C 90.417969 257.847656 92.164062 257.957031 93.246094 257.695312 C 97.785156 256.597656 108.144531 251.957031 114.414062 248.222656 C 118.109375 246.015625 122.929688 243.417969 125.121094 242.449219 C 128.996094 240.738281 129.136719 240.570312 130.007812 236.679688 L 130.90625 232.671875 L 126.851562 228.523438 C 117.242188 218.6875 111.839844 206.976562 109.882812 191.734375 C 109.601562 189.558594 108.671875 187.09375 107.601562 185.679688 C 106.605469 184.367188 105.292969 182.101562 104.683594 180.644531 C 103.238281 177.1875 100.75 167.285156 100.738281 164.941406 C 100.730469 163.933594 99.996094 161.722656 99.097656 160.035156 C 97.785156 157.554688 97.613281 156.558594 98.199219 154.894531 C 98.804688 153.183594 99.367188 152.824219 101.480469 152.785156 C 103.933594 152.742188 104.019531 152.644531 103.789062 150.214844 C 103.65625 148.828125 103.515625 142.570312 103.476562 136.3125 C 103.417969 126.75 103.730469 123.253906 105.429688 114.386719 C 106.539062 108.582031 107.171875 103.554688 106.828125 103.214844 C 105.707031 102.09375 71.921875 92.269531 69.191406 92.269531 C 68.175781 92.269531 67.667969 92.742188 67.667969 93.683594 C 68.023438 95.527344 68.757812 99.566406 69.835938 105.117188 L 70.925781 115.757812 C 71.527344 121.613281 72.835938 130.074219 73.835938 134.5625 C 76.378906 145.972656 78.699219 158.472656 78.664062 160.585938 C 78.648438 161.570312 79.261719 165.34375 80.027344 168.980469 C 80.792969 172.613281 82.128906 179.550781 83 184.394531 C 87.320312 208.496094 87.1875 207.515625 86.148438 207.515625 C 85.5 207.515625 84.464844 203.183594 83.089844 194.683594 C 82.117188 188.667969 80.761719 184.027344 79.976562 184.027344 C 79.671875 184.027344 79.429688 184.769531 79.4375 185.679688 C 79.464844 188.914062 82.347656 208.695312 83.417969 213.023438 C 84.574219 217.683594 84.832031 222.21875 84.101562 224.953125 C 83.492188 227.214844 82.863281 227.027344 81.664062 224.21875 L 80.648438 221.832031 L 80.21875 224.769531 C 79.863281 227.199219 79.476562 227.738281 77.992188 227.90625 C 77.003906 228.015625 75.65625 228.59375 74.996094 229.191406 C 73.03125 230.964844 66.300781 230.625 64.191406 228.644531 C 63.234375 227.75 61.726562 227.003906 60.835938 226.992188 C 59.308594 226.972656 59.230469 226.695312 59.421875 221.832031 C 59.535156 219.007812 59.945312 214.382812 60.332031 211.554688 C 61.148438 205.628906 60.738281 176.457031 59.601562 159.804688 C 59.175781 153.546875 58.625 135.136719 58.378906 118.894531 C 58.070312 98.425781 57.675781 89.15625 57.105469 88.699219 C 55.660156 87.546875 48.382812 85.828125 42.78125 85.316406 C 36.261719 84.722656 33.875 83.90625 33.875 82.277344 C 33.875 79.976562 42.09375 71.703125 51.113281 64.925781 C 56.074219 61.199219 60.652344 57.238281 61.292969 56.128906 C 61.929688 55.019531 63.707031 53.539062 65.242188 52.839844 C 66.777344 52.144531 72.664062 47.726562 78.320312 43.027344 C 83.976562 38.328125 91.414062 32.472656 94.847656 30.011719 C 98.28125 27.550781 105.632812 22.269531 111.179688 18.277344 C 116.726562 14.285156 124 9.292969 127.339844 7.1875 C 130.679688 5.082031 134.316406 2.660156 135.414062 1.804688 L 137.417969 0.25 L 147.535156 3.410156 C 191.132812 17.011719 222.175781 27.113281 247.644531 35.996094 C 274.28125 45.285156 282.570312 48.425781 292.40625 52.960938 C 297.886719 55.488281 304.101562 58.125 306.214844 58.816406 C 308.328125 59.511719 310.796875 60.679688 311.699219 61.410156 C 313.140625 62.578125 313.214844 62.890625 312.304688 63.988281 C 310.546875 66.105469 301.105469 70.472656 297.046875 71.046875 C 292.617188 71.671875 283.90625 76.742188 250.671875 98.039062 L 230.566406 110.929688 L 231.023438 115.855469 C 231.273438 118.5625 232.167969 123.660156 233.003906 127.183594 C 234.53125 133.617188 234.65625 141.792969 233.300781 146.886719 C 232.769531 148.890625 232.84375 148.988281 234.496094 148.464844 C 238.980469 147.042969 240.628906 147.171875 242.414062 149.066406 C 244.765625 151.566406 245.453125 159.53125 243.683594 163.761719 C 243.027344 165.332031 242.292969 168.46875 242.054688 170.734375 C 241.058594 180.148438 232.296875 192.800781 225.945312 193.992188 C 224.574219 194.25 223.164062 194.835938 222.8125 195.300781 C 222.460938 195.761719 221.109375 199.539062 219.8125 203.691406 L 217.453125 211.246094 L 221.46875 219.476562 C 223.679688 224 226.054688 229.769531 226.746094 232.296875 C 228.136719 237.371094 228.015625 237.242188 240.664062 247.082031 C 248.054688 252.835938 250.078125 254.867188 256.824219 263.300781 C 258.84375 265.828125 262.648438 269.636719 265.273438 271.769531 C 267.898438 273.898438 272.859375 278.171875 276.292969 281.261719 C 281.5625 286.003906 282.824219 286.804688 284.371094 286.414062 C 291.128906 284.695312 291.464844 284.796875 296.835938 290.203125 C 299.589844 292.972656 303.699219 296.839844 305.96875 298.796875 C 313.980469 305.710938 319.558594 318.566406 333.453125 362.105469 C 336.6875 372.238281 339.703125 382.972656 340.152344 385.964844 C 343.585938 406.308594 343.582031 426.585938 343.582031 447.375 L 344.046875 449.027344 L 0.816406 449.027344 C 0.816406 417.039062 5.925781 391.949219 12.207031 373.515625 Z M 80.277344 215.046875 C 79.976562 209.914062 78.683594 207.992188 78.699219 212.699219 C 78.710938 216.273438 79.328125 219.265625 80.058594 219.269531 C 80.316406 219.269531 80.414062 217.371094 80.277344 215.046875 Z M 87.929688 224.34375 C 86.894531 221.308594 85.542969 211.394531 86 210.164062 C 86.730469 208.1875 87.089844 209.101562 88.636719 216.886719 C 89.664062 222.042969 89.785156 223.890625 89.136719 224.535156 C 88.492188 225.179688 88.199219 225.132812 87.929688 224.34375 Z M 87.929688 224.34375 " fill-opacity="1" fill-rule="nonzero"/></g></g></g></g><g clip-path="url(#id22)"><path fill="#000000" d="M 874.660156 791.011719 C 874.261719 791.011719 873.863281 790.816406 873.605469 790.46875 C 867.707031 782.140625 856.75 783.183594 856.632812 783.195312 C 855.925781 783.273438 855.296875 782.757812 855.21875 782.050781 C 855.144531 781.339844 855.65625 780.710938 856.363281 780.632812 C 856.878906 780.582031 868.941406 779.4375 875.703125 788.988281 C 876.113281 789.566406 875.972656 790.367188 875.394531 790.777344 C 875.175781 790.933594 874.917969 791.011719 874.660156 791.011719 Z M 866.316406 798.632812 C 866.894531 798.21875 867.035156 797.421875 866.625 796.84375 C 859.863281 787.300781 847.800781 788.433594 847.285156 788.488281 C 846.578125 788.5625 846.066406 789.195312 846.140625 789.902344 C 846.21875 790.609375 846.835938 791.101562 847.558594 791.046875 C 847.671875 791.035156 858.628906 789.992188 864.53125 798.324219 C 864.785156 798.683594 865.171875 798.863281 865.582031 798.863281 C 865.839844 798.875 866.097656 798.796875 866.316406 798.632812 Z M 858.304688 806.960938 C 858.886719 806.546875 859.027344 805.75 858.613281 805.171875 C 851.851562 795.632812 839.789062 796.765625 839.277344 796.816406 C 838.570312 796.894531 838.054688 797.523438 838.132812 798.230469 C 838.210938 798.941406 838.828125 799.46875 839.546875 799.378906 C 839.660156 799.378906 850.617188 798.324219 856.519531 806.652344 C 856.777344 807.011719 857.160156 807.191406 857.574219 807.191406 C 857.832031 807.191406 858.085938 807.113281 858.304688 806.960938 Z M 995.785156 783.902344 C 1001.660156 775.613281 1012.652344 776.617188 1012.757812 776.628906 C 1013.453125 776.679688 1014.09375 776.191406 1014.171875 775.484375 C 1014.25 774.777344 1013.734375 774.144531 1013.027344 774.066406 C 1012.511719 774.015625 1000.453125 772.871094 993.6875 782.421875 C 993.277344 783.003906 993.417969 783.800781 993.996094 784.210938 C 994.214844 784.378906 994.484375 784.445312 994.742188 784.445312 C 995.140625 784.445312 995.527344 784.265625 995.785156 783.902344 Z M 1004.863281 791.769531 C 1010.738281 783.464844 1021.730469 784.484375 1021.835938 784.496094 C 1022.527344 784.546875 1023.171875 784.058594 1023.25 783.351562 C 1023.328125 782.640625 1022.8125 782.011719 1022.105469 781.933594 C 1021.589844 781.882812 1009.53125 780.738281 1002.765625 790.277344 C 1002.355469 790.855469 1002.496094 791.652344 1003.074219 792.066406 C 1003.292969 792.234375 1003.5625 792.296875 1003.820312 792.296875 C 1004.21875 792.308594 1004.605469 792.128906 1004.863281 791.769531 Z M 1012.871094 800.097656 C 1018.75 791.796875 1029.742188 792.8125 1029.84375 792.824219 C 1030.539062 792.890625 1031.183594 792.386719 1031.257812 791.679688 C 1031.335938 790.972656 1030.824219 790.339844 1030.117188 790.261719 C 1029.601562 790.210938 1017.539062 789.066406 1010.777344 798.617188 C 1010.367188 799.199219 1010.507812 799.996094 1011.085938 800.40625 C 1011.316406 800.574219 1011.574219 800.640625 1011.832031 800.640625 C 1012.230469 800.640625 1012.617188 800.460938 1012.871094 800.097656 Z M 958.6875 544.773438 C 960.359375 551.414062 992.144531 678.761719 996.144531 759.199219 C 996.234375 760.960938 995.386719 762.636719 993.90625 763.601562 C 989.34375 766.601562 978.425781 771.929688 963.769531 767.140625 C 962.199219 766.628906 961.003906 765.367188 960.539062 763.78125 C 955.539062 746.648438 925.285156 644.082031 905.855469 602.421875 C 905.40625 601.457031 903.953125 601.777344 903.964844 602.847656 C 904.273438 626.175781 905.777344 733.863281 907.628906 765.738281 C 907.757812 767.835938 906.5625 769.78125 904.632812 770.617188 C 898.476562 773.28125 884.460938 777.738281 871.355469 770.308594 C 870.070312 769.589844 869.183594 768.328125 868.914062 766.871094 C 864.953125 745.886719 833.773438 579.558594 835.507812 550.925781 C 837.359375 520.441406 946.230469 509.949219 958.523438 544.21875 C 958.597656 544.414062 958.648438 544.59375 958.6875 544.773438 Z M 958.6875 544.773438 " fill-opacity="1" fill-rule="nonzero"/></g><path fill="#f7b49a" d="M 852.40625 487.277344 C 852.40625 487.277344 864.296875 561.777344 840.164062 549.292969 C 816.027344 536.804688 819.875 532.851562 822.496094 530.664062 C 825.121094 528.476562 831.253906 533.921875 831.253906 533.921875 C 826.445312 519.644531 827.972656 501.453125 827.972656 501.453125 Z M 852.40625 487.277344 " fill-opacity="1" fill-rule="nonzero"/><path fill="#f28f69" d="M 1012.796875 432.9375 C 1012.140625 400.726562 983.246094 408.941406 983.246094 408.941406 C 956.980469 341.882812 891.492188 351.175781 891.492188 351.175781 C 842.078125 353.558594 811.21875 389.21875 811.21875 389.21875 C 811.21875 389.21875 755.082031 449.367188 762.628906 471.226562 C 770.175781 493.085938 818.433594 500.320312 818.433594 500.320312 L 823.5625 507.515625 C 825.414062 510.105469 828.953125 510.800781 831.640625 509.085938 C 832.988281 508.222656 834.378906 507.257812 835.765625 506.253906 C 835.675781 507.257812 835.585938 508.25 835.507812 509.203125 C 833.863281 528.925781 837.476562 533.519531 837.476562 533.519531 L 835.507812 550.941406 C 895.582031 576.25 958.289062 545.675781 958.613281 544.503906 C 958.945312 543.332031 952.144531 525.964844 952.144531 525.964844 C 959.78125 520.378906 956.644531 486.195312 956.644531 486.195312 C 999.65625 512.152344 1013.453125 465.148438 1012.796875 432.9375 Z M 818.445312 451.011719 L 836.703125 444.214844 L 842.09375 455.839844 C 842.09375 455.839844 841.257812 461.519531 840.164062 469.578125 C 829.980469 457.039062 818.445312 451.011719 818.445312 451.011719 Z M 818.445312 451.011719 " fill-opacity="1" fill-rule="nonzero"/><path fill="#ede6dd" d="M 917.953125 369.832031 C 917.734375 379.320312 910.871094 397.484375 904.8125 411.75 C 899.964844 423.152344 895.644531 432.0625 895.644531 432.0625 C 893.5625 430.105469 888.714844 422.949219 883.378906 414.515625 C 874.109375 399.878906 863.332031 381.390625 862.882812 379.578125 C 862.84375 379.371094 862.832031 379.175781 862.84375 378.972656 C 865.609375 344.84375 918.789062 334.648438 917.953125 369.832031 Z M 917.953125 369.832031 " fill-opacity="1" fill-rule="nonzero"/><path fill="#638481" d="M 904.8125 411.75 C 899.964844 423.152344 895.644531 432.0625 895.644531 432.0625 C 893.5625 430.105469 888.714844 422.949219 883.378906 414.515625 L 887.378906 393.121094 C 887.441406 392.71875 887.390625 392.320312 887.210938 391.960938 L 880.613281 379.085938 C 880.253906 378.378906 880.410156 377.492188 881 376.949219 L 890.179688 368.351562 C 890.8125 367.769531 891.75 367.707031 892.445312 368.183594 L 903.269531 375.675781 C 903.953125 376.152344 904.222656 377.027344 903.925781 377.8125 L 898.898438 390.96875 C 898.746094 391.34375 898.730469 391.753906 898.847656 392.140625 C 899.605469 394.640625 902.628906 404.539062 904.8125 411.75 Z M 904.8125 411.75 " fill-opacity="1" fill-rule="nonzero"/><path fill="#ede6dd" d="M 888.910156 345.550781 C 919.730469 334.082031 920.988281 368.996094 920.511719 381.222656 C 920.4375 383.324219 918.390625 384.804688 916.320312 384.25 L 892.675781 377.96875 C 891.929688 377.734375 891.121094 377.773438 890.386719 378.058594 L 867.332031 387.042969 C 865.238281 387.855469 862.898438 386.527344 862.625 384.339844 C 857.6875 344.597656 882.699219 345.28125 887.367188 345.746094 C 887.90625 345.820312 888.417969 345.730469 888.910156 345.550781 Z M 888.910156 345.550781 " fill-opacity="1" fill-rule="nonzero"/><path fill="#f7b49a" d="M 906.113281 336.292969 C 906.035156 336.359375 905.972656 336.410156 905.894531 336.460938 C 906.191406 337.066406 906.445312 337.722656 906.625 338.394531 L 909.492188 349 C 910.523438 352.785156 909.367188 356.828125 906.5 359.507812 L 892.457031 372.613281 L 876.820312 363.535156 C 873.246094 361.464844 871.203125 357.484375 871.601562 353.367188 L 872.746094 341.484375 C 872.785156 341.109375 872.847656 340.734375 872.925781 340.363281 C 872.886719 340.351562 872.847656 340.335938 872.796875 340.3125 C 872.296875 340.105469 871.808594 339.898438 871.320312 339.679688 C 861.328125 335.277344 854.421875 324.488281 853.226562 312.296875 C 851.296875 292.832031 865.699219 274.898438 882.980469 273.1875 C 900.261719 271.476562 917.453125 285.765625 919.367188 305.230469 C 920.332031 314.960938 918.238281 324.992188 911.859375 331.105469 C 909.894531 333.023438 908.003906 334.761719 906.113281 336.292969 Z M 906.113281 336.292969 " fill-opacity="1" fill-rule="nonzero"/><path fill="#000000" d="M 857.945312 296.425781 L 855.324219 314.9375 C 855.324219 314.9375 836.71875 309.351562 846.566406 283.164062 C 856.417969 256.980469 868.234375 263.558594 868.234375 263.558594 C 873.710938 251.390625 883.546875 253.144531 911.023438 263.777344 C 938.5 274.410156 922.09375 310.046875 916.28125 313.210938 C 910.472656 316.378906 908.621094 285.6875 908.621094 285.6875 C 882.246094 285.351562 877.761719 276.933594 877.761719 276.933594 C 878.53125 282.082031 889.910156 292.601562 883.121094 291.828125 C 876.332031 291.054688 869.660156 276.703125 869.660156 276.703125 C 867.164062 285.90625 857.945312 296.425781 857.945312 296.425781 Z M 889.960938 343.695312 C 884.0625 344.277344 878.121094 342.527344 872.808594 340.324219 C 875.703125 346.207031 881.757812 350.25 888.753906 350.25 C 897.253906 350.25 904.363281 344.261719 906.113281 336.292969 C 901.125 340.386719 896.222656 343.066406 889.960938 343.695312 Z M 899.363281 297.519531 C 896.828125 297.519531 894.773438 299.578125 894.773438 302.113281 C 894.773438 304.652344 896.828125 306.710938 899.363281 306.710938 C 901.894531 306.710938 903.953125 304.652344 903.953125 302.113281 C 903.964844 299.578125 901.90625 297.519531 899.363281 297.519531 Z M 870.664062 302.9375 C 868.128906 302.9375 866.074219 305 866.074219 307.535156 C 866.074219 310.070312 868.128906 312.128906 870.664062 312.128906 C 873.195312 312.128906 875.253906 310.070312 875.253906 307.535156 C 875.253906 305 873.207031 302.9375 870.664062 302.9375 Z M 870.664062 302.9375 " fill-opacity="1" fill-rule="nonzero"/><path fill="#f7b49a" d="M 928.703125 314.757812 C 926.710938 321.308594 920.886719 325.351562 915.679688 323.769531 C 910.472656 322.183594 907.859375 315.59375 909.855469 309.027344 C 911.847656 302.476562 917.671875 298.433594 922.878906 300.015625 C 928.085938 301.601562 930.695312 308.203125 928.703125 314.757812 Z M 848.046875 329.214844 C 851.839844 334.917969 858.578125 337.105469 863.101562 334.09375 C 867.628906 331.082031 868.234375 324.011719 864.453125 318.296875 C 860.660156 312.59375 853.921875 310.40625 849.394531 313.417969 C 844.871094 316.429688 844.265625 323.511719 848.046875 329.214844 Z M 848.046875 329.214844 " fill-opacity="1" fill-rule="nonzero"/><path fill="#000000" d="M 903.964844 289.921875 C 903.695312 289.921875 903.425781 289.847656 903.207031 289.664062 C 896.171875 284.453125 889.089844 288.300781 888.792969 288.46875 C 888.175781 288.816406 887.390625 288.597656 887.042969 287.980469 C 886.695312 287.363281 886.914062 286.578125 887.53125 286.230469 C 887.894531 286.023438 896.339844 281.375 904.738281 287.605469 C 905.300781 288.03125 905.429688 288.84375 905.007812 289.410156 C 904.75 289.757812 904.351562 289.921875 903.964844 289.921875 Z M 861.90625 298.792969 C 864.402344 291.480469 872.4375 291.457031 872.808594 291.441406 C 873.480469 291.457031 874.097656 290.875 874.109375 290.167969 C 874.121094 289.460938 873.542969 288.867188 872.835938 288.867188 C 872.757812 288.867188 862.574219 288.855469 859.476562 297.957031 C 859.246094 298.625 859.605469 299.359375 860.273438 299.589844 C 860.414062 299.644531 860.554688 299.65625 860.683594 299.65625 C 861.210938 299.65625 861.714844 299.320312 861.90625 298.792969 Z M 916.734375 307.675781 C 918.03125 305.421875 919.40625 304.265625 920.820312 304.226562 C 923.035156 304.1875 924.808594 306.878906 924.820312 306.902344 C 925.015625 307.199219 925.414062 307.289062 925.707031 307.097656 C 926.003906 306.902344 926.09375 306.503906 925.902344 306.207031 C 925.8125 306.066406 923.703125 302.898438 920.796875 302.9375 C 918.894531 302.976562 917.15625 304.367188 915.613281 307.03125 C 915.433594 307.339844 915.550781 307.742188 915.847656 307.90625 C 915.949219 307.960938 916.050781 308 916.167969 308 C 916.398438 308 916.617188 307.882812 916.734375 307.675781 Z M 847.800781 321.746094 C 847.710938 321.746094 847.621094 321.734375 847.53125 321.695312 C 847.210938 321.554688 847.066406 321.167969 847.210938 320.847656 C 847.273438 320.703125 848.867188 317.230469 851.789062 316.867188 C 853.664062 316.636719 855.59375 317.742188 857.507812 320.164062 C 857.726562 320.445312 857.675781 320.847656 857.40625 321.066406 C 857.125 321.285156 856.726562 321.234375 856.507812 320.960938 C 854.898438 318.914062 853.367188 317.976562 851.953125 318.144531 C 849.753906 318.414062 848.394531 321.335938 848.378906 321.375 C 848.277344 321.605469 848.046875 321.746094 847.800781 321.746094 Z M 882.902344 326.933594 C 880.921875 326.933594 878.789062 326.679688 876.5 326.074219 C 876.152344 325.984375 875.949219 325.621094 876.050781 325.289062 C 876.140625 324.941406 876.5 324.746094 876.835938 324.835938 C 889.847656 328.3125 897.894531 319.636719 897.972656 319.546875 C 898.203125 319.289062 898.617188 319.261719 898.886719 319.496094 C 899.144531 319.738281 899.167969 320.136719 898.9375 320.410156 C 898.847656 320.484375 892.882812 326.933594 882.902344 326.933594 Z M 882.015625 316.570312 C 881.695312 316.570312 881.425781 316.339844 881.375 316.019531 C 881.011719 313.378906 881.476562 311.550781 882.761719 310.585938 C 884.859375 309.003906 888.253906 310.457031 888.394531 310.519531 C 888.714844 310.664062 888.871094 311.050781 888.726562 311.371094 C 888.585938 311.691406 888.214844 311.847656 887.878906 311.707031 C 887.09375 311.359375 884.78125 310.675781 883.535156 311.617188 C 882.648438 312.285156 882.351562 313.714844 882.648438 315.851562 C 882.699219 316.199219 882.453125 316.535156 882.09375 316.570312 C 882.082031 316.558594 882.054688 316.570312 882.015625 316.570312 Z M 882.015625 316.570312 " fill-opacity="1" fill-rule="nonzero"/><path fill="#ede6dd" d="M 1008.28125 428.613281 C 1005.210938 432.953125 997.3125 432.640625 990.652344 427.90625 C 983.992188 423.167969 981.085938 415.816406 984.171875 411.476562 C 987.246094 407.140625 995.140625 407.449219 1001.800781 412.1875 C 1008.460938 416.910156 1011.367188 424.261719 1008.28125 428.613281 Z M 1008.28125 428.613281 " fill-opacity="1" fill-rule="nonzero"/><path fill="#f7b49a" d="M 1006.378906 402.773438 C 1006.355469 403.265625 1006.277344 403.765625 1006.1875 404.242188 L 1004.359375 422.085938 C 1004.359375 422.085938 995.554688 429.421875 988.03125 416.9375 L 988.03125 410.808594 C 986.347656 409.792969 985.074219 408.554688 984.558594 407.449219 C 982.578125 403.226562 986.578125 401.382812 986.578125 401.382812 C 986.578125 401.382812 982.773438 401.152344 981.050781 397.394531 C 979.324219 393.632812 983.96875 391.730469 983.96875 391.730469 C 983.96875 391.730469 979.828125 391.097656 978.746094 388.007812 C 977.679688 384.917969 981.191406 382.394531 981.191406 382.394531 C 981.191406 382.394531 977.191406 384.261719 976.511719 378.648438 C 976.058594 374.917969 978.964844 371.222656 985.316406 370.28125 C 982.375 362.132812 983.195312 352.902344 989.085938 352.605469 C 993.894531 352.359375 995.386719 364.167969 995.847656 370.914062 C 996.375 371.027344 996.890625 371.132812 997.441406 371.273438 C 1007.007812 373.691406 1006.84375 394.34375 1006.378906 402.773438 Z M 1006.378906 402.773438 " fill-opacity="1" fill-rule="nonzero"/><path fill="#000000" d="M 830.929688 509.34375 C 831.125 509.640625 831.035156 510.039062 830.738281 510.234375 C 830.636719 510.296875 830.507812 510.335938 830.390625 510.335938 C 830.171875 510.335938 829.96875 510.234375 829.851562 510.039062 L 823.707031 500.34375 C 823.511719 500.050781 823.601562 499.648438 823.898438 499.457031 C 824.195312 499.265625 824.59375 499.355469 824.785156 499.648438 Z M 893.753906 537.242188 C 861.339844 538.4375 840.5625 533.613281 837.9375 532.96875 C 831.894531 520.160156 840.703125 470.183594 840.792969 469.679688 C 840.859375 469.332031 840.625 468.996094 840.277344 468.933594 C 839.917969 468.867188 839.597656 469.101562 839.535156 469.449219 C 839.316406 470.671875 836.292969 487.820312 835.058594 504.503906 L 830.058594 495.722656 C 829.878906 495.414062 829.492188 495.3125 829.183594 495.480469 C 828.875 495.648438 828.769531 496.046875 828.9375 496.355469 L 834.890625 506.808594 C 834.183594 517.945312 834.363281 528.511719 836.832031 533.597656 L 834.878906 550.847656 C 834.839844 551.195312 835.097656 551.519531 835.445312 551.558594 C 835.46875 551.558594 835.496094 551.558594 835.523438 551.558594 C 835.84375 551.558594 836.125 551.3125 836.164062 550.992188 L 838.054688 534.292969 C 841.589844 535.128906 858.074219 538.695312 883.507812 538.695312 C 886.800781 538.695312 890.234375 538.632812 893.808594 538.503906 C 894.167969 538.492188 894.4375 538.195312 894.425781 537.832031 C 894.410156 537.511719 894.117188 537.214844 893.753906 537.242188 Z M 890.925781 439.789062 C 854.757812 391.84375 848.496094 363.546875 848.429688 363.265625 C 848.355469 362.917969 848.019531 362.699219 847.671875 362.761719 C 847.324219 362.839844 847.105469 363.175781 847.171875 363.523438 C 847.234375 363.804688 853.523438 392.28125 889.78125 440.390625 L 895.609375 560.96875 C 895.621094 561.316406 895.902344 561.585938 896.25 561.585938 C 896.261719 561.585938 896.277344 561.585938 896.277344 561.585938 C 896.636719 561.574219 896.90625 561.265625 896.894531 560.917969 L 891.054688 440.148438 C 891.042969 440.007812 891.003906 439.890625 890.925781 439.789062 Z M 818.792969 450.484375 C 818.433594 450.242188 809.855469 444.742188 797.820312 453.460938 C 797.539062 453.664062 797.476562 454.0625 797.679688 454.359375 C 797.808594 454.539062 798.003906 454.628906 798.207031 454.628906 C 798.335938 454.628906 798.464844 454.59375 798.582031 454.515625 C 809.871094 446.351562 817.765625 451.359375 818.097656 451.566406 C 818.394531 451.761719 818.792969 451.683594 818.988281 451.386719 C 819.179688 451.089844 819.089844 450.679688 818.792969 450.484375 Z M 865.019531 387.945312 C 865.082031 387.945312 865.160156 387.929688 865.222656 387.90625 L 892.714844 378.648438 L 916.167969 384.878906 C 916.515625 384.96875 916.863281 384.765625 916.953125 384.417969 C 917.042969 384.070312 916.835938 383.722656 916.488281 383.632812 L 892.84375 377.347656 C 892.726562 377.324219 892.597656 377.324219 892.46875 377.363281 L 864.800781 386.683594 C 864.464844 386.796875 864.285156 387.160156 864.402344 387.492188 C 864.503906 387.777344 864.75 387.945312 865.019531 387.945312 Z M 836.886719 446.148438 C 837 446.378906 837.21875 446.507812 837.464844 446.507812 C 837.554688 446.507812 837.65625 446.480469 837.746094 446.441406 C 838.066406 446.289062 838.195312 445.902344 838.042969 445.582031 L 828.554688 426.078125 C 828.398438 425.753906 828.011719 425.625 827.691406 425.78125 C 827.371094 425.933594 827.242188 426.320312 827.394531 426.644531 Z M 981.203125 383.050781 C 981.292969 383.050781 981.382812 383.039062 981.472656 383 C 981.539062 382.976562 987.671875 380.246094 994.753906 381.660156 C 995.101562 381.738281 995.4375 381.507812 995.515625 381.160156 C 995.578125 380.8125 995.359375 380.476562 995.011719 380.402344 C 987.503906 378.90625 981.203125 381.714844 980.945312 381.828125 C 980.625 381.972656 980.484375 382.355469 980.625 382.679688 C 980.714844 382.910156 980.945312 383.050781 981.203125 383.050781 Z M 985.316406 370.847656 C 985.394531 370.847656 992.621094 370.578125 995.667969 371.515625 C 995.734375 371.542969 995.796875 371.542969 995.863281 371.542969 C 996.132812 371.542969 996.386719 371.363281 996.480469 371.09375 C 996.582031 370.757812 996.386719 370.398438 996.054688 370.28125 C 992.800781 369.277344 985.589844 369.535156 985.28125 369.546875 C 984.917969 369.5625 984.648438 369.855469 984.664062 370.21875 C 984.664062 370.578125 984.933594 370.875 985.316406 370.847656 Z M 898.796875 390.917969 C 898.511719 390.867188 891.722656 389.667969 887.210938 391.933594 C 886.890625 392.089844 886.761719 392.476562 886.929688 392.796875 C 887.042969 393.03125 887.261719 393.160156 887.507812 393.160156 C 887.609375 393.160156 887.699219 393.132812 887.789062 393.09375 C 891.917969 391.019531 898.5 392.179688 898.578125 392.191406 C 898.925781 392.257812 899.257812 392.027344 899.324219 391.679688 C 899.375 391.316406 899.144531 390.984375 898.796875 390.917969 Z M 983.722656 391.148438 C 983.402344 391.292969 983.234375 391.664062 983.375 391.988281 C 983.480469 392.230469 983.722656 392.386719 983.96875 392.386719 C 984.046875 392.386719 984.136719 392.371094 984.210938 392.335938 C 984.277344 392.308594 991.027344 389.539062 995.898438 391.742188 C 996.222656 391.882812 996.605469 391.742188 996.75 391.421875 C 996.890625 391.097656 996.75 390.710938 996.425781 390.570312 C 991.050781 388.136719 984.019531 391.019531 983.722656 391.148438 Z M 991.359375 428.613281 C 991 428.5625 990.679688 428.792969 990.628906 429.140625 L 989.238281 437.867188 C 989.1875 438.214844 989.417969 438.550781 989.78125 438.601562 C 989.816406 438.601562 989.84375 438.617188 989.882812 438.617188 C 990.191406 438.617188 990.460938 438.382812 990.511719 438.074219 L 991.902344 429.347656 C 991.953125 429 991.722656 428.664062 991.359375 428.613281 Z M 997.171875 431.417969 C 996.824219 431.394531 996.503906 431.636719 996.464844 432 L 995.617188 440.546875 C 995.578125 440.894531 995.835938 441.214844 996.195312 441.253906 C 996.222656 441.253906 996.234375 441.253906 996.261719 441.253906 C 996.582031 441.253906 996.863281 441.011719 996.902344 440.675781 L 997.75 432.128906 C 997.789062 431.765625 997.53125 431.457031 997.171875 431.417969 Z M 999.640625 410.71875 C 999.566406 410.730469 991.414062 412.328125 988.390625 410.28125 C 988.199219 410.152344 987.964844 410.140625 987.761719 410.230469 C 987.554688 410.320312 987.414062 410.523438 987.386719 410.742188 L 986.859375 415.441406 C 986.824219 415.789062 987.078125 416.113281 987.425781 416.152344 C 987.453125 416.152344 987.476562 416.152344 987.503906 416.152344 C 987.824219 416.152344 988.109375 415.90625 988.148438 415.585938 L 988.558594 411.824219 C 992.390625 413.449219 999.550781 412.042969 999.886719 411.980469 C 1000.234375 411.914062 1000.464844 411.566406 1000.386719 411.21875 C 1000.335938 410.886719 1000 410.652344 999.640625 410.71875 Z M 1003.667969 430.777344 C 1003.304688 430.777344 1003.023438 431.058594 1003.023438 431.417969 L 1003.023438 440.597656 C 1003.023438 440.957031 1003.304688 441.242188 1003.667969 441.242188 C 1004.027344 441.242188 1004.308594 440.957031 1004.308594 440.597656 L 1004.308594 431.417969 C 1004.308594 431.070312 1004.027344 430.777344 1003.667969 430.777344 Z M 1008.914062 428.484375 C 1008.847656 428.136719 1008.5 427.90625 1008.167969 427.96875 C 1007.820312 428.035156 1007.589844 428.367188 1007.652344 428.714844 L 1009.425781 438.085938 C 1009.476562 438.398438 1009.75 438.617188 1010.058594 438.617188 C 1010.09375 438.617188 1010.132812 438.617188 1010.171875 438.601562 C 1010.519531 438.539062 1010.75 438.203125 1010.6875 437.855469 Z M 951.875 525.386719 C 951.667969 525.488281 931.378906 535.296875 906.445312 537.253906 C 906.332031 537.265625 906.226562 537.304688 906.136719 537.371094 L 901.960938 439.039062 C 928.371094 398 929.953125 355.941406 929.964844 355.515625 C 929.976562 355.15625 929.695312 354.859375 929.347656 354.847656 C 929.335938 354.847656 929.335938 354.847656 929.320312 354.847656 C 928.972656 354.847656 928.691406 355.117188 928.679688 355.464844 C 928.664062 355.875 927.097656 397.703125 900.761719 438.5 C 900.6875 438.617188 900.660156 438.746094 900.660156 438.875 L 905.84375 560.957031 C 905.855469 561.304688 906.136719 561.574219 906.484375 561.574219 C 906.5 561.574219 906.5 561.574219 906.511719 561.574219 C 906.871094 561.558594 907.140625 561.25 907.128906 560.902344 L 906.175781 538.425781 C 906.265625 538.476562 906.371094 538.515625 906.484375 538.515625 C 906.5 538.515625 906.523438 538.515625 906.535156 538.515625 C 931.710938 536.546875 952.222656 526.621094 952.425781 526.519531 C 952.75 526.363281 952.878906 525.976562 952.722656 525.65625 C 952.570312 525.359375 952.183594 525.21875 951.875 525.386719 Z M 983.8125 409.25 C 983.980469 408.941406 983.863281 408.542969 983.554688 408.375 C 983.246094 408.207031 982.847656 408.324219 982.683594 408.632812 C 982.503906 408.96875 964.347656 443.003906 966.300781 474.171875 C 966.328125 474.519531 966.609375 474.777344 966.945312 474.777344 C 966.957031 474.777344 966.96875 474.777344 966.980469 474.777344 C 967.34375 474.753906 967.613281 474.457031 967.585938 474.097656 C 965.644531 443.316406 983.632812 409.585938 983.8125 409.25 Z M 957.761719 445.21875 C 957.761719 445.21875 957.75 445.21875 957.75 445.21875 C 957.402344 445.21875 957.121094 445.492188 957.105469 445.851562 L 956.015625 486.171875 C 956 486.53125 956.285156 486.828125 956.644531 486.828125 C 956.644531 486.828125 956.65625 486.828125 956.65625 486.828125 C 957.003906 486.828125 957.289062 486.558594 957.300781 486.195312 L 958.394531 445.875 C 958.394531 445.527344 958.125 445.234375 957.761719 445.21875 Z M 985.421875 423.605469 C 985.074219 423.539062 984.726562 423.757812 984.664062 424.105469 L 982.605469 434.121094 C 982.539062 434.46875 982.757812 434.816406 983.105469 434.882812 C 983.144531 434.894531 983.195312 434.894531 983.234375 434.894531 C 983.53125 434.894531 983.800781 434.6875 983.863281 434.378906 L 985.921875 424.363281 C 986 424.015625 985.769531 423.667969 985.421875 423.605469 Z M 995.71875 402.054688 C 995.796875 402.078125 995.863281 402.09375 995.9375 402.09375 C 996.207031 402.09375 996.453125 401.925781 996.542969 401.667969 C 996.660156 401.332031 996.492188 400.960938 996.15625 400.84375 C 992.761719 399.632812 986.730469 400.726562 986.476562 400.765625 C 986.128906 400.832031 985.898438 401.164062 985.960938 401.511719 C 986.023438 401.859375 986.359375 402.105469 986.707031 402.027344 C 986.757812 402.027344 992.660156 400.960938 995.71875 402.054688 Z M 995.71875 402.054688 " fill-opacity="1" fill-rule="nonzero"/><path fill="#000000" d="M 897.949219 484.574219 C 895.851562 484.664062 894.21875 486.441406 894.308594 488.539062 C 894.347656 489.558594 894.785156 490.496094 895.542969 491.179688 C 896.25 491.824219 897.164062 492.183594 898.113281 492.183594 C 898.167969 492.183594 898.230469 492.183594 898.28125 492.183594 C 900.378906 492.09375 902.011719 490.316406 901.921875 488.21875 C 901.882812 487.203125 901.445312 486.261719 900.6875 485.578125 C 899.941406 484.882812 898.976562 484.535156 897.949219 484.574219 Z M 898.21875 490.910156 C 897.550781 490.933594 896.90625 490.703125 896.40625 490.253906 C 895.902344 489.800781 895.621094 489.171875 895.59375 488.5 C 895.53125 487.109375 896.609375 485.941406 898 485.875 C 898.039062 485.875 898.074219 485.875 898.113281 485.875 C 898.746094 485.875 899.347656 486.105469 899.8125 486.542969 C 900.3125 486.996094 900.597656 487.625 900.621094 488.296875 C 900.6875 489.660156 899.605469 490.84375 898.21875 490.910156 Z M 896.558594 452.105469 C 894.464844 452.199219 892.828125 453.972656 892.921875 456.074219 C 892.957031 457.089844 893.394531 458.03125 894.15625 458.710938 C 894.863281 459.355469 895.761719 459.714844 896.726562 459.714844 C 896.777344 459.714844 896.839844 459.714844 896.894531 459.714844 C 898.988281 459.625 900.621094 457.847656 900.53125 455.75 C 900.492188 454.734375 900.054688 453.792969 899.296875 453.113281 C 898.550781 452.417969 897.574219 452.054688 896.558594 452.105469 Z M 896.828125 458.429688 C 896.160156 458.453125 895.515625 458.222656 895.015625 457.773438 C 894.515625 457.320312 894.230469 456.691406 894.207031 456.019531 C 894.140625 454.628906 895.222656 453.460938 896.609375 453.394531 C 896.648438 453.394531 896.6875 453.394531 896.726562 453.394531 C 897.355469 453.394531 897.960938 453.625 898.421875 454.0625 C 898.925781 454.515625 899.207031 455.144531 899.234375 455.816406 C 899.296875 457.191406 898.21875 458.375 896.828125 458.429688 Z M 897.253906 468.339844 C 896.238281 468.378906 895.296875 468.816406 894.617188 469.578125 C 893.9375 470.324219 893.574219 471.300781 893.613281 472.320312 C 893.652344 473.335938 894.089844 474.277344 894.847656 474.957031 C 895.554688 475.613281 896.46875 475.960938 897.421875 475.960938 C 897.472656 475.960938 897.535156 475.960938 897.585938 475.960938 C 898.601562 475.925781 899.542969 475.484375 900.222656 474.726562 C 900.90625 473.980469 901.265625 473 901.226562 471.984375 C 901.1875 470.96875 900.75 470.027344 899.992188 469.34375 C 899.246094 468.648438 898.28125 468.300781 897.253906 468.339844 Z M 899.273438 473.851562 C 898.820312 474.351562 898.191406 474.636719 897.523438 474.664062 C 896.855469 474.6875 896.210938 474.457031 895.710938 474.003906 C 895.207031 473.554688 894.925781 472.925781 894.898438 472.253906 C 894.875 471.585938 895.105469 470.941406 895.554688 470.441406 C 896.007812 469.9375 896.636719 469.65625 897.304688 469.628906 C 897.34375 469.628906 897.382812 469.628906 897.421875 469.628906 C 898.050781 469.628906 898.65625 469.859375 899.117188 470.296875 C 899.617188 470.75 899.902344 471.378906 899.925781 472.050781 C 899.964844 472.71875 899.734375 473.363281 899.273438 473.851562 Z M 898.640625 500.808594 C 896.546875 500.898438 894.914062 502.675781 895.003906 504.773438 C 895.042969 505.792969 895.480469 506.730469 896.238281 507.414062 C 896.945312 508.070312 897.859375 508.417969 898.808594 508.417969 C 898.859375 508.417969 898.925781 508.417969 898.976562 508.417969 C 899.992188 508.378906 900.929688 507.941406 901.613281 507.179688 C 902.292969 506.433594 902.652344 505.457031 902.613281 504.4375 C 902.578125 503.421875 902.140625 502.484375 901.378906 501.800781 C 900.636719 501.117188 899.671875 500.757812 898.640625 500.808594 Z M 900.660156 506.320312 C 900.210938 506.820312 899.582031 507.105469 898.910156 507.128906 C 898.230469 507.15625 897.601562 506.925781 897.097656 506.472656 C 896.597656 506.023438 896.316406 505.390625 896.289062 504.722656 C 896.222656 503.332031 897.304688 502.160156 898.691406 502.097656 C 898.730469 502.097656 898.769531 502.097656 898.808594 502.097656 C 899.4375 502.097656 900.042969 502.328125 900.507812 502.765625 C 901.007812 503.214844 901.289062 503.847656 901.316406 504.515625 C 901.355469 505.1875 901.125 505.828125 900.660156 506.320312 Z M 895.710938 521.019531 C 895.75 522.039062 896.1875 522.976562 896.945312 523.660156 C 897.652344 524.316406 898.566406 524.664062 899.515625 524.664062 C 899.566406 524.664062 899.632812 524.664062 899.683594 524.664062 C 900.699219 524.625 901.636719 524.1875 902.320312 523.429688 C 903 522.679688 903.359375 521.703125 903.320312 520.6875 C 903.285156 519.667969 902.847656 518.730469 902.085938 518.046875 C 901.34375 517.351562 900.378906 516.992188 899.347656 517.042969 C 897.242188 517.132812 895.621094 518.921875 895.710938 521.019531 Z M 899.503906 518.332031 C 900.132812 518.332031 900.738281 518.5625 901.199219 519 C 901.703125 519.449219 901.984375 520.082031 902.011719 520.75 C 902.035156 521.421875 901.804688 522.0625 901.355469 522.566406 C 900.90625 523.066406 900.273438 523.351562 899.605469 523.375 C 898.9375 523.390625 898.292969 523.171875 897.792969 522.71875 C 897.292969 522.269531 897.007812 521.640625 896.984375 520.96875 C 896.917969 519.578125 898 518.394531 899.386719 518.34375 C 899.4375 518.332031 899.464844 518.332031 899.503906 518.332031 Z M 900.042969 533.289062 C 897.949219 533.378906 896.316406 535.15625 896.40625 537.253906 C 896.441406 538.273438 896.878906 539.210938 897.640625 539.894531 C 898.347656 540.550781 899.257812 540.898438 900.210938 540.898438 C 900.261719 540.898438 900.328125 540.898438 900.378906 540.898438 C 902.472656 540.808594 904.105469 539.03125 904.015625 536.933594 C 903.914062 534.820312 902.125 533.171875 900.042969 533.289062 Z M 900.3125 539.609375 C 899.644531 539.625 899 539.40625 898.5 538.953125 C 898 538.503906 897.714844 537.871094 897.691406 537.203125 C 897.625 535.8125 898.707031 534.640625 900.09375 534.578125 C 900.132812 534.578125 900.171875 534.578125 900.199219 534.578125 C 901.535156 534.578125 902.652344 535.632812 902.71875 536.984375 C 902.78125 538.375 901.6875 539.546875 900.3125 539.609375 Z M 900.3125 539.609375 " fill-opacity="1" fill-rule="nonzero"/><path fill="#ede6dd" d="M 905.855469 603.066406 C 905.777344 603.066406 905.699219 603.050781 905.625 603.027344 L 879.160156 592.84375 C 878.828125 592.714844 878.660156 592.339844 878.789062 592.007812 C 878.917969 591.671875 879.289062 591.503906 879.625 591.632812 L 906.085938 601.816406 C 906.421875 601.945312 906.589844 602.320312 906.460938 602.652344 C 906.355469 602.910156 906.113281 603.066406 905.855469 603.066406 Z M 905.855469 603.066406 " fill-opacity="1" fill-rule="nonzero"/><g fill="#f28f69" fill-opacity="1"><g transform="translate(255.712702, 307.387841)"><g><path d="M -0.796875 -21.8125 L 5.1875 -21.8125 L 9.734375 -14.828125 L 14.28125 -21.8125 L 20.25 -21.8125 L 12.21875 -9.78125 L 12.21875 0 L 7.25 0 L 7.25 -9.78125 Z M -0.796875 -21.8125 "/></g></g></g><g fill="#f28f69" fill-opacity="1"><g transform="translate(275.166081, 307.387841)"><g><path d="M 0.609375 -10.921875 C 0.609375 -14.078125 1.679688 -16.742188 3.828125 -18.921875 C 5.984375 -21.109375 8.578125 -22.203125 11.609375 -22.203125 C 14.660156 -22.203125 17.25 -21.113281 19.375 -18.9375 C 21.507812 -16.757812 22.578125 -14.085938 22.578125 -10.921875 C 22.578125 -7.734375 21.523438 -5.050781 19.421875 -2.875 C 17.328125 -0.695312 14.722656 0.390625 11.609375 0.390625 C 8.421875 0.390625 5.789062 -0.6875 3.71875 -2.84375 C 1.644531 -5 0.609375 -7.691406 0.609375 -10.921875 Z M 5.96875 -10.921875 C 5.96875 -9.773438 6.144531 -8.726562 6.5 -7.78125 C 6.851562 -6.84375 7.46875 -6.046875 8.34375 -5.390625 C 9.226562 -4.742188 10.316406 -4.421875 11.609375 -4.421875 C 13.453125 -4.421875 14.84375 -5.050781 15.78125 -6.3125 C 16.726562 -7.582031 17.203125 -9.117188 17.203125 -10.921875 C 17.203125 -12.703125 16.722656 -14.226562 15.765625 -15.5 C 14.804688 -16.78125 13.421875 -17.421875 11.609375 -17.421875 C 9.804688 -17.421875 8.414062 -16.78125 7.4375 -15.5 C 6.457031 -14.226562 5.96875 -12.703125 5.96875 -10.921875 Z M 5.96875 -10.921875 "/></g></g></g><g fill="#f28f69" fill-opacity="1"><g transform="translate(298.346262, 307.387841)"><g><path d="M 18.34375 -21.8125 L 18.34375 -7.75 C 18.34375 -5.070312 17.617188 -3.046875 16.171875 -1.671875 C 14.734375 -0.296875 12.617188 0.390625 9.828125 0.390625 C 7.046875 0.390625 4.929688 -0.296875 3.484375 -1.671875 C 2.046875 -3.046875 1.328125 -5.070312 1.328125 -7.75 L 1.328125 -21.8125 L 6.296875 -21.8125 L 6.296875 -9.203125 C 6.296875 -7.441406 6.570312 -6.21875 7.125 -5.53125 C 7.675781 -4.84375 8.578125 -4.5 9.828125 -4.5 C 11.085938 -4.5 11.992188 -4.84375 12.546875 -5.53125 C 13.097656 -6.21875 13.375 -7.441406 13.375 -9.203125 L 13.375 -21.8125 Z M 18.34375 -21.8125 "/></g></g></g><g fill="#f28f69" fill-opacity="1"><g transform="translate(318.01109, 307.387841)"><g><path d="M 1.59375 -21.8125 L 9.390625 -21.8125 C 11.484375 -21.8125 13.191406 -21.25 14.515625 -20.125 C 15.835938 -19.007812 16.5 -17.410156 16.5 -15.328125 C 16.5 -13.722656 16.097656 -12.378906 15.296875 -11.296875 C 14.492188 -10.210938 13.40625 -9.453125 12.03125 -9.015625 L 19.53125 0 L 13.21875 0 L 6.5625 -8.625 L 6.5625 0 L 1.59375 0 Z M 6.5625 -12.140625 L 7.140625 -12.140625 C 7.597656 -12.140625 7.984375 -12.144531 8.296875 -12.15625 C 8.617188 -12.175781 8.984375 -12.238281 9.390625 -12.34375 C 9.796875 -12.445312 10.117188 -12.597656 10.359375 -12.796875 C 10.609375 -12.992188 10.820312 -13.273438 11 -13.640625 C 11.175781 -14.015625 11.265625 -14.460938 11.265625 -14.984375 C 11.265625 -15.515625 11.175781 -15.960938 11 -16.328125 C 10.820312 -16.703125 10.609375 -16.984375 10.359375 -17.171875 C 10.117188 -17.367188 9.796875 -17.519531 9.390625 -17.625 C 8.984375 -17.738281 8.617188 -17.800781 8.296875 -17.8125 C 7.984375 -17.832031 7.597656 -17.84375 7.140625 -17.84375 L 6.5625 -17.84375 Z M 6.5625 -12.140625 "/></g></g></g><g fill="#f28f69" fill-opacity="1"><g transform="translate(336.935847, 307.387841)"><g/></g></g><g fill="#f28f69" fill-opacity="1"><g transform="translate(344.151568, 307.387841)"><g><path d="M 19.609375 0 L 18.578125 -12.921875 L 18.453125 -12.921875 L 13.984375 -0.125 L 11.03125 -0.125 L 6.5625 -12.921875 L 6.421875 -12.921875 L 5.390625 0 L 0.421875 0 L 2.375 -21.8125 L 7.671875 -21.8125 L 12.5 -9.234375 L 17.34375 -21.8125 L 22.625 -21.8125 L 24.59375 0 Z M 19.609375 0 "/></g></g></g><g fill="#f28f69" fill-opacity="1"><g transform="translate(369.155504, 307.387841)"><g><path d="M 0.609375 -10.921875 C 0.609375 -14.078125 1.679688 -16.742188 3.828125 -18.921875 C 5.984375 -21.109375 8.578125 -22.203125 11.609375 -22.203125 C 14.660156 -22.203125 17.25 -21.113281 19.375 -18.9375 C 21.507812 -16.757812 22.578125 -14.085938 22.578125 -10.921875 C 22.578125 -7.734375 21.523438 -5.050781 19.421875 -2.875 C 17.328125 -0.695312 14.722656 0.390625 11.609375 0.390625 C 8.421875 0.390625 5.789062 -0.6875 3.71875 -2.84375 C 1.644531 -5 0.609375 -7.691406 0.609375 -10.921875 Z M 5.96875 -10.921875 C 5.96875 -9.773438 6.144531 -8.726562 6.5 -7.78125 C 6.851562 -6.84375 7.46875 -6.046875 8.34375 -5.390625 C 9.226562 -4.742188 10.316406 -4.421875 11.609375 -4.421875 C 13.453125 -4.421875 14.84375 -5.050781 15.78125 -6.3125 C 16.726562 -7.582031 17.203125 -9.117188 17.203125 -10.921875 C 17.203125 -12.703125 16.722656 -14.226562 15.765625 -15.5 C 14.804688 -16.78125 13.421875 -17.421875 11.609375 -17.421875 C 9.804688 -17.421875 8.414062 -16.78125 7.4375 -15.5 C 6.457031 -14.226562 5.96875 -12.703125 5.96875 -10.921875 Z M 5.96875 -10.921875 "/></g></g></g><g fill="#f28f69" fill-opacity="1"><g transform="translate(392.335685, 307.387841)"><g><path d="M 9.625 -22.203125 C 10.800781 -22.203125 11.953125 -22.03125 13.078125 -21.6875 C 14.210938 -21.34375 15.050781 -21.003906 15.59375 -20.671875 L 16.390625 -20.140625 L 14.375 -16.1875 C 14.21875 -16.289062 14 -16.425781 13.71875 -16.59375 C 13.4375 -16.757812 12.90625 -16.984375 12.125 -17.265625 C 11.351562 -17.546875 10.632812 -17.6875 9.96875 -17.6875 C 9.132812 -17.6875 8.492188 -17.507812 8.046875 -17.15625 C 7.597656 -16.800781 7.375 -16.328125 7.375 -15.734375 C 7.375 -15.429688 7.476562 -15.148438 7.6875 -14.890625 C 7.90625 -14.640625 8.269531 -14.367188 8.78125 -14.078125 C 9.289062 -13.785156 9.738281 -13.550781 10.125 -13.375 C 10.507812 -13.195312 11.109375 -12.929688 11.921875 -12.578125 C 13.328125 -11.984375 14.53125 -11.171875 15.53125 -10.140625 C 16.53125 -9.109375 17.03125 -7.941406 17.03125 -6.640625 C 17.03125 -5.390625 16.800781 -4.296875 16.34375 -3.359375 C 15.894531 -2.421875 15.28125 -1.6875 14.5 -1.15625 C 13.71875 -0.632812 12.847656 -0.25 11.890625 0 C 10.941406 0.257812 9.910156 0.390625 8.796875 0.390625 C 7.847656 0.390625 6.914062 0.289062 6 0.09375 C 5.082031 -0.09375 4.316406 -0.332031 3.703125 -0.625 C 3.085938 -0.914062 2.53125 -1.203125 2.03125 -1.484375 C 1.539062 -1.765625 1.179688 -2 0.953125 -2.1875 L 0.609375 -2.484375 L 3.09375 -6.65625 C 3.300781 -6.476562 3.585938 -6.253906 3.953125 -5.984375 C 4.328125 -5.710938 4.984375 -5.347656 5.921875 -4.890625 C 6.867188 -4.429688 7.707031 -4.203125 8.4375 -4.203125 C 10.53125 -4.203125 11.578125 -4.914062 11.578125 -6.34375 C 11.578125 -6.644531 11.5 -6.921875 11.34375 -7.171875 C 11.195312 -7.429688 10.9375 -7.6875 10.5625 -7.9375 C 10.1875 -8.195312 9.851562 -8.398438 9.5625 -8.546875 C 9.269531 -8.703125 8.789062 -8.929688 8.125 -9.234375 C 7.46875 -9.546875 6.976562 -9.78125 6.65625 -9.9375 C 5.332031 -10.59375 4.3125 -11.410156 3.59375 -12.390625 C 2.875 -13.367188 2.515625 -14.421875 2.515625 -15.546875 C 2.515625 -17.503906 3.234375 -19.101562 4.671875 -20.34375 C 6.117188 -21.582031 7.769531 -22.203125 9.625 -22.203125 Z M 9.625 -22.203125 "/></g></g></g><g fill="#f28f69" fill-opacity="1"><g transform="translate(410.097465, 307.387841)"><g><path d="M 0.21875 -17.453125 L 0.21875 -21.8125 L 15.546875 -21.8125 L 15.546875 -17.453125 L 10.359375 -17.453125 L 10.359375 0 L 5.390625 0 L 5.390625 -17.453125 Z M 0.21875 -17.453125 "/></g></g></g><g fill="#f28f69" fill-opacity="1"><g transform="translate(425.850477, 307.387841)"><g/></g></g><g fill="#f28f69" fill-opacity="1"><g transform="translate(433.066205, 307.387841)"><g><path d="M 13.1875 -4.5 C 13.945312 -4.5 14.679688 -4.613281 15.390625 -4.84375 C 16.109375 -5.070312 16.632812 -5.289062 16.96875 -5.5 L 17.46875 -5.84375 L 19.59375 -1.609375 C 19.519531 -1.554688 19.421875 -1.484375 19.296875 -1.390625 C 19.171875 -1.304688 18.882812 -1.144531 18.4375 -0.90625 C 17.988281 -0.675781 17.507812 -0.472656 17 -0.296875 C 16.488281 -0.117188 15.816406 0.0351562 14.984375 0.171875 C 14.160156 0.316406 13.304688 0.390625 12.421875 0.390625 C 10.398438 0.390625 8.476562 -0.101562 6.65625 -1.09375 C 4.84375 -2.09375 3.378906 -3.460938 2.265625 -5.203125 C 1.160156 -6.953125 0.609375 -8.835938 0.609375 -10.859375 C 0.609375 -12.398438 0.929688 -13.875 1.578125 -15.28125 C 2.234375 -16.6875 3.101562 -17.890625 4.1875 -18.890625 C 5.269531 -19.898438 6.535156 -20.703125 7.984375 -21.296875 C 9.429688 -21.898438 10.910156 -22.203125 12.421875 -22.203125 C 13.835938 -22.203125 15.140625 -22.035156 16.328125 -21.703125 C 17.515625 -21.367188 18.351562 -21.035156 18.84375 -20.703125 L 19.59375 -20.203125 L 17.46875 -15.96875 C 17.351562 -16.070312 17.171875 -16.195312 16.921875 -16.34375 C 16.671875 -16.5 16.175781 -16.695312 15.4375 -16.9375 C 14.695312 -17.1875 13.945312 -17.3125 13.1875 -17.3125 C 11.988281 -17.3125 10.914062 -17.117188 9.96875 -16.734375 C 9.019531 -16.347656 8.265625 -15.835938 7.703125 -15.203125 C 7.148438 -14.566406 6.726562 -13.882812 6.4375 -13.15625 C 6.144531 -12.425781 6 -11.679688 6 -10.921875 C 6 -9.265625 6.617188 -7.78125 7.859375 -6.46875 C 9.109375 -5.15625 10.882812 -4.5 13.1875 -4.5 Z M 13.1875 -4.5 "/></g></g></g><g fill="#f28f69" fill-opacity="1"><g transform="translate(452.968918, 307.387841)"><g><path d="M 0.609375 -10.921875 C 0.609375 -14.078125 1.679688 -16.742188 3.828125 -18.921875 C 5.984375 -21.109375 8.578125 -22.203125 11.609375 -22.203125 C 14.660156 -22.203125 17.25 -21.113281 19.375 -18.9375 C 21.507812 -16.757812 22.578125 -14.085938 22.578125 -10.921875 C 22.578125 -7.734375 21.523438 -5.050781 19.421875 -2.875 C 17.328125 -0.695312 14.722656 0.390625 11.609375 0.390625 C 8.421875 0.390625 5.789062 -0.6875 3.71875 -2.84375 C 1.644531 -5 0.609375 -7.691406 0.609375 -10.921875 Z M 5.96875 -10.921875 C 5.96875 -9.773438 6.144531 -8.726562 6.5 -7.78125 C 6.851562 -6.84375 7.46875 -6.046875 8.34375 -5.390625 C 9.226562 -4.742188 10.316406 -4.421875 11.609375 -4.421875 C 13.453125 -4.421875 14.84375 -5.050781 15.78125 -6.3125 C 16.726562 -7.582031 17.203125 -9.117188 17.203125 -10.921875 C 17.203125 -12.703125 16.722656 -14.226562 15.765625 -15.5 C 14.804688 -16.78125 13.421875 -17.421875 11.609375 -17.421875 C 9.804688 -17.421875 8.414062 -16.78125 7.4375 -15.5 C 6.457031 -14.226562 5.96875 -12.703125 5.96875 -10.921875 Z M 5.96875 -10.921875 "/></g></g></g><g fill="#f28f69" fill-opacity="1"><g transform="translate(476.149099, 307.387841)"><g><path d="M 6.5625 -13.53125 L 6.5625 0 L 1.59375 0 L 1.59375 -21.8125 L 6.5625 -21.8125 L 15.234375 -8.28125 L 15.28125 -8.28125 L 15.28125 -21.8125 L 20.25 -21.8125 L 20.25 0 L 15.28125 0 L 6.609375 -13.53125 Z M 6.5625 -13.53125 "/></g></g></g><g fill="#f28f69" fill-opacity="1"><g transform="translate(497.981289, 307.387841)"><g><path d="M 8.40625 0 L -0.734375 -21.8125 L 4.859375 -21.8125 L 10.359375 -7.484375 L 15.859375 -21.8125 L 21.46875 -21.8125 L 12.3125 0 Z M 8.40625 0 "/></g></g></g><g fill="#f28f69" fill-opacity="1"><g transform="translate(518.703366, 307.387841)"><g><path d="M 14.0625 -21.8125 L 14.0625 -17.453125 L 6.5625 -17.453125 L 6.5625 -13.109375 L 13.75 -13.109375 L 13.75 -8.75 L 6.5625 -8.75 L 6.5625 -4.359375 L 14.0625 -4.359375 L 14.0625 0 L 1.59375 0 L 1.59375 -21.8125 Z M 14.0625 -21.8125 "/></g></g></g><g fill="#f28f69" fill-opacity="1"><g transform="translate(534.033462, 307.387841)"><g><path d="M 6.5625 -13.53125 L 6.5625 0 L 1.59375 0 L 1.59375 -21.8125 L 6.5625 -21.8125 L 15.234375 -8.28125 L 15.28125 -8.28125 L 15.28125 -21.8125 L 20.25 -21.8125 L 20.25 0 L 15.28125 0 L 6.609375 -13.53125 Z M 6.5625 -13.53125 "/></g></g></g><g fill="#f28f69" fill-opacity="1"><g transform="translate(555.865652, 307.387841)"><g><path d="M 6.5625 -21.8125 L 6.5625 0 L 1.59375 0 L 1.59375 -21.8125 Z M 6.5625 -21.8125 "/></g></g></g><g fill="#f28f69" fill-opacity="1"><g transform="translate(564.006472, 307.387841)"><g><path d="M 14.0625 -21.8125 L 14.0625 -17.453125 L 6.5625 -17.453125 L 6.5625 -13.109375 L 13.75 -13.109375 L 13.75 -8.75 L 6.5625 -8.75 L 6.5625 -4.359375 L 14.0625 -4.359375 L 14.0625 0 L 1.59375 0 L 1.59375 -21.8125 Z M 14.0625 -21.8125 "/></g></g></g><g fill="#f28f69" fill-opacity="1"><g transform="translate(579.336599, 307.387841)"><g><path d="M 6.5625 -13.53125 L 6.5625 0 L 1.59375 0 L 1.59375 -21.8125 L 6.5625 -21.8125 L 15.234375 -8.28125 L 15.28125 -8.28125 L 15.28125 -21.8125 L 20.25 -21.8125 L 20.25 0 L 15.28125 0 L 6.609375 -13.53125 Z M 6.5625 -13.53125 "/></g></g></g><g fill="#f28f69" fill-opacity="1"><g transform="translate(601.168789, 307.387841)"><g><path d="M 0.21875 -17.453125 L 0.21875 -21.8125 L 15.546875 -21.8125 L 15.546875 -17.453125 L 10.359375 -17.453125 L 10.359375 0 L 5.390625 0 L 5.390625 -17.453125 Z M 0.21875 -17.453125 "/></g></g></g><g fill="#f28f69" fill-opacity="1"><g transform="translate(265.404416, 344.260548)"><g><path d="M 0.609375 -10.921875 C 0.609375 -14.078125 1.679688 -16.742188 3.828125 -18.921875 C 5.984375 -21.109375 8.578125 -22.203125 11.609375 -22.203125 C 14.660156 -22.203125 17.25 -21.113281 19.375 -18.9375 C 21.507812 -16.757812 22.578125 -14.085938 22.578125 -10.921875 C 22.578125 -7.734375 21.523438 -5.050781 19.421875 -2.875 C 17.328125 -0.695312 14.722656 0.390625 11.609375 0.390625 C 8.421875 0.390625 5.789062 -0.6875 3.71875 -2.84375 C 1.644531 -5 0.609375 -7.691406 0.609375 -10.921875 Z M 5.96875 -10.921875 C 5.96875 -9.773438 6.144531 -8.726562 6.5 -7.78125 C 6.851562 -6.84375 7.46875 -6.046875 8.34375 -5.390625 C 9.226562 -4.742188 10.316406 -4.421875 11.609375 -4.421875 C 13.453125 -4.421875 14.84375 -5.050781 15.78125 -6.3125 C 16.726562 -7.582031 17.203125 -9.117188 17.203125 -10.921875 C 17.203125 -12.703125 16.722656 -14.226562 15.765625 -15.5 C 14.804688 -16.78125 13.421875 -17.421875 11.609375 -17.421875 C 9.804688 -17.421875 8.414062 -16.78125 7.4375 -15.5 C 6.457031 -14.226562 5.96875 -12.703125 5.96875 -10.921875 Z M 5.96875 -10.921875 "/></g></g></g><g fill="#f28f69" fill-opacity="1"><g transform="translate(288.584597, 344.260548)"><g><path d="M 6.5625 -13.53125 L 6.5625 0 L 1.59375 0 L 1.59375 -21.8125 L 6.5625 -21.8125 L 15.234375 -8.28125 L 15.28125 -8.28125 L 15.28125 -21.8125 L 20.25 -21.8125 L 20.25 0 L 15.28125 0 L 6.609375 -13.53125 Z M 6.5625 -13.53125 "/></g></g></g><g fill="#f28f69" fill-opacity="1"><g transform="translate(310.416786, 344.260548)"><g><path d="M 6.5625 -21.8125 L 6.5625 -4.359375 L 14.0625 -4.359375 L 14.0625 0 L 1.59375 0 L 1.59375 -21.8125 Z M 6.5625 -21.8125 "/></g></g></g><g fill="#f28f69" fill-opacity="1"><g transform="translate(325.350427, 344.260548)"><g><path d="M 6.5625 -21.8125 L 6.5625 0 L 1.59375 0 L 1.59375 -21.8125 Z M 6.5625 -21.8125 "/></g></g></g><g fill="#f28f69" fill-opacity="1"><g transform="translate(333.491247, 344.260548)"><g><path d="M 6.5625 -13.53125 L 6.5625 0 L 1.59375 0 L 1.59375 -21.8125 L 6.5625 -21.8125 L 15.234375 -8.28125 L 15.28125 -8.28125 L 15.28125 -21.8125 L 20.25 -21.8125 L 20.25 0 L 15.28125 0 L 6.609375 -13.53125 Z M 6.5625 -13.53125 "/></g></g></g><g fill="#f28f69" fill-opacity="1"><g transform="translate(355.323436, 344.260548)"><g><path d="M 14.0625 -21.8125 L 14.0625 -17.453125 L 6.5625 -17.453125 L 6.5625 -13.109375 L 13.75 -13.109375 L 13.75 -8.75 L 6.5625 -8.75 L 6.5625 -4.359375 L 14.0625 -4.359375 L 14.0625 0 L 1.59375 0 L 1.59375 -21.8125 Z M 14.0625 -21.8125 "/></g></g></g><g fill="#f28f69" fill-opacity="1"><g transform="translate(370.653548, 344.260548)"><g/></g></g><g fill="#f28f69" fill-opacity="1"><g transform="translate(377.869268, 344.260548)"><g><path d="M 6.90625 4.578125 L 5.703125 2.78125 C 5.765625 2.707031 5.835938 2.617188 5.921875 2.515625 C 6.003906 2.410156 6.1875 2.210938 6.46875 1.921875 C 6.757812 1.628906 7.035156 1.367188 7.296875 1.140625 C 7.554688 0.921875 7.863281 0.722656 8.21875 0.546875 C 8.570312 0.378906 8.898438 0.296875 9.203125 0.296875 L 9.203125 0.1875 C 6.628906 -0.3125 4.550781 -1.582031 2.96875 -3.625 C 1.394531 -5.664062 0.609375 -8.097656 0.609375 -10.921875 C 0.609375 -14.085938 1.664062 -16.757812 3.78125 -18.9375 C 5.894531 -21.113281 8.457031 -22.203125 11.46875 -22.203125 C 14.5 -22.203125 17.0625 -21.113281 19.15625 -18.9375 C 21.257812 -16.757812 22.3125 -14.085938 22.3125 -10.921875 C 22.3125 -8.328125 21.613281 -6.039062 20.21875 -4.0625 C 18.832031 -2.09375 17 -0.765625 14.71875 -0.078125 L 14.71875 0.03125 C 14.832031 0.03125 15.300781 0.113281 16.125 0.28125 C 16.957031 0.445312 17.617188 0.53125 18.109375 0.53125 C 18.773438 0.53125 19.378906 0.410156 19.921875 0.171875 C 20.472656 -0.0664062 20.859375 -0.300781 21.078125 -0.53125 L 21.390625 -0.90625 L 22.953125 2.453125 C 22.910156 2.546875 22.847656 2.65625 22.765625 2.78125 C 22.691406 2.914062 22.515625 3.148438 22.234375 3.484375 C 21.953125 3.816406 21.640625 4.113281 21.296875 4.375 C 20.953125 4.644531 20.492188 4.882812 19.921875 5.09375 C 19.347656 5.3125 18.734375 5.421875 18.078125 5.421875 C 17.003906 5.421875 15.691406 5.078125 14.140625 4.390625 C 12.585938 3.703125 11.25 3.359375 10.125 3.359375 C 9.507812 3.359375 8.929688 3.457031 8.390625 3.65625 C 7.859375 3.863281 7.476562 4.070312 7.25 4.28125 Z M 5.96875 -10.921875 C 5.96875 -10.078125 6.066406 -9.285156 6.265625 -8.546875 C 6.460938 -7.816406 6.765625 -7.148438 7.171875 -6.546875 C 7.585938 -5.953125 8.160156 -5.484375 8.890625 -5.140625 C 9.628906 -4.796875 10.488281 -4.625 11.46875 -4.625 C 13.320312 -4.625 14.695312 -5.222656 15.59375 -6.421875 C 16.5 -7.617188 16.953125 -9.117188 16.953125 -10.921875 C 16.953125 -12.703125 16.492188 -14.191406 15.578125 -15.390625 C 14.660156 -16.597656 13.289062 -17.203125 11.46875 -17.203125 C 9.675781 -17.203125 8.3125 -16.59375 7.375 -15.375 C 6.4375 -14.164062 5.96875 -12.679688 5.96875 -10.921875 Z M 5.96875 -10.921875 "/></g></g></g><g fill="#f28f69" fill-opacity="1"><g transform="translate(400.785135, 344.260548)"><g><path d="M 18.34375 -21.8125 L 18.34375 -7.75 C 18.34375 -5.070312 17.617188 -3.046875 16.171875 -1.671875 C 14.734375 -0.296875 12.617188 0.390625 9.828125 0.390625 C 7.046875 0.390625 4.929688 -0.296875 3.484375 -1.671875 C 2.046875 -3.046875 1.328125 -5.070312 1.328125 -7.75 L 1.328125 -21.8125 L 6.296875 -21.8125 L 6.296875 -9.203125 C 6.296875 -7.441406 6.570312 -6.21875 7.125 -5.53125 C 7.675781 -4.84375 8.578125 -4.5 9.828125 -4.5 C 11.085938 -4.5 11.992188 -4.84375 12.546875 -5.53125 C 13.097656 -6.21875 13.375 -7.441406 13.375 -9.203125 L 13.375 -21.8125 Z M 18.34375 -21.8125 "/></g></g></g><g fill="#f28f69" fill-opacity="1"><g transform="translate(420.449971, 344.260548)"><g><path d="M 6.5625 -21.8125 L 6.5625 0 L 1.59375 0 L 1.59375 -21.8125 Z M 6.5625 -21.8125 "/></g></g></g><g fill="#f28f69" fill-opacity="1"><g transform="translate(428.59079, 344.260548)"><g><path d="M 19.90625 -21.8125 L 9.09375 -4.359375 L 19.1875 -4.359375 L 19.1875 0 L 0.421875 0 L 11.203125 -17.453125 L 1.953125 -17.453125 L 1.953125 -21.8125 Z M 19.90625 -21.8125 "/></g></g></g><g fill="#f28f69" fill-opacity="1"><g transform="translate(448.916388, 344.260548)"><g/></g></g><g fill="#f28f69" fill-opacity="1"><g transform="translate(456.132116, 344.260548)"><g><path d="M 1.59375 -21.8125 L 9.546875 -21.8125 C 11.765625 -21.8125 13.5625 -21.238281 14.9375 -20.09375 C 16.3125 -18.945312 17 -17.28125 17 -15.09375 C 17 -12.90625 16.300781 -11.191406 14.90625 -9.953125 C 13.519531 -8.710938 11.734375 -8.09375 9.546875 -8.09375 L 6.5625 -8.09375 L 6.5625 0 L 1.59375 0 Z M 6.5625 -12.0625 L 7.953125 -12.0625 C 9.066406 -12.0625 9.976562 -12.285156 10.6875 -12.734375 C 11.40625 -13.179688 11.765625 -13.914062 11.765625 -14.9375 C 11.765625 -15.976562 11.40625 -16.722656 10.6875 -17.171875 C 9.976562 -17.617188 9.066406 -17.84375 7.953125 -17.84375 L 6.5625 -17.84375 Z M 6.5625 -12.0625 "/></g></g></g><g fill="#f28f69" fill-opacity="1"><g transform="translate(473.735311, 344.260548)"><g><path d="M 6.5625 -21.8125 L 6.5625 -4.359375 L 14.0625 -4.359375 L 14.0625 0 L 1.59375 0 L 1.59375 -21.8125 Z M 6.5625 -21.8125 "/></g></g></g><g fill="#f28f69" fill-opacity="1"><g transform="translate(488.668944, 344.260548)"><g><path d="M 12.65625 -21.8125 L 21.46875 0 L 16.125 0 L 14.515625 -4.359375 L 6.21875 -4.359375 L 4.59375 0 L -0.734375 0 L 8.0625 -21.8125 Z M 12.828125 -8.71875 L 10.390625 -15.0625 L 10.34375 -15.0625 L 7.90625 -8.71875 Z M 12.828125 -8.71875 "/></g></g></g><g fill="#f28f69" fill-opacity="1"><g transform="translate(509.391021, 344.260548)"><g><path d="M 0.21875 -17.453125 L 0.21875 -21.8125 L 15.546875 -21.8125 L 15.546875 -17.453125 L 10.359375 -17.453125 L 10.359375 0 L 5.390625 0 L 5.390625 -17.453125 Z M 0.21875 -17.453125 "/></g></g></g><g fill="#f28f69" fill-opacity="1"><g transform="translate(525.144047, 344.260548)"><g><path d="M 14.203125 -21.8125 L 14.203125 -17.453125 L 6.5625 -17.453125 L 6.5625 -13.109375 L 13.609375 -13.109375 L 13.609375 -8.75 L 6.5625 -8.75 L 6.5625 0 L 1.59375 0 L 1.59375 -21.8125 Z M 14.203125 -21.8125 "/></g></g></g><g fill="#f28f69" fill-opacity="1"><g transform="translate(540.130552, 344.260548)"><g><path d="M 0.609375 -10.921875 C 0.609375 -14.078125 1.679688 -16.742188 3.828125 -18.921875 C 5.984375 -21.109375 8.578125 -22.203125 11.609375 -22.203125 C 14.660156 -22.203125 17.25 -21.113281 19.375 -18.9375 C 21.507812 -16.757812 22.578125 -14.085938 22.578125 -10.921875 C 22.578125 -7.734375 21.523438 -5.050781 19.421875 -2.875 C 17.328125 -0.695312 14.722656 0.390625 11.609375 0.390625 C 8.421875 0.390625 5.789062 -0.6875 3.71875 -2.84375 C 1.644531 -5 0.609375 -7.691406 0.609375 -10.921875 Z M 5.96875 -10.921875 C 5.96875 -9.773438 6.144531 -8.726562 6.5 -7.78125 C 6.851562 -6.84375 7.46875 -6.046875 8.34375 -5.390625 C 9.226562 -4.742188 10.316406 -4.421875 11.609375 -4.421875 C 13.453125 -4.421875 14.84375 -5.050781 15.78125 -6.3125 C 16.726562 -7.582031 17.203125 -9.117188 17.203125 -10.921875 C 17.203125 -12.703125 16.722656 -14.226562 15.765625 -15.5 C 14.804688 -16.78125 13.421875 -17.421875 11.609375 -17.421875 C 9.804688 -17.421875 8.414062 -16.78125 7.4375 -15.5 C 6.457031 -14.226562 5.96875 -12.703125 5.96875 -10.921875 Z M 5.96875 -10.921875 "/></g></g></g><g fill="#f28f69" fill-opacity="1"><g transform="translate(563.310718, 344.260548)"><g><path d="M 1.59375 -21.8125 L 9.390625 -21.8125 C 11.484375 -21.8125 13.191406 -21.25 14.515625 -20.125 C 15.835938 -19.007812 16.5 -17.410156 16.5 -15.328125 C 16.5 -13.722656 16.097656 -12.378906 15.296875 -11.296875 C 14.492188 -10.210938 13.40625 -9.453125 12.03125 -9.015625 L 19.53125 0 L 13.21875 0 L 6.5625 -8.625 L 6.5625 0 L 1.59375 0 Z M 6.5625 -12.140625 L 7.140625 -12.140625 C 7.597656 -12.140625 7.984375 -12.144531 8.296875 -12.15625 C 8.617188 -12.175781 8.984375 -12.238281 9.390625 -12.34375 C 9.796875 -12.445312 10.117188 -12.597656 10.359375 -12.796875 C 10.609375 -12.992188 10.820312 -13.273438 11 -13.640625 C 11.175781 -14.015625 11.265625 -14.460938 11.265625 -14.984375 C 11.265625 -15.515625 11.175781 -15.960938 11 -16.328125 C 10.820312 -16.703125 10.609375 -16.984375 10.359375 -17.171875 C 10.117188 -17.367188 9.796875 -17.519531 9.390625 -17.625 C 8.984375 -17.738281 8.617188 -17.800781 8.296875 -17.8125 C 7.984375 -17.832031 7.597656 -17.84375 7.140625 -17.84375 L 6.5625 -17.84375 Z M 6.5625 -12.140625 "/></g></g></g><g fill="#f28f69" fill-opacity="1"><g transform="translate(582.235468, 344.260548)"><g><path d="M 19.609375 0 L 18.578125 -12.921875 L 18.453125 -12.921875 L 13.984375 -0.125 L 11.03125 -0.125 L 6.5625 -12.921875 L 6.421875 -12.921875 L 5.390625 0 L 0.421875 0 L 2.375 -21.8125 L 7.671875 -21.8125 L 12.5 -9.234375 L 17.34375 -21.8125 L 22.625 -21.8125 L 24.59375 0 Z M 19.609375 0 "/></g></g></g><g fill="#9f3f73" fill-opacity="1"><g transform="translate(226.473524, 189.693836)"><g><path d="M 40.867188 0.457031 C 49.453125 8.929688 56.207031 14.539062 59.066406 14.539062 C 66.96875 14.539062 74.523438 11.90625 77.84375 8.128906 L 77.269531 7.667969 C 75.78125 9.386719 68.796875 10.53125 59.640625 10.53125 C 54.945312 10.53125 49.222656 6.523438 43.15625 0.574219 C 66.050781 0.230469 77.84375 -19.574219 77.84375 -42.585938 C 77.84375 -65.9375 65.820312 -85.855469 42.585938 -85.855469 C 19.230469 -85.855469 7.210938 -65.9375 7.210938 -42.585938 C 7.210938 -19.917969 18.660156 -0.457031 40.867188 0.457031 Z M 42.585938 -84.367188 C 61.359375 -84.367188 71.085938 -65.25 71.085938 -42.699219 C 71.085938 -20.261719 61.359375 -1.144531 42.585938 -1.144531 C 23.808594 -1.144531 14.082031 -20.261719 14.082031 -42.699219 C 14.082031 -65.25 23.808594 -84.367188 42.585938 -84.367188 Z M 42.585938 -84.367188 "/></g></g></g><g fill="#9f3f73" fill-opacity="1"><g transform="translate(309.919243, 189.693836)"><g><path d="M 7.441406 -85.398438 L 7.210938 -85.28125 L 6.867188 -85.28125 L 6.867188 -84.136719 L 6.984375 -84.136719 C 7.210938 -84.136719 7.328125 -81.160156 7.328125 -76.695312 L 7.328125 -26.785156 C 7.328125 -10.300781 14.421875 0.574219 32.738281 0.574219 C 50.367188 0.574219 57.238281 -8.8125 57.238281 -22.894531 L 57.238281 -75.550781 C 57.238281 -80.703125 57.351562 -84.136719 57.578125 -84.136719 L 57.695312 -84.136719 C 57.578125 -84.136719 57.578125 -84.367188 57.695312 -84.710938 C 57.578125 -84.9375 57.578125 -85.167969 57.695312 -85.28125 L 57.351562 -85.28125 L 57.351562 -85.398438 L 55.175781 -85.398438 L 55.175781 -84.253906 C 55.40625 -84.253906 55.519531 -81.960938 55.519531 -78.414062 L 55.40625 -23.582031 C 55.40625 -10.53125 49.339844 -1.71875 33.769531 -1.71875 C 19.230469 -1.71875 13.621094 -11.332031 13.621094 -25.640625 L 13.621094 -81.390625 C 13.621094 -83.222656 13.738281 -84.253906 13.851562 -84.253906 L 13.964844 -84.253906 L 13.964844 -85.398438 Z M 7.441406 -85.398438 "/></g></g></g><g fill="#9f3f73" fill-opacity="1"><g transform="translate(372.76108, 189.693836)"><g><path d="M 4.695312 0 L 11.5625 0 L 11.5625 -1.144531 C 11.332031 -1.144531 11.21875 -4.121094 11.21875 -8.585938 L 11.21875 -76.695312 C 11.21875 -81.160156 11.332031 -84.136719 11.5625 -84.136719 L 11.5625 -85.28125 L 4.695312 -85.28125 L 4.695312 -84.136719 C 4.921875 -84.136719 5.035156 -81.160156 5.035156 -76.695312 L 5.035156 -8.585938 C 5.035156 -4.121094 4.921875 -1.144531 4.695312 -1.144531 Z M 4.695312 0 "/></g></g></g><g fill="#9f3f73" fill-opacity="1"><g transform="translate(388.900787, 189.693836)"><g><path d="M 54.261719 -2.175781 C 52.886719 -1.832031 47.734375 -1.601562 41.554688 -1.601562 L 13.738281 -1.601562 L 57.238281 -85.28125 L 13.621094 -85.28125 L 13.507812 -84.480469 C 13.394531 -84.023438 13.164062 -83.566406 13.050781 -83.109375 L 13.964844 -83.109375 L 14.539062 -83.222656 C 16.484375 -83.449219 21.292969 -83.679688 26.785156 -83.679688 L 49.339844 -83.679688 L 6.066406 0 L 55.632812 0 L 55.75 -0.800781 C 55.863281 -1.257812 55.976562 -1.832031 56.09375 -2.289062 L 54.605469 -2.289062 Z M 54.261719 -2.175781 "/></g></g></g><g fill="#9f3f73" fill-opacity="1"><g transform="translate(450.71243, 189.693836)"><g><path d="M 6.523438 -1.144531 L 6.410156 -1.144531 C 6.179688 -1.144531 6.179688 -4.695312 6.296875 -10.074219 L 8.585938 -76.582031 L 35.488281 0.6875 L 37.089844 0.6875 L 63.875 -79.214844 L 66.28125 -4.695312 C 66.28125 -2.402344 66.28125 -1.03125 66.164062 -1.03125 L 66.050781 -1.03125 L 66.050781 0.113281 L 72.917969 0.113281 L 72.917969 -1.03125 C 72.804688 -1.03125 72.691406 -2.175781 72.574219 -4.121094 L 69.601562 -80.476562 C 69.601562 -82.648438 69.601562 -83.910156 69.714844 -83.910156 L 69.714844 -85.054688 L 63.761719 -85.054688 L 38.234375 -8.011719 L 11.675781 -85.28125 L 6.984375 -85.28125 L 6.984375 -85.167969 L 6.640625 -85.167969 L 6.640625 -84.023438 L 6.753906 -84.023438 C 6.867188 -84.023438 6.867188 -82.765625 6.867188 -80.703125 L 4.234375 -3.320312 C 4.121094 -1.945312 4.007812 -1.144531 3.890625 -1.144531 L 3.777344 -1.144531 L 3.777344 0 L 6.523438 0 Z M 6.523438 -1.144531 "/></g></g></g><g fill="#9f3f73" fill-opacity="1"><g transform="translate(523.627276, 189.693836)"><g><path d="M 44.988281 -8.585938 C 46.246094 -4.121094 47.164062 -1.144531 47.046875 -1.144531 L 47.164062 -1.144531 L 47.277344 -0.800781 L 47.277344 0 L 54.488281 0 L 54.488281 -1.144531 L 54.375 -1.144531 C 54.144531 -1.144531 53 -4.121094 51.628906 -8.585938 L 27.359375 -87.230469 L 25.871094 -87.230469 L 3.664062 -8.585938 C 2.402344 -4.121094 1.488281 -1.144531 1.257812 -1.144531 L 1.257812 0 L 3.890625 0 L 3.890625 -1.144531 L 3.777344 -1.144531 C 3.777344 -1.144531 4.695312 -4.808594 6.179688 -10.300781 L 16.828125 -48.996094 L 33.195312 -48.996094 Z M 24.839844 -77.84375 L 32.738281 -50.597656 L 17.285156 -50.597656 Z M 24.839844 -77.84375 "/></g></g></g><g fill="#9f3f73" fill-opacity="1"><g transform="translate(579.715619, 189.693836)"><g><path d="M 64.792969 -82.992188 C 64.675781 -83.449219 64.675781 -84.023438 64.5625 -84.480469 L 64.5625 -85.28125 L 3.089844 -85.28125 L 2.976562 -84.480469 C 2.976562 -84.023438 2.863281 -83.449219 2.863281 -82.992188 L 3.777344 -82.992188 L 4.234375 -83.109375 C 6.066406 -83.449219 10.988281 -83.679688 16.484375 -83.679688 L 30.679688 -83.679688 L 30.679688 -8.585938 C 30.679688 -4.121094 30.5625 -1.144531 30.449219 -1.144531 L 30.335938 -1.144531 L 30.335938 0 L 37.203125 0 C 37.316406 0 37.316406 -0.230469 37.203125 -0.574219 C 37.316406 -0.914062 37.316406 -1.144531 37.203125 -1.144531 C 37.089844 -1.144531 36.859375 -4.121094 36.859375 -8.585938 L 36.859375 -83.679688 L 51.167969 -83.679688 C 56.664062 -83.679688 61.472656 -83.449219 63.304688 -83.109375 L 63.875 -82.992188 Z M 64.792969 -82.992188 "/></g></g></g><g fill="#9f3f73" fill-opacity="1"><g transform="translate(647.250563, 189.693836)"><g><path d="M 34.914062 -47.277344 L 34.914062 -49.566406 L 33.769531 -49.566406 C 32.96875 -49.339844 28.503906 -49.222656 22.664062 -49.222656 L 11.21875 -49.222656 L 11.21875 -83.566406 L 26.558594 -83.566406 C 33.425781 -83.566406 39.035156 -83.335938 40.753906 -82.992188 L 42.011719 -82.992188 L 42.011719 -85.167969 L 4.578125 -85.167969 L 4.578125 -84.023438 L 4.695312 -84.023438 C 4.808594 -84.023438 4.921875 -81.046875 4.921875 -76.582031 L 4.921875 -8.472656 C 4.921875 -4.007812 4.808594 -1.03125 4.695312 -1.03125 L 4.578125 -1.03125 L 4.578125 0.113281 L 42.585938 0.113281 L 42.8125 -0.800781 C 42.8125 -1.257812 42.925781 -1.71875 43.042969 -2.175781 L 42.242188 -2.175781 L 41.667969 -2.058594 C 40.523438 -1.832031 37.777344 -1.601562 34.226562 -1.488281 L 11.21875 -1.488281 L 11.21875 -47.734375 L 22.664062 -47.734375 C 28.503906 -47.734375 32.96875 -47.621094 33.769531 -47.390625 L 34.113281 -47.277344 Z M 34.914062 -47.277344 "/></g></g></g><path stroke-linecap="butt" transform="matrix(0.986539, 0, 0, 0.986539, 124.046792, 93.386724)" fill="none" stroke-linejoin="miter" d="M 140.627413 93.46514 C 149.330501 102.049442 156.176561 107.735354 159.07891 107.735354 C 167.085117 107.735354 174.742884 105.066618 178.108501 101.237734 L 177.526447 100.774467 C 176.017859 102.516669 168.942146 103.676816 159.657004 103.676816 C 154.901586 103.676816 149.096888 99.614319 142.947709 93.579967 C 166.154623 93.231527 178.108501 73.156615 178.108501 49.834874 C 178.108501 26.164692 165.92497 5.974954 142.369615 5.974954 C 118.695473 5.974954 106.511942 26.164692 106.511942 49.834874 C 106.511942 72.808175 118.117379 92.534646 140.627413 93.46514 Z M 142.369615 7.483542 C 161.399205 7.483542 171.262441 26.861573 171.262441 49.720047 C 171.262441 72.463694 161.399205 91.837766 142.369615 91.837766 C 123.340024 91.837766 113.476788 72.463694 113.476788 49.720047 C 113.476788 26.861573 123.340024 7.483542 142.369615 7.483542 Z M 191.329434 6.438221 L 191.09582 6.553048 L 190.75134 6.553048 L 190.75134 7.713195 L 190.866166 7.713195 C 191.09582 7.713195 191.214607 10.730372 191.214607 15.256136 L 191.214607 65.847289 C 191.214607 82.556584 198.409107 93.579967 216.97543 93.579967 C 234.840914 93.579967 241.80576 84.065172 241.80576 69.790999 L 241.80576 16.416283 C 241.80576 11.193639 241.920587 7.713195 242.1542 7.713195 L 242.269027 7.713195 C 242.1542 7.713195 242.1542 7.483542 242.269027 7.135101 C 242.1542 6.901488 242.1542 6.667875 242.269027 6.553048 L 241.920587 6.553048 L 241.920587 6.438221 L 239.715118 6.438221 L 239.715118 7.598369 C 239.948731 7.598369 240.063558 9.918664 240.063558 13.517894 L 239.948731 69.098078 C 239.948731 82.322971 233.799552 91.259672 218.016792 91.259672 C 203.279351 91.259672 197.597399 81.511263 197.597399 67.007436 L 197.597399 10.500718 C 197.597399 8.643689 197.712226 7.598369 197.827053 7.598369 L 197.94188 7.598369 L 197.94188 6.438221 Z M 252.24313 93.001873 L 259.207976 93.001873 L 259.207976 91.837766 C 258.974363 91.837766 258.859536 88.824549 258.859536 84.298785 L 258.859536 15.256136 C 258.859536 10.730372 258.974363 7.713195 259.207976 7.713195 L 259.207976 6.553048 L 252.24313 6.553048 L 252.24313 7.713195 C 252.476743 7.713195 252.59157 10.730372 252.59157 15.256136 L 252.59157 84.298785 C 252.59157 88.824549 252.476743 91.837766 252.24313 91.837766 Z M 318.846698 90.796405 C 317.452937 91.144845 312.234251 91.374499 305.966286 91.374499 L 277.77034 91.374499 L 321.863874 6.553048 L 277.655513 6.553048 L 277.540686 7.364755 C 277.4219 7.831982 277.192246 8.295249 277.073459 8.758516 L 278.003953 8.758516 L 278.582048 8.643689 C 280.553903 8.410076 285.428107 8.176463 290.999192 8.176463 L 313.857666 8.176463 L 269.997746 93.001873 L 320.240459 93.001873 L 320.355286 92.186206 C 320.470113 91.722939 320.588899 91.144845 320.703726 90.677618 L 319.195138 90.677618 Z M 333.116911 91.837766 L 332.998125 91.837766 C 332.768471 91.837766 332.768471 88.242496 332.883298 82.790197 L 335.203593 15.370963 L 362.473005 93.694794 L 364.09642 93.694794 L 391.251004 12.702227 L 393.686127 88.242496 C 393.686127 90.562791 393.686127 91.956552 393.5713 91.956552 L 393.452513 91.956552 L 393.452513 93.1167 L 400.417359 93.1167 L 400.417359 91.956552 C 400.298573 91.956552 400.183746 90.796405 400.068919 88.824549 L 397.051743 11.427252 C 397.051743 9.221784 397.051743 7.946809 397.16657 7.946809 L 397.16657 6.786661 L 391.132218 6.786661 L 365.256567 84.876879 L 338.335596 6.553048 L 333.580178 6.553048 L 333.580178 6.667875 L 333.231738 6.667875 L 333.231738 7.831982 L 333.346565 7.831982 C 333.465351 7.831982 333.465351 9.106957 333.465351 11.193639 L 330.796615 89.636257 C 330.677829 91.026058 330.563002 91.837766 330.448175 91.837766 L 330.329389 91.837766 L 330.329389 93.001873 L 333.116911 93.001873 Z M 446.011562 84.298785 C 447.290496 88.824549 448.21703 91.837766 448.102204 91.837766 L 448.21703 91.837766 L 448.335817 92.186206 L 448.335817 93.001873 L 455.645144 93.001873 L 455.645144 91.837766 L 455.526357 91.837766 C 455.296703 91.837766 454.136556 88.824549 452.742795 84.298785 L 428.142119 4.581192 L 426.633531 4.581192 L 404.123497 84.298785 C 402.848522 88.824549 401.918028 91.837766 401.688374 91.837766 L 401.688374 93.001873 L 404.35711 93.001873 L 404.35711 91.837766 L 404.242283 91.837766 C 404.242283 91.837766 405.168818 88.127669 406.677406 82.556584 L 417.467176 43.337255 L 434.061644 43.337255 Z M 425.592169 14.095988 L 433.598377 41.71384 L 417.934402 41.71384 Z M 522.941632 8.873343 C 522.826805 8.410076 522.826805 7.831982 522.708019 7.364755 L 522.708019 6.553048 L 460.396602 6.553048 L 460.281775 7.364755 C 460.281775 7.831982 460.166948 8.410076 460.166948 8.873343 L 461.093483 8.873343 L 461.55675 8.758516 C 463.413778 8.410076 468.402809 8.176463 473.973894 8.176463 L 488.362894 8.176463 L 488.362894 84.298785 C 488.362894 88.824549 488.248067 91.837766 488.129281 91.837766 L 488.014454 91.837766 L 488.014454 93.001873 L 494.97534 93.001873 C 495.094127 93.001873 495.094127 92.76826 494.97534 92.41982 C 495.094127 92.071379 495.094127 91.837766 494.97534 91.837766 C 494.860513 91.837766 494.6269 88.824549 494.6269 84.298785 L 494.6269 8.176463 L 509.134686 8.176463 C 514.701812 8.176463 519.576016 8.410076 521.433044 8.758516 L 522.011138 8.873343 Z M 561.111681 45.079456 L 561.111681 42.755201 L 559.951534 42.755201 C 559.139826 42.988814 554.614062 43.103641 548.694537 43.103641 L 537.093059 43.103641 L 537.093059 8.295249 L 552.642207 8.295249 C 559.603093 8.295249 565.289005 8.524903 567.031206 8.873343 L 568.306181 8.873343 L 568.306181 6.667875 L 530.361827 6.667875 L 530.361827 7.831982 L 530.480613 7.831982 C 530.59544 7.831982 530.710267 10.845198 530.710267 15.370963 L 530.710267 84.413612 C 530.710267 88.939376 530.59544 91.956552 530.480613 91.956552 L 530.361827 91.956552 L 530.361827 93.1167 L 568.888235 93.1167 L 569.117889 92.186206 C 569.117889 91.722939 569.232716 91.259672 569.351502 90.796405 L 568.539795 90.796405 L 567.957741 90.911232 C 566.797593 91.144845 564.01403 91.374499 560.414801 91.493285 L 537.093059 91.493285 L 537.093059 44.612229 L 548.694537 44.612229 C 554.614062 44.612229 559.139826 44.731016 559.951534 44.96067 L 560.299974 45.079456 Z M 561.111681 45.079456 " stroke="#f28f69" stroke-width="4.4559" stroke-opacity="1" stroke-miterlimit="4"/></svg>